WixMadeforText-Regular.ufo
<glyph name="quotesingle" format="2">
	<unicode hex="0027"/>
	<advance width="254"/>
	<outline>
		<contour>
			<point x="144" y="491" type="line"/>
			<point x="158" y="572"/>
			<point x="170" y="663"/>
			<point x="170" y="690" type="curve" smooth="yes"/>
			<point x="170" y="717"/>
			<point x="151" y="737"/>
			<point x="127" y="737" type="curve" smooth="yes"/>
			<point x="103" y="737"/>
			<point x="84" y="717"/>
			<point x="84" y="690" type="curve" smooth="yes"/>
			<point x="84" y="663"/>
			<point x="96" y="572"/>
			<point x="110" y="491" type="curve"/>
		</contour>
	</outline>
</glyph>
<glyph name="parenleft" format="2">
	<unicode hex="0028"/>
	<advance width="325"/>
	<outline>
		<contour>
			<point x="286" y="-129" type="line"/>
			<point x="193" y="9"/>
			<point x="148" y="154"/>
			<point x="148" y="304" type="curve" smooth="yes"/>
			<point x="148" y="458"/>
			<point x="191" y="590"/>
			<point x="285" y="731" type="curve"/>
			<point x="211" y="731" type="line"/>
			<point x="119" y="609"/>
			<point x="73" y="462"/>
			<point x="73" y="304" type="curve" smooth="yes"/>
			<point x="73" y="143"/>
			<point x="120" y="-8"/>
			<point x="212" y="-129" type="curve"/>
		</contour>
	</outline>
</glyph>
<glyph name="asterisk" format="2">
	<unicode hex="002A"/>
	<advance width="398"/>
	<outline>
		<contour>
			<point x="285" y="370" type="curve" smooth="yes"/>
			<point x="304" y="370"/>
			<point x="323" y="388"/>
			<point x="323" y="408" type="curve" smooth="yes"/>
			<point x="323" y="418"/>
			<point x="319" y="427"/>
			<point x="312" y="437" type="curve" smooth="yes"/>
			<point x="302" y="452"/>
			<point x="265" y="490"/>
			<point x="225" y="527" type="curve"/>
			<point x="278" y="532"/>
			<point x="323" y="539"/>
			<point x="340" y="545" type="curve" smooth="yes"/>
			<point x="359" y="551"/>
			<point x="370" y="566"/>
			<point x="370" y="583" type="curve" smooth="yes"/>
			<point x="370" y="606"/>
			<point x="355" y="623"/>
			<point x="334" y="623" type="curve" smooth="yes"/>
			<point x="327" y="623"/>
			<point x="320" y="622"/>
			<point x="311" y="618" type="curve" smooth="yes"/>
			<point x="293" y="611"/>
			<point x="256" y="588"/>
			<point x="215" y="559" type="curve"/>
			<point x="227" y="613"/>
			<point x="237" y="668"/>
			<point x="237" y="688" type="curve" smooth="yes"/>
			<point x="237" y="715"/>
			<point x="222" y="731"/>
			<point x="199" y="731" type="curve" smooth="yes"/>
			<point x="176" y="731"/>
			<point x="161" y="715"/>
			<point x="161" y="688" type="curve" smooth="yes"/>
			<point x="161" y="668"/>
			<point x="171" y="613"/>
			<point x="183" y="559" type="curve"/>
			<point x="142" y="588"/>
			<point x="105" y="611"/>
			<point x="87" y="618" type="curve" smooth="yes"/>
			<point x="78" y="622"/>
			<point x="71" y="623"/>
			<point x="64" y="623" type="curve" smooth="yes"/>
			<point x="43" y="623"/>
			<point x="28" y="606"/>
			<point x="28" y="583" type="curve" smooth="yes"/>
			<point x="28" y="566"/>
			<point x="39" y="551"/>
			<point x="58" y="545" type="curve" smooth="yes"/>
			<point x="75" y="539"/>
			<point x="120" y="532"/>
			<point x="173" y="527" type="curve"/>
			<point x="133" y="490"/>
			<point x="96" y="452"/>
			<point x="86" y="437" type="curve" smooth="yes"/>
			<point x="79" y="427"/>
			<point x="75" y="418"/>
			<point x="75" y="408" type="curve" smooth="yes"/>
			<point x="75" y="388"/>
			<point x="94" y="370"/>
			<point x="113" y="370" type="curve" smooth="yes"/>
			<point x="125" y="370"/>
			<point x="136" y="376"/>
			<point x="146" y="390" type="curve" smooth="yes"/>
			<point x="156" y="405"/>
			<point x="179" y="457"/>
			<point x="199" y="508" type="curve"/>
			<point x="219" y="457"/>
			<point x="242" y="405"/>
			<point x="252" y="390" type="curve" smooth="yes"/>
			<point x="262" y="376"/>
			<point x="273" y="370"/>
		</contour>
	</outline>
</glyph>
<glyph name="comma" format="2">
	<unicode hex="002C"/>
	<advance width="242"/>
	<outline>
		<contour>
			<point x="108" y="-142" type="line"/>
			<point x="149" y="-93"/>
			<point x="179" y="-17"/>
			<point x="179" y="44" type="curve" smooth="yes"/>
			<point x="179" y="79"/>
			<point x="156" y="106"/>
			<point x="121" y="106" type="curve" smooth="yes"/>
			<point x="88" y="106"/>
			<point x="63" y="80"/>
			<point x="63" y="47" type="curve" smooth="yes"/>
			<point x="63" y="13"/>
			<point x="88" y="-12"/>
			<point x="122" y="-12" type="curve"/>
			<point x="113" y="10" type="line"/>
			<point x="113" y="-39"/>
			<point x="95" y="-90"/>
			<point x="57" y="-142" type="curve"/>
		</contour>
	</outline>
</glyph>
<glyph name="hyphen" format="2">
	<unicode hex="002D"/>
	<advance width="323"/>
	<outline>
		<contour>
			<point x="288" y="235" type="line"/>
			<point x="288" y="305" type="line"/>
			<point x="35" y="305" type="line"/>
			<point x="35" y="235" type="line"/>
		</contour>
	</outline>
</glyph>
<glyph name="zero" format="2">
	<unicode hex="0030"/>
	<advance width="640"/>
	<outline>
		<contour>
			<point x="320" y="51" type="curve" smooth="yes"/>
			<point x="214" y="51"/>
			<point x="154" y="162"/>
			<point x="154" y="358" type="curve" smooth="yes"/>
			<point x="154" y="554"/>
			<point x="214" y="664"/>
			<point x="320" y="664" type="curve" smooth="yes"/>
			<point x="426" y="664"/>
			<point x="486" y="554"/>
			<point x="486" y="358" type="curve" smooth="yes"/>
			<point x="486" y="162"/>
			<point x="426" y="51"/>
		</contour>
		<contour>
			<point x="320" y="-16" type="curve" smooth="yes"/>
			<point x="475" y="-16"/>
			<point x="567" y="125"/>
			<point x="567" y="358" type="curve" smooth="yes"/>
			<point x="567" y="591"/>
			<point x="475" y="731"/>
			<point x="320" y="731" type="curve" smooth="yes"/>
			<point x="165" y="731"/>
			<point x="73" y="591"/>
			<point x="73" y="358" type="curve" smooth="yes"/>
			<point x="73" y="125"/>
			<point x="165" y="-16"/>
		</contour>
	</outline>
</glyph>
<glyph name="three" format="2">
	<unicode hex="0033"/>
	<advance width="581"/>
	<outline>
		<contour>
			<point x="46" y="120" type="line"/>
			<point x="101" y="31"/>
			<point x="187" y="-16"/>
			<point x="286" y="-16" type="curve" smooth="yes"/>
			<point x="424" y="-16"/>
			<point x="523" y="75"/>
			<point x="523" y="199" type="curve" smooth="yes"/>
			<point x="523" y="318"/>
			<point x="426" y="396"/>
			<point x="280" y="396" type="curve"/>
			<point x="278" y="359" type="line"/>
			<point x="411" y="359"/>
			<point x="505" y="431"/>
			<point x="505" y="533" type="curve" smooth="yes"/>
			<point x="505" y="647"/>
			<point x="413" y="731"/>
			<point x="288" y="731" type="curve" smooth="yes"/>
			<point x="199" y="731"/>
			<point x="120" y="686"/>
			<point x="59" y="601" type="curve"/>
			<point x="113" y="550" type="line"/>
			<point x="161" y="626"/>
			<point x="219" y="664"/>
			<point x="288" y="664" type="curve" smooth="yes"/>
			<point x="368" y="664"/>
			<point x="424" y="611"/>
			<point x="424" y="534" type="curve" smooth="yes"/>
			<point x="424" y="460"/>
			<point x="364" y="407"/>
			<point x="279" y="407" type="curve" smooth="yes"/>
			<point x="214" y="407" type="line"/>
			<point x="214" y="340" type="line"/>
			<point x="279" y="340" type="line" smooth="yes"/>
			<point x="376" y="340"/>
			<point x="442" y="283"/>
			<point x="442" y="198" type="curve" smooth="yes"/>
			<point x="442" y="99"/>
			<point x="367" y="51"/>
			<point x="285" y="51" type="curve" smooth="yes"/>
			<point x="210" y="51"/>
			<point x="152" y="86"/>
			<point x="100" y="170" type="curve"/>
		</contour>
	</outline>
</glyph>
<glyph name="four" format="2">
	<unicode hex="0034"/>
	<advance width="639"/>
	<outline>
		<contour>
			<point x="494" y="0" type="line"/>
			<point x="494" y="178" type="line"/>
			<point x="597" y="178" type="line"/>
			<point x="597" y="245" type="line"/>
			<point x="494" y="245" type="line"/>
			<point x="494" y="715" type="line"/>
			<point x="416" y="715" type="line"/>
			<point x="48" y="245" type="line"/>
			<point x="48" y="178" type="line"/>
			<point x="416" y="178" type="line"/>
			<point x="416" y="0" type="line"/>
		</contour>
		<contour>
			<point x="416" y="615" type="line"/>
			<point x="416" y="245" type="line"/>
			<point x="130" y="245" type="line"/>
		</contour>
	</outline>
</glyph>
<glyph name="five" format="2">
	<unicode hex="0035"/>
	<advance width="575"/>
	<outline>
		<contour>
			<point x="45" y="125" type="line"/>
			<point x="94" y="32"/>
			<point x="179" y="-16"/>
			<point x="281" y="-16" type="curve" smooth="yes"/>
			<point x="425" y="-16"/>
			<point x="524" y="87"/>
			<point x="524" y="231" type="curve" smooth="yes"/>
			<point x="524" y="365"/>
			<point x="425" y="472"/>
			<point x="296" y="472" type="curve" smooth="yes"/>
			<point x="197" y="472"/>
			<point x="122" y="410"/>
			<point x="109" y="314" type="curve"/>
			<point x="135" y="311" type="line"/>
			<point x="164" y="376"/>
			<point x="229" y="405"/>
			<point x="287" y="405" type="curve" smooth="yes"/>
			<point x="380" y="405"/>
			<point x="444" y="331"/>
			<point x="444" y="235" type="curve" smooth="yes"/>
			<point x="444" y="125"/>
			<point x="380" y="51"/>
			<point x="282" y="51" type="curve" smooth="yes"/>
			<point x="204" y="51"/>
			<point x="142" y="94"/>
			<point x="99" y="175" type="curve"/>
		</contour>
		<contour>
			<point x="488" y="648" type="line"/>
			<point x="488" y="715" type="line"/>
			<point x="108" y="715" type="line"/>
			<point x="64" y="311" type="line"/>
			<point x="135" y="311" type="line"/>
			<point x="173" y="669" type="line"/>
			<point x="145" y="648" type="line"/>
		</contour>
	</outline>
	<guideline x="-442"/>
</glyph>
<glyph name="six" format="2">
	<unicode hex="0036"/>
	<advance width="612"/>
	<outline>
		<contour>
			<point x="303" y="-16" type="curve" smooth="yes"/>
			<point x="449" y="-16"/>
			<point x="550" y="91"/>
			<point x="550" y="231" type="curve" smooth="yes"/>
			<point x="550" y="373"/>
			<point x="443" y="470"/>
			<point x="317" y="470" type="curve" smooth="yes"/>
			<point x="227" y="470"/>
			<point x="163" y="421"/>
			<point x="139" y="345" type="curve"/>
			<point x="147" y="335" type="line"/>
			<point x="177" y="451"/>
			<point x="259" y="559"/>
			<point x="454" y="715" type="curve"/>
			<point x="346" y="715" type="line"/>
			<point x="146" y="552"/>
			<point x="61" y="396"/>
			<point x="61" y="249" type="curve" smooth="yes"/>
			<point x="61" y="89"/>
			<point x="158" y="-16"/>
		</contour>
		<contour>
			<point x="305" y="51" type="curve" smooth="yes"/>
			<point x="210" y="51"/>
			<point x="139" y="125"/>
			<point x="139" y="228" type="curve" smooth="yes"/>
			<point x="139" y="335"/>
			<point x="213" y="404"/>
			<point x="305" y="404" type="curve" smooth="yes"/>
			<point x="400" y="404"/>
			<point x="470" y="331"/>
			<point x="470" y="228" type="curve" smooth="yes"/>
			<point x="470" y="125"/>
			<point x="400" y="51"/>
		</contour>
	</outline>
</glyph>
<glyph name="seven" format="2">
	<unicode hex="0037"/>
	<advance width="584"/>
	<outline>
		<contour>
			<point x="521" y="715" type="line"/>
			<point x="63" y="715" type="line"/>
			<point x="63" y="648" type="line"/>
			<point x="438" y="648" type="line"/>
			<point x="99" y="0" type="line"/>
			<point x="182" y="0" type="line"/>
			<point x="521" y="648" type="line"/>
		</contour>
	</outline>
</glyph>
<glyph name="eight" format="2">
	<unicode hex="0038"/>
	<advance width="610"/>
	<outline>
		<contour>
			<point x="305" y="-16" type="curve" smooth="yes"/>
			<point x="448" y="-16"/>
			<point x="552" y="71"/>
			<point x="552" y="194" type="curve" smooth="yes"/>
			<point x="552" y="311"/>
			<point x="448" y="398"/>
			<point x="305" y="398" type="curve" smooth="yes"/>
			<point x="162" y="398"/>
			<point x="58" y="311"/>
			<point x="58" y="194" type="curve" smooth="yes"/>
			<point x="58" y="71"/>
			<point x="162" y="-16"/>
		</contour>
		<contour>
			<point x="305" y="51" type="curve" smooth="yes"/>
			<point x="212" y="51"/>
			<point x="139" y="113"/>
			<point x="139" y="195" type="curve" smooth="yes"/>
			<point x="139" y="277"/>
			<point x="212" y="338"/>
			<point x="305" y="338" type="curve" smooth="yes"/>
			<point x="398" y="338"/>
			<point x="471" y="277"/>
			<point x="471" y="195" type="curve" smooth="yes"/>
			<point x="471" y="113"/>
			<point x="398" y="51"/>
		</contour>
		<contour>
			<point x="305" y="356" type="curve" smooth="yes"/>
			<point x="433" y="356"/>
			<point x="527" y="432"/>
			<point x="527" y="533" type="curve" smooth="yes"/>
			<point x="527" y="649"/>
			<point x="434" y="731"/>
			<point x="305" y="731" type="curve" smooth="yes"/>
			<point x="176" y="731"/>
			<point x="83" y="649"/>
			<point x="83" y="533" type="curve" smooth="yes"/>
			<point x="83" y="432"/>
			<point x="177" y="356"/>
		</contour>
		<contour>
			<point x="305" y="405" type="curve" smooth="yes"/>
			<point x="226" y="405"/>
			<point x="163" y="460"/>
			<point x="163" y="532" type="curve" smooth="yes"/>
			<point x="163" y="607"/>
			<point x="226" y="664"/>
			<point x="305" y="664" type="curve" smooth="yes"/>
			<point x="384" y="664"/>
			<point x="447" y="607"/>
			<point x="447" y="532" type="curve" smooth="yes"/>
			<point x="447" y="460"/>
			<point x="384" y="405"/>
		</contour>
	</outline>
</glyph>
<glyph name="nine" format="2">
	<unicode hex="0039"/>
	<advance width="612"/>
	<outline>
		<contour>
			<point x="312" y="731" type="curve" smooth="yes"/>
			<point x="166" y="731"/>
			<point x="65" y="624"/>
			<point x="65" y="484" type="curve" smooth="yes"/>
			<point x="65" y="342"/>
			<point x="172" y="245"/>
			<point x="298" y="245" type="curve" smooth="yes"/>
			<point x="388" y="245"/>
			<point x="452" y="294"/>
			<point x="476" y="370" type="curve"/>
			<point x="468" y="380" type="line"/>
			<point x="438" y="264"/>
			<point x="356" y="156"/>
			<point x="161" y="0" type="curve"/>
			<point x="269" y="0" type="line"/>
			<point x="469" y="163"/>
			<point x="554" y="319"/>
			<point x="554" y="466" type="curve" smooth="yes"/>
			<point x="554" y="626"/>
			<point x="457" y="731"/>
		</contour>
		<contour>
			<point x="310" y="664" type="curve" smooth="yes"/>
			<point x="405" y="664"/>
			<point x="476" y="590"/>
			<point x="476" y="487" type="curve" smooth="yes"/>
			<point x="476" y="380"/>
			<point x="402" y="311"/>
			<point x="310" y="311" type="curve" smooth="yes"/>
			<point x="215" y="311"/>
			<point x="145" y="384"/>
			<point x="145" y="487" type="curve" smooth="yes"/>
			<point x="145" y="590"/>
			<point x="215" y="664"/>
		</contour>
	</outline>
</glyph>
<glyph name="less" format="2">
	<unicode hex="003C"/>
	<advance width="632"/>
	<outline>
		<contour>
			<point x="121" y="384" type="line"/>
			<point x="121" y="316" type="line"/>
			<point x="510" y="137" type="line"/>
			<point x="510" y="211" type="line"/>
		</contour>
		<contour>
			<point x="121" y="404" type="line"/>
			<point x="121" y="339" type="line"/>
			<point x="510" y="511" type="line"/>
			<point x="510" y="582" type="line"/>
		</contour>
	</outline>
	<guideline x="0" y="372" angle="24.59"/>
	<guideline x="0" y="439" angle="24.59"/>
	<guideline x="0" y="282" angle="155.29"/>
	<guideline x="0" y="348" angle="155.29"/>
</glyph>
<glyph name="greater" format="2">
	<unicode hex="003E"/>
	<advance width="632"/>
	<outline>
		<contour>
			<point x="511" y="333" type="line"/>
			<point x="511" y="401" type="line"/>
			<point x="122" y="580" type="line"/>
			<point x="122" y="506" type="line"/>
		</contour>
		<contour>
			<point x="511" y="313" type="line"/>
			<point x="511" y="378" type="line"/>
			<point x="122" y="206" type="line"/>
			<point x="122" y="135" type="line"/>
		</contour>
	</outline>
</glyph>
<glyph name="question" format="2">
	<unicode hex="003F"/>
	<advance width="571"/>
	<outline>
		<contour>
			<point x="287" y="204" type="line"/>
			<point x="288" y="273"/>
			<point x="305" y="309"/>
			<point x="375" y="361" type="curve" smooth="yes"/>
			<point x="463" y="427"/>
			<point x="495" y="472"/>
			<point x="495" y="555" type="curve" smooth="yes"/>
			<point x="495" y="661"/>
			<point x="412" y="731"/>
			<point x="286" y="731" type="curve" smooth="yes"/>
			<point x="195" y="731"/>
			<point x="113" y="685"/>
			<point x="53" y="601" type="curve"/>
			<point x="107" y="552" type="line"/>
			<point x="155" y="627"/>
			<point x="214" y="665"/>
			<point x="285" y="665" type="curve" smooth="yes"/>
			<point x="367" y="665"/>
			<point x="419" y="621"/>
			<point x="419" y="552" type="curve" smooth="yes"/>
			<point x="419" y="491"/>
			<point x="399" y="455"/>
			<point x="340" y="413" type="curve" smooth="yes"/>
			<point x="246" y="346"/>
			<point x="224" y="301"/>
			<point x="234" y="204" type="curve"/>
		</contour>
		<contour>
			<point x="258" y="-12" type="curve" smooth="yes"/>
			<point x="291" y="-12"/>
			<point x="316" y="14"/>
			<point x="316" y="47" type="curve" smooth="yes"/>
			<point x="316" y="80"/>
			<point x="291" y="106"/>
			<point x="258" y="106" type="curve" smooth="yes"/>
			<point x="225" y="106"/>
			<point x="200" y="80"/>
			<point x="200" y="47" type="curve" smooth="yes"/>
			<point x="200" y="14"/>
			<point x="225" y="-12"/>
		</contour>
	</outline>
	<guideline x="252"/>
	<guideline x="258"/>
	<guideline x="286"/>
	<guideline y="731"/>
</glyph>
<glyph name="A" format="2">
	<unicode hex="0041"/>
	<advance width="702"/>
	<outline>
		<contour>
			<point x="533" y="198" type="line"/>
			<point x="533" y="268" type="line"/>
			<point x="164" y="268" type="line"/>
			<point x="164" y="198" type="line"/>
		</contour>
		<contour>
			<point x="665" y="0" type="line"/>
			<point x="394" y="715" type="line"/>
			<point x="308" y="715" type="line"/>
			<point x="37" y="0" type="line"/>
			<point x="118" y="0" type="line"/>
			<point x="366" y="666" type="line"/>
			<point x="333" y="666" type="line"/>
			<point x="581" y="0" type="line"/>
		</contour>
	</outline>
	<anchor name="bottom.UC" x="351" y="-50"/>
	<anchor name="ogonek.UC" x="564" y="-30"/>
	<anchor name="top.UC" x="351" y="750"/>
</glyph>
<glyph name="C" format="2">
	<unicode hex="0043"/>
	<advance width="719"/>
	<outline>
		<contour>
			<point x="615" y="175" type="line"/>
			<point x="567" y="98"/>
			<point x="494" y="56"/>
			<point x="406" y="56" type="curve" smooth="yes"/>
			<point x="258" y="56"/>
			<point x="148" y="184"/>
			<point x="148" y="357" type="curve" smooth="yes"/>
			<point x="148" y="532"/>
			<point x="257" y="659"/>
			<point x="406" y="659" type="curve" smooth="yes"/>
			<point x="495" y="659"/>
			<point x="566" y="619"/>
			<point x="615" y="540" type="curve"/>
			<point x="671" y="595" type="line"/>
			<point x="610" y="683"/>
			<point x="517" y="731"/>
			<point x="408" y="731" type="curve" smooth="yes"/>
			<point x="212" y="731"/>
			<point x="65" y="570"/>
			<point x="65" y="357" type="curve" smooth="yes"/>
			<point x="65" y="145"/>
			<point x="212" y="-16"/>
			<point x="406" y="-16" type="curve" smooth="yes"/>
			<point x="510" y="-16"/>
			<point x="613" y="36"/>
			<point x="671" y="120" type="curve"/>
		</contour>
	</outline>
	<anchor name="bottom.UC" x="409" y="-50"/>
	<anchor name="top.UC" x="406" y="750"/>
</glyph>
<glyph name="E" format="2">
	<unicode hex="0045"/>
	<advance width="605"/>
	<outline>
		<contour>
			<point x="554" y="0" type="line"/>
			<point x="554" y="70" type="line"/>
			<point x="186" y="70" type="line"/>
			<point x="186" y="645" type="line"/>
			<point x="554" y="645" type="line"/>
			<point x="554" y="715" type="line"/>
			<point x="106" y="715" type="line"/>
			<point x="106" y="0" type="line"/>
		</contour>
		<contour>
			<point x="536" y="331" type="line"/>
			<point x="536" y="401" type="line"/>
			<point x="176" y="401" type="line"/>
			<point x="176" y="331" type="line"/>
		</contour>
	</outline>
	<anchor name="bottom.UC" x="330" y="-50"/>
	<anchor name="ogonek.UC" x="457" y="-30"/>
	<anchor name="top.UC" x="330" y="750"/>
</glyph>
<glyph name="H" format="2">
	<unicode hex="0048"/>
	<advance width="754"/>
	<outline>
		<contour>
			<point x="568" y="0" type="line"/>
			<point x="648" y="0" type="line"/>
			<point x="648" y="715" type="line"/>
			<point x="568" y="715" type="line"/>
		</contour>
		<contour>
			<point x="186" y="0" type="line"/>
			<point x="186" y="715" type="line"/>
			<point x="106" y="715" type="line"/>
			<point x="106" y="0" type="line"/>
		</contour>
		<contour>
			<point x="176" y="336" type="line"/>
			<point x="577" y="336" type="line"/>
			<point x="577" y="407" type="line"/>
			<point x="176" y="407" type="line"/>
		</contour>
	</outline>
	<anchor name="bottom.UC" x="377" y="-50"/>
	<anchor name="top.UC" x="377" y="750"/>
</glyph>
<glyph name="I" format="2">
	<unicode hex="0049"/>
	<advance width="292"/>
	<outline>
		<contour>
			<point x="186" y="0" type="line"/>
			<point x="186" y="715" type="line"/>
			<point x="106" y="715" type="line"/>
			<point x="106" y="0" type="line"/>
		</contour>
	</outline>
	<anchor name="bottom.UC" x="146" y="-50"/>
	<anchor name="ogonek.UC" x="89" y="-30"/>
	<anchor name="top.UC" x="146" y="750"/>
</glyph>
<glyph name="L" format="2">
	<unicode hex="004C"/>
	<advance width="573"/>
	<outline>
		<contour>
			<point x="535" y="0" type="line"/>
			<point x="535" y="71" type="line"/>
			<point x="186" y="71" type="line"/>
			<point x="186" y="715" type="line"/>
			<point x="106" y="715" type="line"/>
			<point x="106" y="0" type="line"/>
		</contour>
	</outline>
	<anchor name="bottom.UC" x="320" y="-50"/>
	<anchor name="top.UC" x="146" y="750"/>
	<anchor name="top_right" x="371" y="540"/>
</glyph>
<glyph name="N" format="2">
	<unicode hex="004E"/>
	<advance width="760"/>
	<outline>
		<contour>
			<point x="183" y="0" type="line"/>
			<point x="183" y="629" type="line"/>
			<point x="163" y="629" type="line"/>
			<point x="568" y="0" type="line"/>
			<point x="654" y="0" type="line"/>
			<point x="654" y="715" type="line"/>
			<point x="577" y="715" type="line"/>
			<point x="577" y="86" type="line"/>
			<point x="597" y="86" type="line"/>
			<point x="192" y="715" type="line"/>
			<point x="106" y="715" type="line"/>
			<point x="106" y="0" type="line"/>
		</contour>
	</outline>
	<anchor name="bottom.UC" x="362" y="-50"/>
	<anchor name="top.UC" x="384" y="750"/>
</glyph>
<glyph name="R" format="2">
	<unicode hex="0052"/>
	<advance width="695"/>
	<outline>
		<contour>
			<point x="186" y="0" type="line"/>
			<point x="186" y="645" type="line"/>
			<point x="368" y="645" type="line" smooth="yes"/>
			<point x="456" y="645"/>
			<point x="509" y="596"/>
			<point x="509" y="514" type="curve" smooth="yes"/>
			<point x="509" y="432"/>
			<point x="456" y="383"/>
			<point x="368" y="383" type="curve" smooth="yes"/>
			<point x="176" y="383" type="line"/>
			<point x="176" y="313" type="line"/>
			<point x="368" y="313" type="line" smooth="yes"/>
			<point x="501" y="313"/>
			<point x="591" y="394"/>
			<point x="591" y="514" type="curve" smooth="yes"/>
			<point x="591" y="635"/>
			<point x="501" y="715"/>
			<point x="368" y="715" type="curve" smooth="yes"/>
			<point x="106" y="715" type="line"/>
			<point x="106" y="0" type="line"/>
		</contour>
		<contour>
			<point x="657" y="0" type="line"/>
			<point x="393" y="333" type="line"/>
			<point x="300" y="333" type="line"/>
			<point x="555" y="0" type="line"/>
		</contour>
	</outline>
	<anchor name="top.UC" x="320" y="750"/>
</glyph>
<glyph name="S" format="2">
	<unicode hex="0053"/>
	<advance width="661"/>
	<outline>
		<contour>
			<point x="48" y="115" type="line"/>
			<point x="124" y="28"/>
			<point x="221" y="-16"/>
			<point x="335" y="-16" type="curve" smooth="yes"/>
			<point x="491" y="-16"/>
			<point x="602" y="73"/>
			<point x="602" y="200" type="curve" smooth="yes"/>
			<point x="602" y="321"/>
			<point x="526" y="381"/>
			<point x="336" y="410" type="curve" smooth="yes"/>
			<point x="208" y="430"/>
			<point x="158" y="463"/>
			<point x="158" y="527" type="curve" smooth="yes"/>
			<point x="158" y="609"/>
			<point x="223" y="659"/>
			<point x="328" y="659" type="curve" smooth="yes"/>
			<point x="416" y="659"/>
			<point x="481" y="626"/>
			<point x="544" y="551" type="curve"/>
			<point x="600" y="607" type="line"/>
			<point x="526" y="691"/>
			<point x="439" y="731"/>
			<point x="328" y="731" type="curve" smooth="yes"/>
			<point x="181" y="731"/>
			<point x="75" y="645"/>
			<point x="75" y="526" type="curve" smooth="yes"/>
			<point x="75" y="417"/>
			<point x="147" y="362"/>
			<point x="329" y="333" type="curve" smooth="yes"/>
			<point x="467" y="310"/>
			<point x="520" y="273"/>
			<point x="520" y="199" type="curve" smooth="yes"/>
			<point x="520" y="112"/>
			<point x="447" y="56"/>
			<point x="335" y="56" type="curve" smooth="yes"/>
			<point x="244" y="56"/>
			<point x="169" y="94"/>
			<point x="105" y="172" type="curve"/>
		</contour>
	</outline>
	<anchor name="top.UC" x="328" y="750"/>
	<anchor name="bottom.UC" x="335" y="-50"/>
</glyph>
<glyph name="T" format="2">
	<unicode hex="0054"/>
	<advance width="600"/>
	<outline>
		<contour>
			<point x="340" y="0" type="line"/>
			<point x="340" y="654" type="line"/>
			<point x="260" y="654" type="line"/>
			<point x="260" y="0" type="line"/>
		</contour>
		<contour>
			<point x="562" y="644" type="line"/>
			<point x="562" y="715" type="line"/>
			<point x="38" y="715" type="line"/>
			<point x="38" y="644" type="line"/>
		</contour>
	</outline>
	<anchor name="bottom.UC" x="300" y="-50"/>
	<anchor name="top.UC" x="305" y="750"/>
</glyph>
<glyph name="W" format="2">
	<unicode hex="0057"/>
	<advance width="1004"/>
	<outline>
		<contour>
			<point x="754" y="0" type="line"/>
			<point x="958" y="715" type="line"/>
			<point x="876" y="715" type="line"/>
			<point x="694" y="44" type="line"/>
			<point x="721" y="44" type="line"/>
			<point x="545" y="715" type="line"/>
			<point x="460" y="715" type="line"/>
			<point x="284" y="44" type="line"/>
			<point x="314" y="44" type="line"/>
			<point x="132" y="715" type="line"/>
			<point x="46" y="715" type="line"/>
			<point x="250" y="0" type="line"/>
			<point x="344" y="0" type="line"/>
			<point x="506" y="621" type="line"/>
			<point x="498" y="621" type="line"/>
			<point x="660" y="0" type="line"/>
		</contour>
	</outline>
	<anchor name="top.UC" x="502" y="750"/>
	<guideline y="870"/>
</glyph>
<glyph name="Y" format="2">
	<unicode hex="0059"/>
	<advance width="655"/>
	<outline>
		<contour>
			<point x="368" y="0" type="line"/>
			<point x="368" y="312" type="line"/>
			<point x="617" y="715" type="line"/>
			<point x="530" y="715" type="line"/>
			<point x="319" y="358" type="line"/>
			<point x="341" y="358" type="line"/>
			<point x="131" y="715" type="line"/>
			<point x="38" y="715" type="line"/>
			<point x="288" y="314" type="line"/>
			<point x="288" y="0" type="line"/>
		</contour>
	</outline>
	<anchor name="bottom.UC" x="330" y="-50"/>
	<anchor name="top.UC" x="330" y="750"/>
</glyph>
<glyph name="Z" format="2">
	<unicode hex="005A"/>
	<advance width="597"/>
	<outline>
		<contour>
			<point x="544" y="0" type="line"/>
			<point x="544" y="71" type="line"/>
			<point x="144" y="71" type="line"/>
			<point x="533" y="644" type="line"/>
			<point x="533" y="715" type="line"/>
			<point x="62" y="715" type="line"/>
			<point x="62" y="644" type="line"/>
			<point x="439" y="644" type="line"/>
			<point x="50" y="71" type="line"/>
			<point x="50" y="0" type="line"/>
		</contour>
	</outline>
	<anchor name="top.UC" x="297" y="750"/>
</glyph>
<glyph name="e" format="2">
	<unicode hex="0065"/>
	<advance width="576"/>
	<outline>
		<contour>
			<point x="459" y="141" type="line"/>
			<point x="419" y="79"/>
			<point x="370" y="51"/>
			<point x="309" y="51" type="curve" smooth="yes"/>
			<point x="203" y="51"/>
			<point x="134" y="133"/>
			<point x="134" y="247" type="curve" smooth="yes"/>
			<point x="134" y="361"/>
			<point x="201" y="441"/>
			<point x="294" y="441" type="curve" smooth="yes"/>
			<point x="385" y="441"/>
			<point x="444" y="365"/>
			<point x="444" y="250" type="curve" smooth="yes"/>
			<point x="444" y="243" type="line"/>
			<point x="522" y="243" type="line"/>
			<point x="522" y="249" type="line" smooth="yes"/>
			<point x="522" y="401"/>
			<point x="428" y="508"/>
			<point x="294" y="508" type="curve" smooth="yes"/>
			<point x="157" y="508"/>
			<point x="54" y="396"/>
			<point x="54" y="246" type="curve" smooth="yes"/>
			<point x="54" y="95"/>
			<point x="156" y="-16"/>
			<point x="304" y="-16" type="curve" smooth="yes"/>
			<point x="388" y="-16"/>
			<point x="459" y="19"/>
			<point x="511" y="91" type="curve"/>
		</contour>
		<contour>
			<point x="522" y="219" type="line"/>
			<point x="522" y="249" type="line"/>
			<point x="507" y="282" type="line"/>
			<point x="115" y="282" type="line"/>
			<point x="115" y="219" type="line"/>
		</contour>
	</outline>
	<anchor name="bottom.LC" x="299" y="-50"/>
	<anchor name="ogonek.LC.round" x="358" y="-30"/>
	<anchor name="top.LC" x="290" y="544"/>
</glyph>
<glyph name="i" format="2">
	<unicode hex="0069"/>
	<advance width="247"/>
	<outline>
		<contour>
			<point x="162" y="0" type="line"/>
			<point x="162" y="492" type="line"/>
			<point x="85" y="492" type="line"/>
			<point x="85" y="0" type="line"/>
		</contour>
		<contour>
			<point x="177" y="678" type="curve" smooth="yes"/>
			<point x="177" y="710"/>
			<point x="154" y="733"/>
			<point x="123" y="733" type="curve" smooth="yes"/>
			<point x="92" y="733"/>
			<point x="69" y="710"/>
			<point x="69" y="678" type="curve" smooth="yes"/>
			<point x="69" y="646"/>
			<point x="92" y="623"/>
			<point x="123" y="623" type="curve" smooth="yes"/>
			<point x="154" y="623"/>
			<point x="177" y="646"/>
		</contour>
	</outline>
	<anchor name="bottom.LC" x="123" y="-50"/>
	<anchor name="ogonek.LC" x="65" y="-30"/>
	<guideline x="90" y="0" angle="90"/>
	<guideline x="155" y="0" angle="90"/>
	<guideline x="0" y="647" angle="0"/>
	<guideline x="0" y="709" angle="0"/>
</glyph>
<glyph name="k" format="2">
	<unicode hex="006B"/>
	<advance width="539"/>
	<outline>
		<contour>
			<point x="162" y="0" type="line"/>
			<point x="162" y="720" type="line"/>
			<point x="85" y="720" type="line"/>
			<point x="85" y="0" type="line"/>
		</contour>
		<contour>
			<point x="529" y="0" type="line"/>
			<point x="234" y="264" type="line"/>
			<point x="234" y="246" type="line"/>
			<point x="502" y="492" type="line"/>
			<point x="399" y="492" type="line"/>
			<point x="147" y="255" type="line"/>
			<point x="137" y="255" type="line"/>
			<point x="418" y="0" type="line"/>
		</contour>
	</outline>
	<anchor name="bottom.LC" x="290" y="-50"/>
</glyph>
<glyph name="l" format="2">
	<unicode hex="006C"/>
	<advance width="247"/>
	<outline>
		<contour>
			<point x="162" y="0" type="line"/>
			<point x="162" y="720" type="line"/>
			<point x="85" y="720" type="line"/>
			<point x="85" y="0" type="line"/>
		</contour>
	</outline>
	<anchor name="bottom.LC" x="123" y="-50"/>
	<anchor name="top.LC" x="123" y="766"/>
	<anchor name="top_right" x="268" y="540"/>
</glyph>
<glyph name="m" format="2">
	<unicode hex="006D"/>
	<advance width="903"/>
	<outline>
		<contour>
			<point x="827" y="0" type="line"/>
			<point x="827" y="292" type="line" smooth="yes"/>
			<point x="827" y="430"/>
			<point x="763" y="508"/>
			<point x="650" y="508" type="curve" smooth="yes"/>
			<point x="558" y="508"/>
			<point x="491" y="453"/>
			<point x="469" y="358" type="curve"/>
			<point x="481" y="358" type="line"/>
			<point x="464" y="454"/>
			<point x="409" y="508"/>
			<point x="322" y="508" type="curve" smooth="yes"/>
			<point x="237" y="508"/>
			<point x="176" y="457"/>
			<point x="154" y="369" type="curve"/>
			<point x="161" y="368" type="line"/>
			<point x="161" y="492" type="line"/>
			<point x="85" y="492" type="line"/>
			<point x="85" y="0" type="line"/>
			<point x="162" y="0" type="line"/>
			<point x="162" y="221" type="line" smooth="yes"/>
			<point x="162" y="355"/>
			<point x="218" y="440"/>
			<point x="306" y="440" type="curve" smooth="yes"/>
			<point x="377" y="440"/>
			<point x="417" y="383"/>
			<point x="417" y="284" type="curve" smooth="yes"/>
			<point x="417" y="0" type="line"/>
			<point x="494" y="0" type="line"/>
			<point x="494" y="221" type="line" smooth="yes"/>
			<point x="494" y="356"/>
			<point x="550" y="440"/>
			<point x="639" y="440" type="curve" smooth="yes"/>
			<point x="709" y="440"/>
			<point x="750" y="383"/>
			<point x="750" y="284" type="curve" smooth="yes"/>
			<point x="750" y="0" type="line"/>
		</contour>
	</outline>
</glyph>
<glyph name="n" format="2">
	<unicode hex="006E"/>
	<advance width="589"/>
	<outline>
		<contour>
			<point x="513" y="0" type="line"/>
			<point x="513" y="292" type="line" smooth="yes"/>
			<point x="513" y="432"/>
			<point x="444" y="508"/>
			<point x="331" y="508" type="curve" smooth="yes"/>
			<point x="249" y="508"/>
			<point x="169" y="464"/>
			<point x="148" y="342" type="curve"/>
			<point x="161" y="342" type="line"/>
			<point x="161" y="492" type="line"/>
			<point x="85" y="492" type="line"/>
			<point x="85" y="0" type="line"/>
			<point x="162" y="0" type="line"/>
			<point x="162" y="221" type="line" smooth="yes"/>
			<point x="162" y="375"/>
			<point x="236" y="440"/>
			<point x="316" y="440" type="curve" smooth="yes"/>
			<point x="389" y="440"/>
			<point x="436" y="387"/>
			<point x="436" y="283" type="curve" smooth="yes"/>
			<point x="436" y="0" type="line"/>
		</contour>
	</outline>
	<anchor name="top.LC" x="323" y="544"/>
	<anchor name="bottom.LC" x="299" y="-50"/>
</glyph>
<glyph name="p" format="2">
	<unicode hex="0070"/>
	<advance width="628"/>
	<outline>
		<contour>
			<point x="162" y="-194" type="line"/>
			<point x="162" y="232" type="line" smooth="yes"/>
			<point x="162" y="355"/>
			<point x="233" y="441"/>
			<point x="331" y="441" type="curve" smooth="yes"/>
			<point x="427" y="441"/>
			<point x="493" y="360"/>
			<point x="493" y="246" type="curve" smooth="yes"/>
			<point x="493" y="131"/>
			<point x="424" y="51"/>
			<point x="325" y="51" type="curve" smooth="yes"/>
			<point x="234" y="51"/>
			<point x="161" y="119"/>
			<point x="153" y="213" type="curve"/>
			<point x="138" y="193" type="line"/>
			<point x="125" y="74"/>
			<point x="211" y="-16"/>
			<point x="336" y="-16" type="curve" smooth="yes"/>
			<point x="474" y="-16"/>
			<point x="574" y="94"/>
			<point x="574" y="246" type="curve" smooth="yes"/>
			<point x="574" y="396"/>
			<point x="477" y="508"/>
			<point x="342" y="508" type="curve" smooth="yes"/>
			<point x="242" y="508"/>
			<point x="158" y="440"/>
			<point x="143" y="343" type="curve"/>
			<point x="161" y="343" type="line"/>
			<point x="161" y="492" type="line"/>
			<point x="85" y="492" type="line"/>
			<point x="85" y="-194" type="line"/>
		</contour>
	</outline>
</glyph>
<glyph name="q" format="2">
	<unicode hex="0071"/>
	<advance width="628"/>
	<outline>
		<contour>
			<point x="466" y="-194" type="line"/>
			<point x="466" y="232" type="line" smooth="yes"/>
			<point x="466" y="355"/>
			<point x="398" y="441"/>
			<point x="300" y="441" type="curve" smooth="yes"/>
			<point x="204" y="441"/>
			<point x="135" y="360"/>
			<point x="135" y="246" type="curve" smooth="yes"/>
			<point x="135" y="131"/>
			<point x="204" y="51"/>
			<point x="303" y="51" type="curve" smooth="yes"/>
			<point x="394" y="51"/>
			<point x="467" y="119"/>
			<point x="475" y="213" type="curve"/>
			<point x="490" y="193" type="line"/>
			<point x="503" y="74"/>
			<point x="417" y="-16"/>
			<point x="292" y="-16" type="curve" smooth="yes"/>
			<point x="154" y="-16"/>
			<point x="54" y="94"/>
			<point x="54" y="246" type="curve" smooth="yes"/>
			<point x="54" y="396"/>
			<point x="154" y="508"/>
			<point x="289" y="508" type="curve" smooth="yes"/>
			<point x="391" y="508"/>
			<point x="472" y="440"/>
			<point x="487" y="343" type="curve"/>
			<point x="467" y="343" type="line"/>
			<point x="467" y="492" type="line"/>
			<point x="543" y="492" type="line"/>
			<point x="543" y="-194" type="line"/>
		</contour>
	</outline>
</glyph>
<glyph name="s" format="2">
	<unicode hex="0073"/>
	<advance width="492"/>
	<outline>
		<contour>
			<point x="27" y="76" type="line"/>
			<point x="81" y="18"/>
			<point x="148" y="-16"/>
			<point x="244" y="-16" type="curve" smooth="yes"/>
			<point x="360" y="-16"/>
			<point x="445" y="47"/>
			<point x="445" y="140" type="curve" smooth="yes"/>
			<point x="445" y="226"/>
			<point x="391" y="271"/>
			<point x="246" y="292" type="curve" smooth="yes"/>
			<point x="158" y="305"/>
			<point x="128" y="325"/>
			<point x="128" y="363" type="curve" smooth="yes"/>
			<point x="128" y="410"/>
			<point x="173" y="443"/>
			<point x="239" y="443" type="curve" smooth="yes"/>
			<point x="302" y="443"/>
			<point x="350" y="412"/>
			<point x="387" y="363" type="curve"/>
			<point x="437" y="416" type="line"/>
			<point x="386" y="474"/>
			<point x="322" y="508"/>
			<point x="239" y="508" type="curve" smooth="yes"/>
			<point x="127" y="508"/>
			<point x="49" y="449"/>
			<point x="49" y="359" type="curve" smooth="yes"/>
			<point x="49" y="283"/>
			<point x="99" y="243"/>
			<point x="239" y="221" type="curve" smooth="yes"/>
			<point x="331" y="207"/>
			<point x="365" y="183"/>
			<point x="365" y="139" type="curve" smooth="yes"/>
			<point x="365" y="86"/>
			<point x="316" y="49"/>
			<point x="244" y="49" type="curve" smooth="yes"/>
			<point x="174" y="49"/>
			<point x="120" y="80"/>
			<point x="77" y="129" type="curve"/>
		</contour>
	</outline>
	<anchor name="top.LC" x="239" y="544"/>
	<anchor name="bottom.LC" x="244" y="-50"/>
</glyph>
<glyph name="t" format="2">
	<unicode hex="0074"/>
	<advance width="379"/>
	<outline>
		<contour>
			<point x="341" y="0" type="line"/>
			<point x="341" y="66" type="line"/>
			<point x="250" y="66" type="line" smooth="yes"/>
			<point x="218" y="66"/>
			<point x="202" y="85"/>
			<point x="202" y="117" type="curve" smooth="yes"/>
			<point x="202" y="636" type="line"/>
			<point x="125" y="636" type="line"/>
			<point x="125" y="110" type="line"/>
			<point x="125" y="39"/>
			<point x="162" y="0"/>
			<point x="231" y="0" type="curve" smooth="yes"/>
		</contour>
		<contour>
			<point x="334" y="426" type="line"/>
			<point x="334" y="492" type="line"/>
			<point x="31" y="492" type="line"/>
			<point x="31" y="426" type="line"/>
		</contour>
	</outline>
	<anchor name="bottom.LC" x="245" y="-50"/>
	<anchor name="top_right.LC.short" x="306" y="540"/>
</glyph>
<glyph name="u" format="2">
	<unicode hex="0075"/>
	<advance width="587"/>
	<outline>
		<contour>
			<point x="502" y="0" type="line"/>
			<point x="502" y="492" type="line"/>
			<point x="425" y="492" type="line"/>
			<point x="425" y="124" type="line"/>
			<point x="426" y="96" type="line"/>
			<point x="426" y="0" type="line"/>
		</contour>
		<contour>
			<point x="434" y="213" type="line"/>
			<point x="426" y="116"/>
			<point x="356" y="51"/>
			<point x="275" y="51" type="curve" smooth="yes"/>
			<point x="198" y="51"/>
			<point x="153" y="102"/>
			<point x="153" y="198" type="curve" smooth="yes"/>
			<point x="153" y="492" type="line"/>
			<point x="76" y="492" type="line"/>
			<point x="76" y="190" type="line" smooth="yes"/>
			<point x="76" y="56"/>
			<point x="148" y="-16"/>
			<point x="259" y="-16" type="curve" smooth="yes"/>
			<point x="374" y="-16"/>
			<point x="457" y="71"/>
			<point x="450" y="192" type="curve"/>
		</contour>
	</outline>
	<anchor name="bottom.LC" x="280" y="-50"/>
	<anchor name="ogonek.LC" x="405" y="-30"/>
	<anchor name="top.LC" x="280" y="544"/>
</glyph>
<glyph name="x" format="2">
	<unicode hex="0078"/>
	<advance width="483"/>
	<outline>
		<contour>
			<point x="100" y="0" type="line"/>
			<point x="241" y="208" type="line"/>
			<point x="382" y="0" type="line"/>
			<point x="474" y="0" type="line"/>
			<point x="291" y="255" type="line"/>
			<point x="456" y="492" type="line"/>
			<point x="368" y="492" type="line"/>
			<point x="241" y="300" type="line"/>
			<point x="116" y="492" type="line"/>
			<point x="26" y="492" type="line"/>
			<point x="192" y="255" type="line"/>
			<point x="9" y="0" type="line"/>
		</contour>
	</outline>
</glyph>
<glyph name="y" format="2">
	<unicode hex="0079"/>
	<advance width="539"/>
	<outline>
		<contour>
			<point x="428" y="492" type="line"/>
			<point x="256" y="42" type="line"/>
			<point x="285" y="42" type="line"/>
			<point x="114" y="492" type="line"/>
			<point x="32" y="492" type="line"/>
			<point x="232" y="-2" type="line"/>
			<point x="209" y="-65" type="line" smooth="yes"/>
			<point x="194" y="-106"/>
			<point x="171" y="-128"/>
			<point x="126" y="-128" type="curve" smooth="yes"/>
			<point x="68" y="-128" type="line"/>
			<point x="68" y="-194" type="line"/>
			<point x="126" y="-194" type="line" smooth="yes"/>
			<point x="213" y="-194"/>
			<point x="245" y="-154"/>
			<point x="272" y="-87" type="curve" smooth="yes"/>
			<point x="506" y="492" type="line"/>
		</contour>
	</outline>
	<anchor name="bottom.LC" x="406" y="-50"/>
	<anchor name="top.LC" x="271" y="544"/>
</glyph>
<glyph name="z" format="2">
	<unicode hex="007A"/>
	<advance width="474"/>
	<outline>
		<contour>
			<point x="432" y="0" type="line"/>
			<point x="432" y="64" type="line"/>
			<point x="134" y="64" type="line"/>
			<point x="423" y="427" type="line"/>
			<point x="423" y="492" type="line"/>
			<point x="52" y="492" type="line"/>
			<point x="52" y="427" type="line"/>
			<point x="331" y="427" type="line"/>
			<point x="43" y="64" type="line"/>
			<point x="43" y="0" type="line"/>
		</contour>
	</outline>
	<anchor name="top.LC" x="237" y="544"/>
</glyph>
<glyph name="bar" format="2">
	<unicode hex="007C"/>
	<advance width="247"/>
	<outline>
		<contour>
			<point x="162" y="-129" type="line"/>
			<point x="162" y="736" type="line"/>
			<point x="85" y="736" type="line"/>
			<point x="85" y="-129" type="line"/>
		</contour>
	</outline>
</glyph>
<glyph name="asciitilde" format="2">
	<unicode hex="007E"/>
	<advance width="632"/>
	<outline>
		<contour>
			<point x="148" y="274" type="line"/>
			<point x="165" y="348"/>
			<point x="183" y="377"/>
			<point x="212" y="377" type="curve" smooth="yes"/>
			<point x="232" y="377"/>
			<point x="249" y="367"/>
			<point x="293" y="329" type="curve" smooth="yes"/>
			<point x="354" y="277"/>
			<point x="381" y="262"/>
			<point x="419" y="262" type="curve" smooth="yes"/>
			<point x="487" y="262"/>
			<point x="527" y="308"/>
			<point x="548" y="410" type="curve"/>
			<point x="484" y="433" type="line"/>
			<point x="467" y="359"/>
			<point x="449" y="330"/>
			<point x="420" y="330" type="curve" smooth="yes"/>
			<point x="399" y="330"/>
			<point x="381" y="341"/>
			<point x="339" y="378" type="curve" smooth="yes"/>
			<point x="282" y="429"/>
			<point x="252" y="445"/>
			<point x="213" y="445" type="curve" smooth="yes"/>
			<point x="145" y="445"/>
			<point x="105" y="399"/>
			<point x="84" y="297" type="curve"/>
		</contour>
	</outline>
	<guideline y="264"/>
	<guideline y="443"/>
</glyph>
<glyph name="exclamdown" format="2">
	<unicode hex="00A1"/>
	<advance width="242"/>
	<outline>
		<contour>
			<point x="95" y="276" type="line"/>
			<point x="91" y="207"/>
			<point x="75" y="-176"/>
			<point x="75" y="-196" type="curve" smooth="yes"/>
			<point x="75" y="-231"/>
			<point x="94" y="-251"/>
			<point x="121" y="-251" type="curve"/>
			<point x="146" y="-251"/>
			<point x="167" y="-231"/>
			<point x="167" y="-196" type="curve" smooth="yes"/>
			<point x="167" y="-176"/>
			<point x="151" y="207"/>
			<point x="147" y="276" type="curve"/>
		</contour>
		<contour>
			<point x="121" y="492" type="curve" smooth="yes"/>
			<point x="88" y="492"/>
			<point x="63" y="466"/>
			<point x="63" y="433" type="curve" smooth="yes"/>
			<point x="63" y="400"/>
			<point x="88" y="374"/>
			<point x="121" y="374" type="curve" smooth="yes"/>
			<point x="154" y="374"/>
			<point x="179" y="400"/>
			<point x="179" y="433" type="curve" smooth="yes"/>
			<point x="179" y="466"/>
			<point x="154" y="492"/>
		</contour>
	</outline>
</glyph>
<glyph name="cent" format="2">
	<unicode hex="00A2"/>
	<advance width="632"/>
	<outline>
		<contour>
			<point x="370" y="-116" type="line"/>
			<point x="370" y="608" type="line"/>
			<point x="310" y="608" type="line"/>
			<point x="310" y="-116" type="line"/>
		</contour>
		<contour>
			<point x="485" y="131" type="line"/>
			<point x="453" y="79"/>
			<point x="406" y="51"/>
			<point x="348" y="51" type="curve" smooth="yes"/>
			<point x="246" y="51"/>
			<point x="178" y="129"/>
			<point x="178" y="246" type="curve" smooth="yes"/>
			<point x="178" y="364"/>
			<point x="245" y="441"/>
			<point x="348" y="441" type="curve" smooth="yes"/>
			<point x="405" y="441"/>
			<point x="457" y="411"/>
			<point x="485" y="361" type="curve"/>
			<point x="540" y="412" type="line"/>
			<point x="495" y="474"/>
			<point x="427" y="508"/>
			<point x="347" y="508" type="curve" smooth="yes"/>
			<point x="200" y="508"/>
			<point x="97" y="400"/>
			<point x="97" y="246" type="curve" smooth="yes"/>
			<point x="97" y="92"/>
			<point x="199" y="-16"/>
			<point x="346" y="-16" type="curve" smooth="yes"/>
			<point x="425" y="-16"/>
			<point x="493" y="18"/>
			<point x="539" y="80" type="curve"/>
		</contour>
	</outline>
</glyph>
<glyph name="sterling" format="2">
	<unicode hex="00A3"/>
	<advance width="632"/>
	<outline>
		<contour>
			<point x="581" y="0" type="line"/>
			<point x="581" y="66" type="line"/>
			<point x="67" y="66" type="line"/>
			<point x="67" y="0" type="line"/>
		</contour>
		<contour>
			<point x="477" y="319" type="line"/>
			<point x="477" y="385" type="line"/>
			<point x="76" y="385" type="line"/>
			<point x="76" y="319" type="line"/>
		</contour>
		<contour>
			<point x="581" y="611" type="line"/>
			<point x="533" y="690"/>
			<point x="466" y="731"/>
			<point x="384" y="731" type="curve" smooth="yes"/>
			<point x="257" y="731"/>
			<point x="176" y="637"/>
			<point x="176" y="491" type="curve" smooth="yes"/>
			<point x="176" y="33" type="line"/>
			<point x="253" y="33" type="line"/>
			<point x="253" y="493" type="line" smooth="yes"/>
			<point x="253" y="599"/>
			<point x="303" y="664"/>
			<point x="384" y="664" type="curve" smooth="yes"/>
			<point x="442" y="664"/>
			<point x="482" y="636"/>
			<point x="526" y="562" type="curve"/>
		</contour>
	</outline>
</glyph>
<glyph name="section" format="2">
	<unicode hex="00A7"/>
	<advance width="543"/>
	<outline>
		<contour>
			<point x="483" y="302" type="curve" smooth="yes"/>
			<point x="483" y="383"/>
			<point x="431" y="428"/>
			<point x="293" y="466" type="curve" smooth="yes"/>
			<point x="214" y="488"/>
			<point x="179" y="521"/>
			<point x="179" y="572" type="curve" smooth="yes"/>
			<point x="179" y="630"/>
			<point x="221" y="669"/>
			<point x="283" y="669" type="curve" smooth="yes"/>
			<point x="342" y="669"/>
			<point x="389" y="645"/>
			<point x="428" y="594" type="curve"/>
			<point x="471" y="643" type="line"/>
			<point x="423" y="700"/>
			<point x="357" y="731"/>
			<point x="282" y="731" type="curve" smooth="yes"/>
			<point x="182" y="731"/>
			<point x="108" y="662"/>
			<point x="108" y="569" type="curve" smooth="yes"/>
			<point x="108" y="519"/>
			<point x="131" y="479"/>
			<point x="178" y="449" type="curve"/>
			<point x="118" y="419"/>
			<point x="83" y="368"/>
			<point x="83" y="309" type="curve" smooth="yes"/>
			<point x="83" y="229"/>
			<point x="136" y="183"/>
			<point x="274" y="145" type="curve" smooth="yes"/>
			<point x="355" y="122"/>
			<point x="388" y="89"/>
			<point x="388" y="29" type="curve" smooth="yes"/>
			<point x="388" y="-23"/>
			<point x="337" y="-65"/>
			<point x="275" y="-65" type="curve" smooth="yes"/>
			<point x="214" y="-65"/>
			<point x="154" y="-37"/>
			<point x="114" y="11" type="curve"/>
			<point x="73" y="-38" type="line"/>
			<point x="122" y="-95"/>
			<point x="197" y="-129"/>
			<point x="276" y="-129" type="curve" smooth="yes"/>
			<point x="379" y="-129"/>
			<point x="459" y="-58"/>
			<point x="459" y="32" type="curve" smooth="yes"/>
			<point x="459" y="91"/>
			<point x="437" y="131"/>
			<point x="388" y="162" type="curve"/>
			<point x="448" y="191"/>
			<point x="483" y="242"/>
		</contour>
		<contour>
			<point x="413" y="299" type="curve" smooth="yes"/>
			<point x="413" y="254"/>
			<point x="382" y="215"/>
			<point x="330" y="195" type="curve"/>
			<point x="280" y="210" type="line" smooth="yes"/>
			<point x="189" y="237"/>
			<point x="154" y="266"/>
			<point x="154" y="314" type="curve" smooth="yes"/>
			<point x="154" y="358"/>
			<point x="185" y="396"/>
			<point x="237" y="416" type="curve"/>
			<point x="287" y="401" type="line" smooth="yes"/>
			<point x="376" y="375"/>
			<point x="413" y="345"/>
		</contour>
	</outline>
</glyph>
<glyph name="logicalnot" format="2">
	<unicode hex="00AC"/>
	<advance width="632"/>
	<outline>
		<contour>
			<point x="502" y="175" type="line"/>
			<point x="502" y="389" type="line"/>
			<point x="130" y="389" type="line"/>
			<point x="130" y="325" type="line"/>
			<point x="438" y="325" type="line"/>
			<point x="438" y="175" type="line"/>
		</contour>
	</outline>
</glyph>
<glyph name="degree" format="2">
	<unicode hex="00B0"/>
	<advance width="444"/>
	<outline>
		<contour>
			<point x="222" y="391" type="curve" smooth="yes"/>
			<point x="315" y="391"/>
			<point x="391" y="468"/>
			<point x="391" y="561" type="curve" smooth="yes"/>
			<point x="391" y="655"/>
			<point x="315" y="731"/>
			<point x="222" y="731" type="curve" smooth="yes"/>
			<point x="129" y="731"/>
			<point x="53" y="655"/>
			<point x="53" y="561" type="curve" smooth="yes"/>
			<point x="53" y="468"/>
			<point x="129" y="391"/>
		</contour>
		<contour>
			<point x="222" y="452" type="curve" smooth="yes"/>
			<point x="164" y="452"/>
			<point x="118" y="500"/>
			<point x="118" y="561" type="curve" smooth="yes"/>
			<point x="118" y="622"/>
			<point x="164" y="670"/>
			<point x="222" y="670" type="curve" smooth="yes"/>
			<point x="280" y="670"/>
			<point x="326" y="622"/>
			<point x="326" y="561" type="curve" smooth="yes"/>
			<point x="326" y="500"/>
			<point x="280" y="452"/>
		</contour>
	</outline>
</glyph>
<glyph name="micro" format="2">
	<unicode hex="00B5"/>
	<advance width="632"/>
	<outline>
		<contour>
			<point x="453" y="0" type="line"/>
			<point x="529" y="0" type="line"/>
			<point x="529" y="492" type="line"/>
			<point x="452" y="492" type="line"/>
			<point x="452" y="124" type="line"/>
			<point x="453" y="96" type="line"/>
		</contour>
		<contour>
			<point x="103" y="-194" type="line"/>
			<point x="180" y="-194" type="line"/>
			<point x="180" y="95" type="line"/>
			<point x="136" y="76" type="line"/>
			<point x="165" y="16"/>
			<point x="219" y="-16"/>
			<point x="290" y="-16" type="curve" smooth="yes"/>
			<point x="403" y="-16"/>
			<point x="484" y="71"/>
			<point x="477" y="192" type="curve"/>
			<point x="461" y="213" type="line"/>
			<point x="453" y="116"/>
			<point x="383" y="51"/>
			<point x="302" y="51" type="curve" smooth="yes"/>
			<point x="225" y="51"/>
			<point x="180" y="102"/>
			<point x="180" y="198" type="curve" smooth="yes"/>
			<point x="180" y="492" type="line"/>
			<point x="103" y="492" type="line"/>
		</contour>
	</outline>
</glyph>
<glyph name="paragraph" format="2">
	<unicode hex="00B6"/>
	<advance width="574"/>
	<outline>
		<contour>
			<point x="315" y="-130" type="line"/>
			<point x="315" y="649" type="line"/>
			<point x="421" y="649" type="line"/>
			<point x="421" y="-130" type="line"/>
			<point x="493" y="-130" type="line"/>
			<point x="493" y="715" type="line"/>
			<point x="274" y="715" type="line" smooth="yes"/>
			<point x="134" y="715"/>
			<point x="40" y="632"/>
			<point x="40" y="507" type="curve" smooth="yes"/>
			<point x="40" y="390"/>
			<point x="122" y="307"/>
			<point x="243" y="300" type="curve"/>
			<point x="243" y="-130" type="line"/>
		</contour>
	</outline>
</glyph>
<glyph name="ordmasculine" format="2">
	<unicode hex="00BA"/>
	<advance width="464"/>
	<outline>
		<contour>
			<point x="232" y="305" type="curve" smooth="yes"/>
			<point x="346" y="305"/>
			<point x="427" y="390"/>
			<point x="427" y="510" type="curve" smooth="yes"/>
			<point x="427" y="630"/>
			<point x="346" y="715"/>
			<point x="232" y="715" type="curve" smooth="yes"/>
			<point x="118" y="715"/>
			<point x="37" y="630"/>
			<point x="37" y="510" type="curve" smooth="yes"/>
			<point x="37" y="390"/>
			<point x="118" y="305"/>
		</contour>
		<contour>
			<point x="232" y="362" type="curve" smooth="yes"/>
			<point x="160" y="362"/>
			<point x="109" y="423"/>
			<point x="109" y="510" type="curve" smooth="yes"/>
			<point x="109" y="597"/>
			<point x="160" y="658"/>
			<point x="232" y="658" type="curve" smooth="yes"/>
			<point x="305" y="658"/>
			<point x="355" y="597"/>
			<point x="355" y="510" type="curve" smooth="yes"/>
			<point x="355" y="423"/>
			<point x="305" y="362"/>
		</contour>
	</outline>
</glyph>
<glyph name="questiondown" format="2">
	<unicode hex="00BF"/>
	<advance width="571"/>
	<outline>
		<contour>
			<point x="284" y="276" type="line"/>
			<point x="283" y="207"/>
			<point x="266" y="171"/>
			<point x="196" y="119" type="curve" smooth="yes"/>
			<point x="108" y="53"/>
			<point x="76" y="8"/>
			<point x="76" y="-75" type="curve" smooth="yes"/>
			<point x="76" y="-181"/>
			<point x="159" y="-251"/>
			<point x="285" y="-251" type="curve" smooth="yes"/>
			<point x="376" y="-251"/>
			<point x="458" y="-205"/>
			<point x="518" y="-121" type="curve"/>
			<point x="464" y="-72" type="line"/>
			<point x="416" y="-147"/>
			<point x="357" y="-185"/>
			<point x="286" y="-185" type="curve" smooth="yes"/>
			<point x="204" y="-185"/>
			<point x="152" y="-141"/>
			<point x="152" y="-72" type="curve" smooth="yes"/>
			<point x="152" y="-11"/>
			<point x="172" y="25"/>
			<point x="231" y="67" type="curve" smooth="yes"/>
			<point x="325" y="134"/>
			<point x="347" y="179"/>
			<point x="337" y="276" type="curve"/>
		</contour>
		<contour>
			<point x="313" y="492" type="curve" smooth="yes"/>
			<point x="280" y="492"/>
			<point x="255" y="466"/>
			<point x="255" y="433" type="curve" smooth="yes"/>
			<point x="255" y="400"/>
			<point x="280" y="374"/>
			<point x="313" y="374" type="curve" smooth="yes"/>
			<point x="346" y="374"/>
			<point x="371" y="400"/>
			<point x="371" y="433" type="curve" smooth="yes"/>
			<point x="371" y="466"/>
			<point x="346" y="492"/>
		</contour>
	</outline>
</glyph>
<glyph name="AE" format="2">
	<unicode hex="00C6"/>
	<advance width="1008"/>
	<outline>
		<contour>
			<point x="28" y="0" type="line"/>
			<point x="114" y="0" type="line"/>
			<point x="553" y="715" type="line"/>
			<point x="472" y="715" type="line"/>
		</contour>
		<contour>
			<point x="536" y="200" type="line"/>
			<point x="536" y="268" type="line"/>
			<point x="209" y="268" type="line"/>
			<point x="209" y="200" type="line"/>
		</contour>
		<contour>
			<point x="957" y="0" type="line"/>
			<point x="957" y="70" type="line"/>
			<point x="589" y="70" type="line"/>
			<point x="589" y="645" type="line"/>
			<point x="956" y="645" type="line"/>
			<point x="956" y="715" type="line"/>
			<point x="509" y="715" type="line"/>
			<point x="509" y="0" type="line"/>
		</contour>
		<contour>
			<point x="939" y="331" type="line"/>
			<point x="939" y="401" type="line"/>
			<point x="579" y="401" type="line"/>
			<point x="579" y="331" type="line"/>
		</contour>
	</outline>
</glyph>
<glyph name="multiply" format="2">
	<unicode hex="00D7"/>
	<advance width="632"/>
	<outline>
		<contour>
			<point x="484" y="226" type="line"/>
			<point x="195" y="530" type="line"/>
			<point x="151" y="486" type="line"/>
			<point x="440" y="182" type="line"/>
		</contour>
		<contour>
			<point x="195" y="182" type="line"/>
			<point x="484" y="486" type="line"/>
			<point x="440" y="530" type="line"/>
			<point x="151" y="226" type="line"/>
		</contour>
	</outline>
	<guideline y="182"/>
	<guideline y="226"/>
	<guideline y="486"/>
	<guideline y="530"/>
</glyph>
<glyph name="Thorn" format="2">
	<unicode hex="00DE"/>
	<advance width="644"/>
	<outline>
		<contour>
			<point x="177" y="488" type="line"/>
			<point x="368" y="488" type="line" smooth="yes"/>
			<point x="456" y="488"/>
			<point x="509" y="439"/>
			<point x="509" y="357" type="curve" smooth="yes"/>
			<point x="509" y="275"/>
			<point x="456" y="226"/>
			<point x="368" y="226" type="curve" smooth="yes"/>
			<point x="176" y="226" type="line"/>
			<point x="176" y="156" type="line"/>
			<point x="368" y="156" type="line" smooth="yes"/>
			<point x="501" y="156"/>
			<point x="591" y="237"/>
			<point x="591" y="357" type="curve" smooth="yes"/>
			<point x="591" y="478"/>
			<point x="501" y="558"/>
			<point x="368" y="558" type="curve" smooth="yes"/>
			<point x="177" y="558" type="line"/>
		</contour>
		<contour>
			<point x="186" y="0" type="line"/>
			<point x="186" y="715" type="line"/>
			<point x="106" y="715" type="line"/>
			<point x="106" y="0" type="line"/>
		</contour>
	</outline>
</glyph>
<glyph name="germandbls" format="2">
	<unicode hex="00DF"/>
	<advance width="612"/>
	<outline>
		<contour>
			<point x="153" y="0" type="line"/>
			<point x="153" y="453" type="line" smooth="yes"/>
			<point x="153" y="596"/>
			<point x="217" y="666"/>
			<point x="308" y="666" type="curve" smooth="yes"/>
			<point x="386" y="666"/>
			<point x="429" y="614"/>
			<point x="429" y="542" type="curve" smooth="yes"/>
			<point x="429" y="461"/>
			<point x="375" y="407"/>
			<point x="295" y="407" type="curve" smooth="yes"/>
			<point x="274" y="407" type="line"/>
			<point x="274" y="342" type="line"/>
			<point x="317" y="342" type="line" smooth="yes"/>
			<point x="399" y="342"/>
			<point x="484" y="284"/>
			<point x="484" y="183" type="curve" smooth="yes"/>
			<point x="484" y="99"/>
			<point x="432" y="47"/>
			<point x="363" y="47" type="curve" smooth="yes"/>
			<point x="324" y="47"/>
			<point x="282" y="65"/>
			<point x="256" y="98" type="curve"/>
			<point x="213" y="44" type="line"/>
			<point x="251" y="5"/>
			<point x="310" y="-16"/>
			<point x="364" y="-16" type="curve" smooth="yes"/>
			<point x="479" y="-16"/>
			<point x="565" y="65"/>
			<point x="565" y="187" type="curve" smooth="yes"/>
			<point x="565" y="317"/>
			<point x="456" y="396"/>
			<point x="326" y="396" type="curve" smooth="yes"/>
			<point x="292" y="396" type="line"/>
			<point x="292" y="361" type="line"/>
			<point x="295" y="361" type="line" smooth="yes"/>
			<point x="429" y="361"/>
			<point x="510" y="439"/>
			<point x="510" y="542" type="curve" smooth="yes"/>
			<point x="510" y="647"/>
			<point x="429" y="731"/>
			<point x="307" y="731" type="curve" smooth="yes"/>
			<point x="177" y="731"/>
			<point x="76" y="635"/>
			<point x="76" y="466" type="curve" smooth="yes"/>
			<point x="76" y="0" type="line"/>
		</contour>
	</outline>
	<guideline x="320"/>
	<guideline x="380"/>
	<guideline y="-16"/>
</glyph>
<glyph name="ae" format="2">
	<unicode hex="00E6"/>
	<advance width="911"/>
	<outline>
		<contour>
			<point x="794" y="141" type="line"/>
			<point x="754" y="79"/>
			<point x="705" y="51"/>
			<point x="644" y="51" type="curve" smooth="yes"/>
			<point x="538" y="51"/>
			<point x="469" y="133"/>
			<point x="469" y="247" type="curve" smooth="yes"/>
			<point x="469" y="361"/>
			<point x="536" y="441"/>
			<point x="629" y="441" type="curve" smooth="yes"/>
			<point x="720" y="441"/>
			<point x="779" y="365"/>
			<point x="779" y="250" type="curve" smooth="yes"/>
			<point x="779" y="243" type="line"/>
			<point x="857" y="243" type="line"/>
			<point x="857" y="249" type="line" smooth="yes"/>
			<point x="857" y="401"/>
			<point x="763" y="508"/>
			<point x="629" y="508" type="curve" smooth="yes"/>
			<point x="493" y="508"/>
			<point x="394" y="397"/>
			<point x="394" y="246" type="curve" smooth="yes"/>
			<point x="394" y="96"/>
			<point x="492" y="-16"/>
			<point x="639" y="-16" type="curve" smooth="yes"/>
			<point x="723" y="-16"/>
			<point x="794" y="19"/>
			<point x="846" y="91" type="curve"/>
		</contour>
		<contour>
			<point x="857" y="225" type="line"/>
			<point x="857" y="249" type="line"/>
			<point x="842" y="288" type="line"/>
			<point x="449" y="288" type="line"/>
			<point x="449" y="225" type="line"/>
		</contour>
		<contour>
			<point x="458" y="247" type="line"/>
			<point x="458" y="290" type="line" smooth="yes"/>
			<point x="458" y="429"/>
			<point x="379" y="508"/>
			<point x="258" y="508" type="curve" smooth="yes"/>
			<point x="179" y="508"/>
			<point x="116" y="480"/>
			<point x="59" y="420" type="curve"/>
			<point x="109" y="371" type="line"/>
			<point x="150" y="420"/>
			<point x="196" y="442"/>
			<point x="253" y="442" type="curve" smooth="yes"/>
			<point x="340" y="442"/>
			<point x="393" y="389"/>
			<point x="393" y="287" type="curve" smooth="yes"/>
			<point x="393" y="246" type="line"/>
		</contour>
		<contour>
			<point x="402" y="226" type="line"/>
			<point x="402" y="288" type="line"/>
			<point x="255" y="288" type="line" smooth="yes"/>
			<point x="125" y="288"/>
			<point x="43" y="229"/>
			<point x="43" y="137" type="curve" smooth="yes"/>
			<point x="43" y="49"/>
			<point x="120" y="-16"/>
			<point x="224" y="-16" type="curve" smooth="yes"/>
			<point x="358" y="-16"/>
			<point x="457" y="65"/>
			<point x="467" y="172" type="curve"/>
			<point x="419" y="189" type="line"/>
			<point x="406" y="108"/>
			<point x="324" y="48"/>
			<point x="234" y="48" type="curve" smooth="yes"/>
			<point x="162" y="48"/>
			<point x="123" y="85"/>
			<point x="123" y="136" type="curve" smooth="yes"/>
			<point x="123" y="194"/>
			<point x="175" y="226"/>
			<point x="264" y="226" type="curve" smooth="yes"/>
		</contour>
	</outline>
	<guideline y="225"/>
	<guideline y="288"/>
</glyph>
<glyph name="dotlessi" format="2">
	<unicode hex="0131"/>
	<advance width="247"/>
	<outline>
		<contour>
			<point x="162" y="0" type="line"/>
			<point x="162" y="492" type="line"/>
			<point x="85" y="492" type="line"/>
			<point x="85" y="0" type="line"/>
		</contour>
	</outline>
	<anchor name="top.LC" x="123" y="544"/>
	<guideline x="123"/>
	<guideline y="492"/>
</glyph>
<glyph name="IJ" format="2">
	<unicode hex="0132"/>
	<advance width="686"/>
	<outline>
		<contour>
			<point x="172" y="313" type="line"/>
			<point x="172" y="715" type="line"/>
			<point x="92" y="715" type="line"/>
			<point x="92" y="313" type="line"/>
		</contour>
		<contour>
			<point x="594" y="715" type="line"/>
			<point x="514" y="715" type="line"/>
			<point x="514" y="272" type="line" smooth="yes"/>
			<point x="514" y="132"/>
			<point x="460" y="56"/>
			<point x="342" y="56" type="curve" smooth="yes"/>
			<point x="237" y="56"/>
			<point x="181" y="115"/>
			<point x="169" y="230" type="curve"/>
			<point x="92" y="220" type="line"/>
			<point x="107" y="68"/>
			<point x="197" y="-16"/>
			<point x="342" y="-16" type="curve" smooth="yes"/>
			<point x="503" y="-16"/>
			<point x="594" y="89"/>
			<point x="594" y="272" type="curve" smooth="yes"/>
		</contour>
	</outline>
	<anchor name="top.UC_1" x="135" y="750"/>
	<anchor name="top.UC_2" x="588" y="750"/>
</glyph>
<glyph name="Lslash" format="2">
	<unicode hex="0141"/>
	<advance width="565"/>
	<outline>
		<contour>
			<point x="385" y="439" type="line"/>
			<point x="348" y="495" type="line"/>
			<point x="8" y="256" type="line"/>
			<point x="45" y="200" type="line"/>
		</contour>
		<contour>
			<point x="527" y="0" type="line"/>
			<point x="527" y="71" type="line"/>
			<point x="178" y="71" type="line"/>
			<point x="178" y="715" type="line"/>
			<point x="98" y="715" type="line"/>
			<point x="98" y="0" type="line"/>
		</contour>
	</outline>
</glyph>
<glyph name="OE" format="2">
	<unicode hex="0152"/>
	<advance width="1179"/>
	<outline>
		<contour>
			<point x="413" y="-16" type="curve" smooth="yes"/>
			<point x="603" y="-16"/>
			<point x="743" y="144"/>
			<point x="743" y="358" type="curve" smooth="yes"/>
			<point x="743" y="571"/>
			<point x="603" y="731"/>
			<point x="413" y="731" type="curve" smooth="yes"/>
			<point x="214" y="731"/>
			<point x="65" y="571"/>
			<point x="65" y="358" type="curve" smooth="yes"/>
			<point x="65" y="144"/>
			<point x="214" y="-16"/>
		</contour>
		<contour>
			<point x="414" y="56" type="curve" smooth="yes"/>
			<point x="258" y="56"/>
			<point x="148" y="183"/>
			<point x="148" y="358" type="curve" smooth="yes"/>
			<point x="148" y="532"/>
			<point x="258" y="659"/>
			<point x="414" y="659" type="curve" smooth="yes"/>
			<point x="571" y="659"/>
			<point x="681" y="532"/>
			<point x="681" y="358" type="curve" smooth="yes"/>
			<point x="681" y="183"/>
			<point x="571" y="56"/>
		</contour>
		<contour>
			<point x="1128" y="0" type="line"/>
			<point x="1128" y="68" type="line"/>
			<point x="761" y="68" type="line"/>
			<point x="761" y="647" type="line"/>
			<point x="1128" y="647" type="line"/>
			<point x="1128" y="715" type="line"/>
			<point x="681" y="715" type="line"/>
			<point x="681" y="0" type="line"/>
		</contour>
		<contour>
			<point x="1111" y="332" type="line"/>
			<point x="1111" y="400" type="line"/>
			<point x="751" y="400" type="line"/>
			<point x="751" y="332" type="line"/>
		</contour>
	</outline>
</glyph>
<glyph name="oe" format="2">
	<unicode hex="0153"/>
	<advance width="980"/>
	<outline>
		<contour>
			<point x="54" y="246" type="curve" smooth="yes"/>
			<point x="54" y="94"/>
			<point x="157" y="-16"/>
			<point x="298" y="-16" type="curve" smooth="yes"/>
			<point x="438" y="-16"/>
			<point x="537" y="94"/>
			<point x="537" y="246" type="curve" smooth="yes"/>
			<point x="537" y="398"/>
			<point x="438" y="508"/>
			<point x="298" y="508" type="curve" smooth="yes"/>
			<point x="157" y="508"/>
			<point x="54" y="398"/>
		</contour>
		<contour>
			<point x="135" y="246" type="curve" smooth="yes"/>
			<point x="135" y="361"/>
			<point x="202" y="441"/>
			<point x="300" y="441" type="curve" smooth="yes"/>
			<point x="399" y="441"/>
			<point x="466" y="361"/>
			<point x="466" y="246" type="curve" smooth="yes"/>
			<point x="466" y="132"/>
			<point x="399" y="51"/>
			<point x="300" y="51" type="curve" smooth="yes"/>
			<point x="202" y="51"/>
			<point x="135" y="132"/>
		</contour>
		<contour>
			<point x="863" y="141" type="line"/>
			<point x="823" y="79"/>
			<point x="774" y="51"/>
			<point x="713" y="51" type="curve" smooth="yes"/>
			<point x="607" y="51"/>
			<point x="538" y="133"/>
			<point x="538" y="247" type="curve" smooth="yes"/>
			<point x="538" y="361"/>
			<point x="605" y="441"/>
			<point x="698" y="441" type="curve" smooth="yes"/>
			<point x="789" y="441"/>
			<point x="848" y="365"/>
			<point x="848" y="250" type="curve" smooth="yes"/>
			<point x="848" y="243" type="line"/>
			<point x="926" y="243" type="line"/>
			<point x="926" y="249" type="line" smooth="yes"/>
			<point x="926" y="401"/>
			<point x="832" y="508"/>
			<point x="698" y="508" type="curve" smooth="yes"/>
			<point x="565" y="508"/>
			<point x="468" y="396"/>
			<point x="468" y="246" type="curve" smooth="yes"/>
			<point x="468" y="95"/>
			<point x="566" y="-16"/>
			<point x="708" y="-16" type="curve" smooth="yes"/>
			<point x="792" y="-16"/>
			<point x="863" y="19"/>
			<point x="915" y="91" type="curve"/>
		</contour>
		<contour>
			<point x="926" y="219" type="line"/>
			<point x="926" y="249" type="line"/>
			<point x="911" y="282" type="line"/>
			<point x="519" y="282" type="line"/>
			<point x="519" y="219" type="line"/>
		</contour>
	</outline>
</glyph>
<glyph name="Tbar" format="2">
	<unicode hex="0166"/>
	<advance width="600"/>
	<outline>
		<contour>
			<point x="484" y="332" type="line"/>
			<point x="484" y="400" type="line"/>
			<point x="116" y="400" type="line"/>
			<point x="116" y="332" type="line"/>
		</contour>
		<contour>
			<point x="340" y="0" type="line"/>
			<point x="340" y="654" type="line"/>
			<point x="260" y="654" type="line"/>
			<point x="260" y="0" type="line"/>
		</contour>
		<contour>
			<point x="562" y="644" type="line"/>
			<point x="562" y="715" type="line"/>
			<point x="38" y="715" type="line"/>
			<point x="38" y="644" type="line"/>
		</contour>
	</outline>
</glyph>
<glyph name="Ohorn" format="2">
	<unicode hex="01A0"/>
	<advance width="829"/>
	<outline>
		<contour>
			<point x="415" y="-16" type="curve" smooth="yes"/>
			<point x="615" y="-16"/>
			<point x="764" y="144"/>
			<point x="764" y="357" type="curve" smooth="yes"/>
			<point x="764" y="481"/>
			<point x="713" y="591"/>
			<point x="626" y="659" type="curve"/>
			<point x="615" y="654" type="line"/>
			<point x="620" y="653"/>
			<point x="630" y="652"/>
			<point x="644" y="652" type="curve" smooth="yes"/>
			<point x="748" y="652"/>
			<point x="811" y="710"/>
			<point x="811" y="820" type="curve" smooth="yes"/>
			<point x="811" y="865" type="line"/>
			<point x="734" y="865" type="line"/>
			<point x="734" y="811" type="line" smooth="yes"/>
			<point x="734" y="749"/>
			<point x="699" y="715"/>
			<point x="583" y="715" type="curve" smooth="yes"/>
			<point x="563" y="715"/>
			<point x="533" y="716"/>
			<point x="491" y="724" type="curve" smooth="yes"/>
			<point x="462" y="729"/>
			<point x="440" y="731"/>
			<point x="417" y="731" type="curve" smooth="yes"/>
			<point x="214" y="731"/>
			<point x="65" y="571"/>
			<point x="65" y="358" type="curve" smooth="yes"/>
			<point x="65" y="144"/>
			<point x="214" y="-16"/>
		</contour>
		<contour>
			<point x="415" y="56" type="curve" smooth="yes"/>
			<point x="259" y="56"/>
			<point x="148" y="182"/>
			<point x="148" y="358" type="curve" smooth="yes"/>
			<point x="148" y="534"/>
			<point x="259" y="659"/>
			<point x="415" y="659" type="curve" smooth="yes"/>
			<point x="570" y="659"/>
			<point x="681" y="534"/>
			<point x="681" y="358" type="curve" smooth="yes"/>
			<point x="681" y="182"/>
			<point x="570" y="56"/>
		</contour>
	</outline>
	<anchor name="bottom.UC" x="414" y="-50"/>
	<anchor name="top.UC" x="414" y="750"/>
</glyph>
<glyph name="ohorn" format="2">
	<unicode hex="01A1"/>
	<advance width="599"/>
	<outline>
		<contour>
			<point x="300" y="-16" type="curve" smooth="yes"/>
			<point x="444" y="-16"/>
			<point x="547" y="94"/>
			<point x="547" y="246" type="curve" smooth="yes"/>
			<point x="547" y="324"/>
			<point x="519" y="395"/>
			<point x="469" y="443" type="curve"/>
			<point x="463" y="433" type="line"/>
			<point x="545" y="445"/>
			<point x="581" y="488"/>
			<point x="581" y="575" type="curve" smooth="yes"/>
			<point x="581" y="612" type="line"/>
			<point x="508" y="612" type="line"/>
			<point x="508" y="568" type="line" smooth="yes"/>
			<point x="508" y="514"/>
			<point x="482" y="492"/>
			<point x="431" y="492" type="curve" smooth="yes"/>
			<point x="406" y="492"/>
			<point x="385" y="497"/>
			<point x="376" y="499" type="curve" smooth="yes"/>
			<point x="345" y="506"/>
			<point x="320" y="508"/>
			<point x="300" y="508" type="curve" smooth="yes"/>
			<point x="157" y="508"/>
			<point x="54" y="398"/>
			<point x="54" y="246" type="curve" smooth="yes"/>
			<point x="54" y="94"/>
			<point x="157" y="-16"/>
		</contour>
		<contour>
			<point x="300" y="51" type="curve" smooth="yes"/>
			<point x="202" y="51"/>
			<point x="135" y="132"/>
			<point x="135" y="246" type="curve" smooth="yes"/>
			<point x="135" y="361"/>
			<point x="202" y="441"/>
			<point x="300" y="441" type="curve" smooth="yes"/>
			<point x="398" y="441"/>
			<point x="466" y="361"/>
			<point x="466" y="246" type="curve" smooth="yes"/>
			<point x="466" y="132"/>
			<point x="399" y="51"/>
		</contour>
	</outline>
	<anchor name="bottom.LC" x="300" y="-50"/>
	<anchor name="top.LC" x="300" y="544"/>
</glyph>
<glyph name="Uhorn" format="2">
	<unicode hex="01AF"/>
	<advance width="731"/>
	<outline>
		<contour>
			<point x="363" y="-16" type="curve" smooth="yes"/>
			<point x="532" y="-16"/>
			<point x="634" y="94"/>
			<point x="634" y="282" type="curve" smooth="yes"/>
			<point x="634" y="664" type="line"/>
			<point x="620" y="652" type="line"/>
			<point x="732" y="652"/>
			<point x="793" y="710"/>
			<point x="793" y="820" type="curve" smooth="yes"/>
			<point x="793" y="865" type="line"/>
			<point x="716" y="865" type="line"/>
			<point x="716" y="811" type="line" smooth="yes"/>
			<point x="716" y="749"/>
			<point x="681" y="715"/>
			<point x="619" y="715" type="curve" smooth="yes"/>
			<point x="555" y="715" type="line"/>
			<point x="555" y="282" type="line" smooth="yes"/>
			<point x="555" y="136"/>
			<point x="484" y="57"/>
			<point x="363" y="57" type="curve" smooth="yes"/>
			<point x="242" y="57"/>
			<point x="172" y="136"/>
			<point x="172" y="282" type="curve" smooth="yes"/>
			<point x="172" y="715" type="line"/>
			<point x="92" y="715" type="line"/>
			<point x="92" y="282" type="line" smooth="yes"/>
			<point x="92" y="94"/>
			<point x="194" y="-16"/>
		</contour>
	</outline>
	<anchor name="bottom.UC" x="363" y="-50"/>
	<anchor name="top.UC" x="363" y="750"/>
</glyph>
<glyph name="uhorn" format="2">
	<unicode hex="01B0"/>
	<advance width="623"/>
	<outline>
		<contour>
			<point x="434" y="213" type="line"/>
			<point x="426" y="116"/>
			<point x="356" y="51"/>
			<point x="275" y="51" type="curve" smooth="yes"/>
			<point x="198" y="51"/>
			<point x="153" y="102"/>
			<point x="153" y="198" type="curve" smooth="yes"/>
			<point x="153" y="492" type="line"/>
			<point x="76" y="492" type="line"/>
			<point x="76" y="190" type="line" smooth="yes"/>
			<point x="76" y="56"/>
			<point x="148" y="-16"/>
			<point x="259" y="-16" type="curve" smooth="yes"/>
			<point x="374" y="-16"/>
			<point x="457" y="71"/>
			<point x="450" y="192" type="curve"/>
		</contour>
		<contour>
			<point x="426" y="0" type="line"/>
			<point x="502" y="0" type="line"/>
			<point x="502" y="442" type="line"/>
			<point x="486" y="429" type="line"/>
			<point x="597" y="432"/>
			<point x="643" y="478"/>
			<point x="643" y="575" type="curve" smooth="yes"/>
			<point x="643" y="612" type="line"/>
			<point x="570" y="612" type="line"/>
			<point x="570" y="568" type="line" smooth="yes"/>
			<point x="570" y="516"/>
			<point x="546" y="492"/>
			<point x="481" y="492" type="curve" smooth="yes"/>
			<point x="425" y="492" type="line"/>
			<point x="425" y="124" type="line"/>
			<point x="426" y="96" type="line"/>
		</contour>
	</outline>
	<anchor name="bottom.LC" x="280" y="-50"/>
	<anchor name="top.LC" x="280" y="544"/>
	<guideline y="612"/>
</glyph>
<glyph name="acutecomb" format="2">
	<unicode hex="0301"/>
	<outline>
		<contour>
			<point x="144" y="761" type="line"/>
			<point x="57" y="761" type="line"/>
			<point x="-50" y="587" type="line"/>
			<point x="17" y="587" type="line"/>
		</contour>
	</outline>
	<anchor name="_top.LC" x="0" y="544"/>
</glyph>
<glyph name="circumflexcomb" format="2">
	<unicode hex="0302"/>
	<outline>
		<contour>
			<point x="150" y="587" type="line"/>
			<point x="34" y="761" type="line"/>
			<point x="-35" y="761" type="line"/>
			<point x="-151" y="587" type="line"/>
			<point x="-84" y="587" type="line"/>
			<point x="30" y="745" type="line"/>
			<point x="-34" y="745" type="line"/>
			<point x="80" y="587" type="line"/>
		</contour>
	</outline>
	<anchor name="_top.LC" x="0" y="544"/>
	<anchor name="top.LC" x="161" y="667"/>
</glyph>
<glyph name="brevecomb" format="2">
	<unicode hex="0306"/>
	<outline>
		<contour>
			<point x="0" y="582" type="curve"/>
			<point x="75" y="582"/>
			<point x="136" y="641"/>
			<point x="144" y="732" type="curve"/>
			<point x="82" y="732" type="line"/>
			<point x="75" y="671"/>
			<point x="42" y="639"/>
			<point x="0" y="639" type="curve" smooth="yes"/>
			<point x="-41" y="639"/>
			<point x="-74" y="671"/>
			<point x="-82" y="732" type="curve"/>
			<point x="-143" y="732" type="line"/>
			<point x="-135" y="641"/>
			<point x="-75" y="582"/>
		</contour>
	</outline>
	<anchor name="_top.LC" x="0" y="544"/>
	<anchor name="top.LC" x="0" y="691"/>
</glyph>
<glyph name="hookabovecomb" format="2">
	<unicode hex="0309"/>
	<outline>
		<contour>
			<point x="-6" y="558" type="line"/>
			<point x="59" y="584"/>
			<point x="96" y="625"/>
			<point x="96" y="671" type="curve" smooth="yes"/>
			<point x="96" y="720"/>
			<point x="54" y="759"/>
			<point x="-4" y="759" type="curve" smooth="yes"/>
			<point x="-36" y="759"/>
			<point x="-66" y="747"/>
			<point x="-92" y="723" type="curve"/>
			<point x="-60" y="679" type="line"/>
			<point x="-41" y="695"/>
			<point x="-23" y="703"/>
			<point x="-6" y="703" type="curve" smooth="yes"/>
			<point x="17" y="703"/>
			<point x="31" y="689"/>
			<point x="31" y="668" type="curve" smooth="yes"/>
			<point x="31" y="643"/>
			<point x="11" y="621"/>
			<point x="-28" y="603" type="curve"/>
		</contour>
	</outline>
	<anchor name="_top.LC" x="0" y="544"/>
</glyph>
<glyph name="hungarumlautcomb" format="2">
	<unicode hex="030B"/>
	<outline>
		<contour>
			<point x="95" y="761" type="line"/>
			<point x="8" y="761" type="line"/>
			<point x="-134" y="587" type="line"/>
			<point x="-67" y="587" type="line"/>
		</contour>
		<contour>
			<point x="263" y="761" type="line"/>
			<point x="176" y="761" type="line"/>
			<point x="32" y="587" type="line"/>
			<point x="99" y="587" type="line"/>
		</contour>
	</outline>
	<anchor name="_top.LC" x="0" y="544"/>
</glyph>
<glyph name="commaturnedabovecomb" format="2">
	<unicode hex="0312"/>
	<outline>
		<contour>
			<point x="1" y="763" type="line"/>
			<point x="-25" y="728"/>
			<point x="-47" y="676"/>
			<point x="-47" y="637" type="curve" smooth="yes"/>
			<point x="-47" y="606"/>
			<point x="-27" y="583"/>
			<point x="2" y="583" type="curve" smooth="yes"/>
			<point x="27" y="583"/>
			<point x="48" y="604"/>
			<point x="48" y="629" type="curve" smooth="yes"/>
			<point x="48" y="655"/>
			<point x="25" y="675"/>
			<point x="-3" y="675" type="curve"/>
			<point x="13" y="656" type="line"/>
			<point x="11" y="683"/>
			<point x="27" y="727"/>
			<point x="51" y="763" type="curve"/>
		</contour>
	</outline>
	<anchor name="_top.LC" x="0" y="544"/>
</glyph>
<glyph name="horncomb" format="2">
	<unicode hex="031B"/>
	<outline>
		<contour>
			<point x="0" y="429" type="line"/>
			<point x="30" y="429" type="line" smooth="yes"/>
			<point x="149" y="429"/>
			<point x="198" y="475"/>
			<point x="198" y="575" type="curve" smooth="yes"/>
			<point x="198" y="612" type="line"/>
			<point x="125" y="612" type="line"/>
			<point x="125" y="568" type="line" smooth="yes"/>
			<point x="125" y="516"/>
			<point x="101" y="492"/>
			<point x="36" y="492" type="curve" smooth="yes"/>
			<point x="0" y="492" type="line"/>
		</contour>
	</outline>
	<anchor name="_topright.LC" x="0" y="544"/>
</glyph>
<glyph name="Dje" format="2">
	<unicode hex="0402"/>
	<advance width="680"/>
	<outline>
		<contour>
			<point x="10" y="644" type="line"/>
			<point x="484" y="644" type="line"/>
			<point x="484" y="715" type="line"/>
			<point x="10" y="715" type="line"/>
		</contour>
		<contour>
			<point x="326" y="0" type="line"/>
			<point x="383" y="0" type="line" smooth="yes"/>
			<point x="547" y="0"/>
			<point x="633" y="76"/>
			<point x="633" y="221" type="curve" smooth="yes"/>
			<point x="633" y="358"/>
			<point x="545" y="440"/>
			<point x="398" y="440" type="curve" smooth="yes"/>
			<point x="307" y="440"/>
			<point x="229" y="414"/>
			<point x="171" y="365" type="curve"/>
			<point x="201" y="308" type="line"/>
			<point x="249" y="345"/>
			<point x="323" y="368"/>
			<point x="393" y="368" type="curve" smooth="yes"/>
			<point x="493" y="368"/>
			<point x="552" y="312"/>
			<point x="552" y="217" type="curve" smooth="yes"/>
			<point x="552" y="119"/>
			<point x="493" y="71"/>
			<point x="370" y="71" type="curve" smooth="yes"/>
			<point x="326" y="71" type="line"/>
		</contour>
		<contour>
			<point x="140" y="0" type="line"/>
			<point x="220" y="0" type="line"/>
			<point x="220" y="676" type="line"/>
			<point x="140" y="676" type="line"/>
		</contour>
	</outline>
</glyph>
<glyph name="Ieukrain" format="2">
	<unicode hex="0404"/>
	<advance width="719"/>
	<outline>
		<contour>
			<point x="402" y="-16" type="curve" smooth="yes"/>
			<point x="511" y="-16"/>
			<point x="612" y="35"/>
			<point x="671" y="120" type="curve"/>
			<point x="615" y="175" type="line"/>
			<point x="565" y="98"/>
			<point x="493" y="56"/>
			<point x="404" y="56" type="curve" smooth="yes"/>
			<point x="256" y="56"/>
			<point x="145" y="185"/>
			<point x="145" y="357" type="curve" smooth="yes"/>
			<point x="145" y="530"/>
			<point x="256" y="659"/>
			<point x="404" y="659" type="curve" smooth="yes"/>
			<point x="496" y="659"/>
			<point x="566" y="618"/>
			<point x="615" y="539" type="curve"/>
			<point x="671" y="596" type="line"/>
			<point x="611" y="683"/>
			<point x="517" y="731"/>
			<point x="408" y="731" type="curve" smooth="yes"/>
			<point x="212" y="731"/>
			<point x="65" y="570"/>
			<point x="65" y="357" type="curve" smooth="yes"/>
			<point x="65" y="143"/>
			<point x="208" y="-16"/>
		</contour>
		<contour>
			<point x="108" y="336" type="line"/>
			<point x="542" y="336" type="line"/>
			<point x="542" y="407" type="line"/>
			<point x="108" y="407" type="line"/>
		</contour>
	</outline>
</glyph>
<glyph name="Lje" format="2">
	<unicode hex="0409"/>
	<advance width="1070"/>
	<outline>
		<contour>
			<point x="50" y="0" type="line"/>
			<point x="102" y="0" type="line" smooth="yes"/>
			<point x="178" y="0"/>
			<point x="215" y="35"/>
			<point x="224" y="109" type="curve" smooth="yes"/>
			<point x="291" y="674" type="line"/>
			<point x="265" y="644" type="line"/>
			<point x="580" y="644" type="line"/>
			<point x="534" y="689" type="line"/>
			<point x="534" y="0" type="line"/>
			<point x="796" y="0" type="line" smooth="yes"/>
			<point x="931" y="0"/>
			<point x="1019" y="82"/>
			<point x="1019" y="207" type="curve" smooth="yes"/>
			<point x="1019" y="333"/>
			<point x="932" y="414"/>
			<point x="796" y="414" type="curve" smooth="yes"/>
			<point x="574" y="414" type="line"/>
			<point x="574" y="344" type="line"/>
			<point x="796" y="344" type="line" smooth="yes"/>
			<point x="883" y="344"/>
			<point x="937" y="292"/>
			<point x="937" y="207" type="curve" smooth="yes"/>
			<point x="937" y="122"/>
			<point x="883" y="70"/>
			<point x="796" y="70" type="curve" smooth="yes"/>
			<point x="569" y="70" type="line"/>
			<point x="614" y="26" type="line"/>
			<point x="614" y="715" type="line"/>
			<point x="216" y="715" type="line"/>
			<point x="147" y="123" type="line" smooth="yes"/>
			<point x="143" y="88"/>
			<point x="126" y="71"/>
			<point x="95" y="71" type="curve" smooth="yes"/>
			<point x="50" y="71" type="line"/>
		</contour>
	</outline>
</glyph>
<glyph name="Tshe" format="2">
	<unicode hex="040B"/>
	<advance width="684"/>
	<outline>
		<contour>
			<point x="10" y="644" type="line"/>
			<point x="484" y="644" type="line"/>
			<point x="484" y="715" type="line"/>
			<point x="10" y="715" type="line"/>
		</contour>
		<contour>
			<point x="553" y="1" type="line"/>
			<point x="633" y="1" type="line"/>
			<point x="633" y="228" type="line" smooth="yes"/>
			<point x="633" y="365"/>
			<point x="550" y="440"/>
			<point x="401" y="440" type="curve" smooth="yes"/>
			<point x="307" y="440"/>
			<point x="229" y="415"/>
			<point x="171" y="366" type="curve"/>
			<point x="201" y="309" type="line"/>
			<point x="249" y="345"/>
			<point x="324" y="368"/>
			<point x="393" y="368" type="curve" smooth="yes"/>
			<point x="494" y="368"/>
			<point x="553" y="313"/>
			<point x="553" y="220" type="curve" smooth="yes"/>
		</contour>
		<contour>
			<point x="140" y="0" type="line"/>
			<point x="220" y="0" type="line"/>
			<point x="220" y="676" type="line"/>
			<point x="140" y="676" type="line"/>
		</contour>
	</outline>
</glyph>
<glyph name="Dzhe" format="2">
	<unicode hex="040F"/>
	<advance width="746"/>
	<outline>
		<contour>
			<point x="106" y="0" type="line"/>
			<point x="640" y="0" type="line"/>
			<point x="640" y="715" type="line"/>
			<point x="560" y="715" type="line"/>
			<point x="560" y="46" type="line"/>
			<point x="585" y="71" type="line"/>
			<point x="161" y="71" type="line"/>
			<point x="186" y="46" type="line"/>
			<point x="186" y="715" type="line"/>
			<point x="106" y="715" type="line"/>
		</contour>
		<contour>
			<point x="334" y="-174" type="line"/>
			<point x="412" y="-174" type="line"/>
			<point x="412" y="41" type="line"/>
			<point x="334" y="41" type="line"/>
		</contour>
	</outline>
</glyph>
<glyph name="Be" format="2">
	<unicode hex="0411"/>
	<advance width="650"/>
	<outline>
		<contour>
			<point x="106" y="0" type="line"/>
			<point x="378" y="0" type="line" smooth="yes"/>
			<point x="513" y="0"/>
			<point x="601" y="82"/>
			<point x="601" y="204" type="curve" smooth="yes"/>
			<point x="601" y="328"/>
			<point x="514" y="409"/>
			<point x="378" y="409" type="curve" smooth="yes"/>
			<point x="144" y="409" type="line"/>
			<point x="144" y="339" type="line"/>
			<point x="378" y="339" type="line" smooth="yes"/>
			<point x="465" y="339"/>
			<point x="519" y="289"/>
			<point x="519" y="204" type="curve" smooth="yes"/>
			<point x="519" y="120"/>
			<point x="465" y="70"/>
			<point x="378" y="70" type="curve" smooth="yes"/>
			<point x="161" y="70" type="line"/>
			<point x="186" y="45" type="line"/>
			<point x="186" y="669" type="line"/>
			<point x="161" y="645" type="line"/>
			<point x="549" y="645" type="line"/>
			<point x="549" y="715" type="line"/>
			<point x="106" y="715" type="line"/>
		</contour>
	</outline>
</glyph>
<glyph name="Ghe" format="2">
	<unicode hex="0413"/>
	<advance width="534"/>
	<outline>
		<contour>
			<point x="106" y="0" type="line"/>
			<point x="186" y="0" type="line"/>
			<point x="186" y="688" type="line"/>
			<point x="139" y="644" type="line"/>
			<point x="519" y="644" type="line"/>
			<point x="519" y="715" type="line"/>
			<point x="106" y="715" type="line"/>
		</contour>
	</outline>
	<anchor name="top.UC" x="319" y="750"/>
</glyph>
<glyph name="De" format="2">
	<unicode hex="0414"/>
	<advance width="780"/>
	<outline>
		<contour>
			<point x="50" y="-174" type="line"/>
			<point x="128" y="-174" type="line"/>
			<point x="128" y="25" type="line"/>
			<point x="103" y="0" type="line"/>
			<point x="662" y="0" type="line"/>
			<point x="637" y="25" type="line"/>
			<point x="637" y="-174" type="line"/>
			<point x="715" y="-174" type="line"/>
			<point x="715" y="71" type="line"/>
			<point x="190" y="71" type="line"/>
			<point x="198" y="53" type="line"/>
			<point x="232" y="80"/>
			<point x="245" y="135"/>
			<point x="254" y="211" type="curve" smooth="yes"/>
			<point x="305" y="669" type="line"/>
			<point x="277" y="644" type="line"/>
			<point x="590" y="644" type="line"/>
			<point x="565" y="669" type="line"/>
			<point x="565" y="50" type="line"/>
			<point x="645" y="50" type="line"/>
			<point x="645" y="715" type="line"/>
			<point x="231" y="715" type="line"/>
			<point x="178" y="221" type="line" smooth="yes"/>
			<point x="167" y="119"/>
			<point x="149" y="73"/>
			<point x="118" y="71" type="curve"/>
			<point x="50" y="71" type="line"/>
		</contour>
	</outline>
</glyph>
<glyph name="Zhe" format="2">
	<unicode hex="0416"/>
	<advance width="970"/>
	<outline>
		<contour>
			<point x="32" y="0" type="line"/>
			<point x="137" y="0" type="line"/>
			<point x="473" y="372" type="line"/>
			<point x="458" y="372" type="line"/>
			<point x="153" y="715" type="line"/>
			<point x="53" y="715" type="line"/>
			<point x="367" y="369" type="line"/>
		</contour>
		<contour>
			<point x="445" y="0" type="line"/>
			<point x="525" y="0" type="line"/>
			<point x="525" y="715" type="line"/>
			<point x="445" y="715" type="line"/>
		</contour>
		<contour>
			<point x="833" y="0" type="line"/>
			<point x="938" y="0" type="line"/>
			<point x="603" y="369" type="line"/>
			<point x="917" y="715" type="line"/>
			<point x="817" y="715" type="line"/>
			<point x="512" y="372" type="line"/>
			<point x="497" y="372" type="line"/>
		</contour>
	</outline>
</glyph>
<glyph name="Ze" format="2">
	<unicode hex="0417"/>
	<advance width="636"/>
	<outline>
		<contour>
			<point x="313" y="-16" type="curve" smooth="yes"/>
			<point x="462" y="-16"/>
			<point x="568" y="75"/>
			<point x="568" y="202" type="curve" smooth="yes"/>
			<point x="568" y="290"/>
			<point x="512" y="357"/>
			<point x="412" y="385" type="curve"/>
			<point x="412" y="369" type="line"/>
			<point x="499" y="395"/>
			<point x="549" y="459"/>
			<point x="549" y="539" type="curve" smooth="yes"/>
			<point x="549" y="653"/>
			<point x="452" y="731"/>
			<point x="311" y="731" type="curve" smooth="yes"/>
			<point x="203" y="731"/>
			<point x="125" y="691"/>
			<point x="57" y="600" type="curve"/>
			<point x="113" y="550" type="line"/>
			<point x="163" y="625"/>
			<point x="223" y="659"/>
			<point x="310" y="659" type="curve" smooth="yes"/>
			<point x="409" y="659"/>
			<point x="469" y="612"/>
			<point x="469" y="535" type="curve" smooth="yes"/>
			<point x="469" y="460"/>
			<point x="409" y="408"/>
			<point x="323" y="408" type="curve" smooth="yes"/>
			<point x="179" y="408" type="line"/>
			<point x="179" y="338" type="line"/>
			<point x="323" y="338" type="line" smooth="yes"/>
			<point x="422" y="338"/>
			<point x="487" y="285"/>
			<point x="487" y="204" type="curve" smooth="yes"/>
			<point x="487" y="113"/>
			<point x="419" y="56"/>
			<point x="310" y="56" type="curve" smooth="yes"/>
			<point x="218" y="56"/>
			<point x="149" y="93"/>
			<point x="97" y="171" type="curve"/>
			<point x="42" y="114" type="line"/>
			<point x="111" y="25"/>
			<point x="197" y="-16"/>
		</contour>
	</outline>
</glyph>
<glyph name="El" format="2">
	<unicode hex="041B"/>
	<advance width="730"/>
	<outline>
		<contour>
			<point x="50" y="0" type="line"/>
			<point x="103" y="0" type="line" smooth="yes"/>
			<point x="175" y="0"/>
			<point x="213" y="34"/>
			<point x="222" y="109" type="curve" smooth="yes"/>
			<point x="289" y="674" type="line"/>
			<point x="266" y="644" type="line"/>
			<point x="567" y="644" type="line"/>
			<point x="544" y="673" type="line"/>
			<point x="544" y="0" type="line"/>
			<point x="624" y="0" type="line"/>
			<point x="624" y="715" type="line"/>
			<point x="216" y="715" type="line"/>
			<point x="147" y="123" type="line" smooth="yes"/>
			<point x="143" y="88"/>
			<point x="126" y="71"/>
			<point x="96" y="71" type="curve" smooth="yes"/>
			<point x="50" y="71" type="line"/>
		</contour>
	</outline>
</glyph>
<glyph name="Pe" format="2">
	<unicode hex="041F"/>
	<advance width="748"/>
	<outline>
		<contour>
			<point x="106" y="0" type="line"/>
			<point x="186" y="0" type="line"/>
			<point x="186" y="708" type="line"/>
			<point x="139" y="644" type="line"/>
			<point x="610" y="644" type="line"/>
			<point x="562" y="708" type="line"/>
			<point x="562" y="0" type="line"/>
			<point x="642" y="0" type="line"/>
			<point x="642" y="715" type="line"/>
			<point x="106" y="715" type="line"/>
		</contour>
	</outline>
</glyph>
<glyph name="Ucyr" format="2">
	<unicode hex="0423"/>
	<advance width="640"/>
	<outline>
		<contour>
			<point x="83" y="0" type="line"/>
			<point x="162" y="0" type="line" smooth="yes"/>
			<point x="257" y="0"/>
			<point x="295" y="34"/>
			<point x="348" y="147" type="curve" smooth="yes"/>
			<point x="613" y="715" type="line"/>
			<point x="529" y="715" type="line"/>
			<point x="280" y="170" type="line" smooth="yes"/>
			<point x="245" y="93"/>
			<point x="220" y="71"/>
			<point x="162" y="71" type="curve" smooth="yes"/>
			<point x="83" y="71" type="line"/>
		</contour>
		<contour>
			<point x="295" y="158" type="line"/>
			<point x="358" y="196" type="line"/>
			<point x="111" y="715" type="line"/>
			<point x="27" y="715" type="line"/>
		</contour>
	</outline>
	<anchor name="top.UC" x="320" y="750"/>
</glyph>
<glyph name="Ef" format="2">
	<unicode hex="0424"/>
	<advance width="839"/>
	<outline>
		<contour>
			<point x="419" y="74" type="curve" smooth="yes"/>
			<point x="647" y="74"/>
			<point x="774" y="175"/>
			<point x="774" y="358" type="curve" smooth="yes"/>
			<point x="774" y="540"/>
			<point x="647" y="641"/>
			<point x="419" y="641" type="curve" smooth="yes"/>
			<point x="192" y="641"/>
			<point x="65" y="540"/>
			<point x="65" y="358" type="curve" smooth="yes"/>
			<point x="65" y="175"/>
			<point x="191" y="74"/>
		</contour>
		<contour>
			<point x="419" y="146" type="curve" smooth="yes"/>
			<point x="237" y="146"/>
			<point x="147" y="216"/>
			<point x="147" y="358" type="curve" smooth="yes"/>
			<point x="147" y="499"/>
			<point x="238" y="569"/>
			<point x="419" y="569" type="curve" smooth="yes"/>
			<point x="601" y="569"/>
			<point x="692" y="499"/>
			<point x="692" y="358" type="curve" smooth="yes"/>
			<point x="692" y="218"/>
			<point x="599" y="146"/>
		</contour>
		<contour>
			<point x="380" y="-30" type="line"/>
			<point x="459" y="-30" type="line"/>
			<point x="459" y="89" type="line"/>
			<point x="456" y="133" type="line"/>
			<point x="456" y="583" type="line"/>
			<point x="459" y="622" type="line"/>
			<point x="459" y="745" type="line"/>
			<point x="380" y="745" type="line"/>
			<point x="380" y="622" type="line"/>
			<point x="383" y="583" type="line"/>
			<point x="383" y="133" type="line"/>
			<point x="380" y="89" type="line"/>
		</contour>
	</outline>
</glyph>
<glyph name="Tse" format="2">
	<unicode hex="0426"/>
	<advance width="776"/>
	<outline>
		<contour>
			<point x="641" y="44" type="line"/>
			<point x="641" y="715" type="line"/>
			<point x="561" y="715" type="line"/>
			<point x="561" y="44" type="line"/>
		</contour>
		<contour>
			<point x="633" y="-174" type="line"/>
			<point x="711" y="-174" type="line"/>
			<point x="711" y="71" type="line"/>
			<point x="161" y="71" type="line"/>
			<point x="186" y="46" type="line"/>
			<point x="186" y="715" type="line"/>
			<point x="106" y="715" type="line"/>
			<point x="106" y="0" type="line"/>
			<point x="658" y="0" type="line"/>
			<point x="633" y="25" type="line"/>
		</contour>
	</outline>
</glyph>
<glyph name="Sha" format="2">
	<unicode hex="0428"/>
	<advance width="1082"/>
	<outline>
		<contour>
			<point x="106" y="0" type="line"/>
			<point x="976" y="0" type="line"/>
			<point x="976" y="715" type="line"/>
			<point x="896" y="715" type="line"/>
			<point x="896" y="35" type="line"/>
			<point x="924" y="71" type="line"/>
			<point x="543" y="71" type="line"/>
			<point x="581" y="34" type="line"/>
			<point x="581" y="715" type="line"/>
			<point x="501" y="715" type="line"/>
			<point x="501" y="34" type="line"/>
			<point x="540" y="71" type="line"/>
			<point x="156" y="71" type="line"/>
			<point x="186" y="35" type="line"/>
			<point x="186" y="715" type="line"/>
			<point x="106" y="715" type="line"/>
		</contour>
	</outline>
</glyph>
<glyph name="Shcha" format="2">
	<unicode hex="0429"/>
	<advance width="1111"/>
	<outline>
		<contour>
			<point x="581" y="42" type="line"/>
			<point x="581" y="715" type="line"/>
			<point x="501" y="715" type="line"/>
			<point x="501" y="42" type="line"/>
		</contour>
		<contour>
			<point x="976" y="44" type="line"/>
			<point x="976" y="715" type="line"/>
			<point x="896" y="715" type="line"/>
			<point x="896" y="44" type="line"/>
		</contour>
		<contour>
			<point x="968" y="-174" type="line"/>
			<point x="1046" y="-174" type="line"/>
			<point x="1046" y="71" type="line"/>
			<point x="161" y="71" type="line"/>
			<point x="186" y="46" type="line"/>
			<point x="186" y="715" type="line"/>
			<point x="106" y="715" type="line"/>
			<point x="106" y="0" type="line"/>
			<point x="993" y="0" type="line"/>
			<point x="968" y="25" type="line"/>
		</contour>
	</outline>
</glyph>
<glyph name="Hard" format="2">
	<unicode hex="042A"/>
	<advance width="686"/>
	<outline>
		<contour>
			<point x="140" y="0" type="line"/>
			<point x="412" y="0" type="line" smooth="yes"/>
			<point x="547" y="0"/>
			<point x="635" y="82"/>
			<point x="635" y="206" type="curve" smooth="yes"/>
			<point x="635" y="332"/>
			<point x="548" y="414"/>
			<point x="412" y="414" type="curve" smooth="yes"/>
			<point x="185" y="414" type="line"/>
			<point x="185" y="344" type="line"/>
			<point x="412" y="344" type="line" smooth="yes"/>
			<point x="499" y="344"/>
			<point x="553" y="292"/>
			<point x="553" y="206" type="curve" smooth="yes"/>
			<point x="553" y="122"/>
			<point x="499" y="70"/>
			<point x="412" y="70" type="curve" smooth="yes"/>
			<point x="195" y="70" type="line"/>
			<point x="220" y="45" type="line"/>
			<point x="220" y="715" type="line"/>
			<point x="10" y="715" type="line"/>
			<point x="10" y="644" type="line"/>
			<point x="165" y="644" type="line"/>
			<point x="140" y="669" type="line"/>
		</contour>
	</outline>
</glyph>
<glyph name="Soft" format="2">
	<unicode hex="042C"/>
	<advance width="652"/>
	<outline>
		<contour>
			<point x="106" y="0" type="line"/>
			<point x="378" y="0" type="line" smooth="yes"/>
			<point x="513" y="0"/>
			<point x="601" y="82"/>
			<point x="601" y="206" type="curve" smooth="yes"/>
			<point x="601" y="332"/>
			<point x="514" y="414"/>
			<point x="378" y="414" type="curve" smooth="yes"/>
			<point x="145" y="414" type="line"/>
			<point x="145" y="344" type="line"/>
			<point x="378" y="344" type="line" smooth="yes"/>
			<point x="465" y="344"/>
			<point x="519" y="292"/>
			<point x="519" y="206" type="curve" smooth="yes"/>
			<point x="519" y="122"/>
			<point x="465" y="70"/>
			<point x="378" y="70" type="curve" smooth="yes"/>
			<point x="166" y="70" type="line"/>
			<point x="186" y="48" type="line"/>
			<point x="186" y="715" type="line"/>
			<point x="106" y="715" type="line"/>
		</contour>
	</outline>
</glyph>
<glyph name="Yu" format="2">
	<unicode hex="042E"/>
	<advance width="1039"/>
	<outline>
		<contour>
			<point x="106" y="0" type="line"/>
			<point x="186" y="0" type="line"/>
			<point x="186" y="715" type="line"/>
			<point x="106" y="715" type="line"/>
		</contour>
		<contour>
			<point x="638" y="-16" type="curve" smooth="yes"/>
			<point x="832" y="-16"/>
			<point x="974" y="144"/>
			<point x="974" y="358" type="curve" smooth="yes"/>
			<point x="974" y="571"/>
			<point x="832" y="731"/>
			<point x="638" y="731" type="curve" smooth="yes"/>
			<point x="445" y="731"/>
			<point x="302" y="571"/>
			<point x="302" y="358" type="curve" smooth="yes"/>
			<point x="302" y="144"/>
			<point x="445" y="-16"/>
		</contour>
		<contour>
			<point x="638" y="56" type="curve" smooth="yes"/>
			<point x="491" y="56"/>
			<point x="385" y="182"/>
			<point x="385" y="358" type="curve" smooth="yes"/>
			<point x="385" y="533"/>
			<point x="491" y="659"/>
			<point x="638" y="659" type="curve" smooth="yes"/>
			<point x="786" y="659"/>
			<point x="891" y="533"/>
			<point x="891" y="358" type="curve" smooth="yes"/>
			<point x="891" y="182"/>
			<point x="786" y="56"/>
		</contour>
		<contour>
			<point x="169" y="336" type="line"/>
			<point x="353" y="336" type="line"/>
			<point x="353" y="407" type="line"/>
			<point x="169" y="407" type="line"/>
		</contour>
	</outline>
</glyph>
<glyph name="Ya" format="2">
	<unicode hex="042F"/>
	<advance width="681"/>
	<outline>
		<contour>
			<point x="495" y="0" type="line"/>
			<point x="575" y="0" type="line"/>
			<point x="575" y="715" type="line"/>
			<point x="313" y="715" type="line" smooth="yes"/>
			<point x="180" y="715"/>
			<point x="91" y="635"/>
			<point x="91" y="515" type="curve" smooth="yes"/>
			<point x="91" y="394"/>
			<point x="180" y="314"/>
			<point x="313" y="314" type="curve" smooth="yes"/>
			<point x="512" y="314" type="line"/>
			<point x="512" y="384" type="line"/>
			<point x="313" y="384" type="line" smooth="yes"/>
			<point x="227" y="384"/>
			<point x="173" y="431"/>
			<point x="173" y="515" type="curve" smooth="yes"/>
			<point x="173" y="596"/>
			<point x="227" y="645"/>
			<point x="313" y="645" type="curve" smooth="yes"/>
			<point x="495" y="645" type="line"/>
		</contour>
		<contour>
			<point x="53" y="0" type="line"/>
			<point x="148" y="0" type="line"/>
			<point x="369" y="334" type="line"/>
			<point x="281" y="334" type="line"/>
		</contour>
	</outline>
</glyph>
<glyph name="be" format="2">
	<unicode hex="0431"/>
	<advance width="580"/>
	<outline>
		<contour>
			<point x="293" y="-16" type="curve" smooth="yes"/>
			<point x="435" y="-16"/>
			<point x="526" y="83"/>
			<point x="526" y="238" type="curve" smooth="yes"/>
			<point x="526" y="385"/>
			<point x="442" y="482"/>
			<point x="313" y="482" type="curve" smooth="yes"/>
			<point x="205" y="482"/>
			<point x="116" y="406"/>
			<point x="106" y="304" type="curve"/>
			<point x="126" y="336" type="line"/>
			<point x="130" y="523"/>
			<point x="166" y="591"/>
			<point x="273" y="611" type="curve" smooth="yes"/>
			<point x="483" y="651" type="line"/>
			<point x="470" y="720" type="line"/>
			<point x="260" y="682" type="line" smooth="yes"/>
			<point x="116" y="656"/>
			<point x="54" y="550"/>
			<point x="54" y="334" type="curve" smooth="yes"/>
			<point x="54" y="106"/>
			<point x="137" y="-16"/>
		</contour>
		<contour>
			<point x="292" y="52" type="curve" smooth="yes"/>
			<point x="186" y="52"/>
			<point x="136" y="132"/>
			<point x="136" y="303" type="curve"/>
			<point x="109" y="284" type="line"/>
			<point x="125" y="248" type="line"/>
			<point x="143" y="346"/>
			<point x="213" y="414"/>
			<point x="301" y="414" type="curve" smooth="yes"/>
			<point x="392" y="414"/>
			<point x="445" y="350"/>
			<point x="445" y="238" type="curve" smooth="yes"/>
			<point x="445" y="124"/>
			<point x="387" y="52"/>
		</contour>
	</outline>
</glyph>
<glyph name="ve" format="2">
	<unicode hex="0432"/>
	<advance width="552"/>
	<outline>
		<contour>
			<point x="85" y="0" type="line"/>
			<point x="329" y="0" type="line" smooth="yes"/>
			<point x="429" y="0"/>
			<point x="502" y="60"/>
			<point x="502" y="144" type="curve" smooth="yes"/>
			<point x="502" y="200"/>
			<point x="466" y="244"/>
			<point x="404" y="263" type="curve"/>
			<point x="404" y="254" type="line"/>
			<point x="453" y="272"/>
			<point x="481" y="311"/>
			<point x="481" y="362" type="curve" smooth="yes"/>
			<point x="481" y="443"/>
			<point x="416" y="492"/>
			<point x="320" y="492" type="curve" smooth="yes"/>
			<point x="85" y="492" type="line"/>
		</contour>
		<contour>
			<point x="137" y="65" type="line"/>
			<point x="162" y="40" type="line"/>
			<point x="162" y="452" type="line"/>
			<point x="137" y="427" type="line"/>
			<point x="320" y="427" type="line" smooth="yes"/>
			<point x="372" y="427"/>
			<point x="401" y="406"/>
			<point x="401" y="359" type="curve" smooth="yes"/>
			<point x="401" y="314"/>
			<point x="368" y="289"/>
			<point x="320" y="289" type="curve" smooth="yes"/>
			<point x="132" y="289" type="line"/>
			<point x="132" y="224" type="line"/>
			<point x="329" y="224" type="line" smooth="yes"/>
			<point x="387" y="224"/>
			<point x="422" y="194"/>
			<point x="422" y="144" type="curve" smooth="yes"/>
			<point x="422" y="95"/>
			<point x="386" y="65"/>
			<point x="329" y="65" type="curve" smooth="yes"/>
		</contour>
	</outline>
</glyph>
<glyph name="ghe" format="2">
	<unicode hex="0433"/>
	<advance width="432"/>
	<outline>
		<contour>
			<point x="85" y="0" type="line"/>
			<point x="162" y="0" type="line"/>
			<point x="162" y="459" type="line"/>
			<point x="130" y="427" type="line"/>
			<point x="412" y="427" type="line"/>
			<point x="412" y="492" type="line"/>
			<point x="85" y="492" type="line"/>
		</contour>
	</outline>
	<anchor name="top.LC" x="248" y="544"/>
</glyph>
<glyph name="de" format="2">
	<unicode hex="0434"/>
	<advance width="573"/>
	<outline>
		<contour>
			<point x="12" y="-127" type="line"/>
			<point x="85" y="-127" type="line"/>
			<point x="85" y="25" type="line"/>
			<point x="60" y="0" type="line"/>
			<point x="480" y="0" type="line"/>
			<point x="455" y="25" type="line"/>
			<point x="455" y="-127" type="line"/>
			<point x="528" y="-127" type="line"/>
			<point x="528" y="65" type="line"/>
			<point x="129" y="65" type="line"/>
			<point x="139" y="45" type="line"/>
			<point x="160" y="64"/>
			<point x="172" y="101"/>
			<point x="179" y="158" type="curve" smooth="yes"/>
			<point x="214" y="452" type="line"/>
			<point x="186" y="427" type="line"/>
			<point x="413" y="427" type="line"/>
			<point x="388" y="452" type="line"/>
			<point x="388" y="40" type="line"/>
			<point x="465" y="40" type="line"/>
			<point x="465" y="492" type="line"/>
			<point x="141" y="492" type="line"/>
			<point x="105" y="164" type="line" smooth="yes"/>
			<point x="97" y="89"/>
			<point x="86" y="65"/>
			<point x="53" y="65" type="curve" smooth="yes"/>
			<point x="12" y="65" type="line"/>
		</contour>
	</outline>
</glyph>
<glyph name="zhe" format="2">
	<unicode hex="0436"/>
	<advance width="713"/>
	<outline>
		<contour>
			<point x="13" y="0" type="line"/>
			<point x="111" y="0" type="line"/>
			<point x="347" y="256" type="line"/>
			<point x="335" y="256" type="line"/>
			<point x="119" y="492" type="line"/>
			<point x="24" y="492" type="line"/>
			<point x="263" y="233" type="line"/>
			<point x="266" y="269" type="line"/>
		</contour>
		<contour>
			<point x="317" y="0" type="line"/>
			<point x="392" y="0" type="line"/>
			<point x="392" y="492" type="line"/>
			<point x="317" y="492" type="line"/>
		</contour>
		<contour>
			<point x="600" y="0" type="line"/>
			<point x="700" y="0" type="line"/>
			<point x="447" y="269" type="line"/>
			<point x="444" y="233" type="line"/>
			<point x="684" y="492" type="line"/>
			<point x="591" y="492" type="line"/>
			<point x="375" y="256" type="line"/>
			<point x="364" y="256" type="line"/>
		</contour>
	</outline>
</glyph>
<glyph name="ze" format="2">
	<unicode hex="0437"/>
	<advance width="509"/>
	<outline>
		<contour>
			<point x="255" y="-16" type="curve" smooth="yes"/>
			<point x="370" y="-16"/>
			<point x="454" y="49"/>
			<point x="454" y="138" type="curve" smooth="yes"/>
			<point x="454" y="201"/>
			<point x="414" y="248"/>
			<point x="343" y="267" type="curve"/>
			<point x="343" y="251" type="line"/>
			<point x="406" y="269"/>
			<point x="441" y="310"/>
			<point x="441" y="368" type="curve" smooth="yes"/>
			<point x="441" y="451"/>
			<point x="362" y="508"/>
			<point x="246" y="508" type="curve" smooth="yes"/>
			<point x="163" y="508"/>
			<point x="97" y="477"/>
			<point x="44" y="413" type="curve"/>
			<point x="94" y="364" type="line"/>
			<point x="131" y="415"/>
			<point x="183" y="441"/>
			<point x="244" y="441" type="curve" smooth="yes"/>
			<point x="314" y="441"/>
			<point x="361" y="410"/>
			<point x="361" y="360" type="curve" smooth="yes"/>
			<point x="361" y="313"/>
			<point x="324" y="287"/>
			<point x="261" y="287" type="curve" smooth="yes"/>
			<point x="158" y="287" type="line"/>
			<point x="158" y="222" type="line"/>
			<point x="259" y="222" type="line" smooth="yes"/>
			<point x="335" y="222"/>
			<point x="374" y="196"/>
			<point x="374" y="144" type="curve" smooth="yes"/>
			<point x="374" y="86"/>
			<point x="323" y="51"/>
			<point x="245" y="51" type="curve" smooth="yes"/>
			<point x="178" y="51"/>
			<point x="123" y="78"/>
			<point x="87" y="130" type="curve"/>
			<point x="35" y="80" type="line"/>
			<point x="87" y="15"/>
			<point x="158" y="-16"/>
		</contour>
	</outline>
</glyph>
<glyph name="icyr" format="2">
	<unicode hex="0438"/>
	<advance width="596"/>
	<outline>
		<contour>
			<point x="85" y="0" type="line"/>
			<point x="152" y="0" type="line"/>
			<point x="441" y="383" type="line"/>
			<point x="434" y="392" type="line"/>
			<point x="434" y="0" type="line"/>
			<point x="511" y="0" type="line"/>
			<point x="511" y="492" type="line"/>
			<point x="444" y="492" type="line"/>
			<point x="154" y="107" type="line"/>
			<point x="162" y="98" type="line"/>
			<point x="162" y="492" type="line"/>
			<point x="85" y="492" type="line"/>
		</contour>
	</outline>
	<anchor name="top.LC" x="306" y="544"/>
</glyph>
<glyph name="ka" format="2">
	<unicode hex="043A"/>
	<advance width="515"/>
	<outline>
		<contour>
			<point x="85" y="0" type="line"/>
			<point x="162" y="0" type="line"/>
			<point x="162" y="492" type="line"/>
			<point x="85" y="492" type="line"/>
		</contour>
		<contour>
			<point x="397" y="0" type="line"/>
			<point x="505" y="0" type="line"/>
			<point x="203" y="283" type="line"/>
			<point x="224" y="241" type="line"/>
			<point x="482" y="492" type="line"/>
			<point x="380" y="492" type="line"/>
			<point x="140" y="256" type="line"/>
			<point x="129" y="256" type="line"/>
		</contour>
	</outline>
	<anchor name="top.LC" x="267" y="544"/>
</glyph>
<glyph name="te" format="2">
	<unicode hex="0442"/>
	<advance width="486"/>
	<outline>
		<contour>
			<point x="35" y="427" type="line"/>
			<point x="451" y="427" type="line"/>
			<point x="451" y="492" type="line"/>
			<point x="35" y="492" type="line"/>
		</contour>
		<contour>
			<point x="205" y="0" type="line"/>
			<point x="281" y="0" type="line"/>
			<point x="281" y="471" type="line"/>
			<point x="205" y="471" type="line"/>
		</contour>
	</outline>
</glyph>
<glyph name="tse" format="2">
	<unicode hex="0446"/>
	<advance width="596"/>
	<outline>
		<contour>
			<point x="411" y="33" type="line"/>
			<point x="488" y="33" type="line"/>
			<point x="488" y="492" type="line"/>
			<point x="411" y="492" type="line"/>
		</contour>
		<contour>
			<point x="85" y="0" type="line"/>
			<point x="503" y="0" type="line"/>
			<point x="478" y="25" type="line"/>
			<point x="478" y="-127" type="line"/>
			<point x="551" y="-127" type="line"/>
			<point x="551" y="65" type="line"/>
			<point x="137" y="65" type="line"/>
			<point x="162" y="40" type="line"/>
			<point x="162" y="492" type="line"/>
			<point x="85" y="492" type="line"/>
		</contour>
	</outline>
</glyph>
<glyph name="che" format="2">
	<unicode hex="0447"/>
	<advance width="547"/>
	<outline>
		<contour>
			<point x="385" y="0" type="line"/>
			<point x="462" y="0" type="line"/>
			<point x="462" y="492" type="line"/>
			<point x="385" y="492" type="line"/>
		</contour>
		<contour>
			<point x="239" y="166" type="curve" smooth="yes"/>
			<point x="310" y="166"/>
			<point x="372" y="188"/>
			<point x="421" y="232" type="curve"/>
			<point x="396" y="282" type="line"/>
			<point x="347" y="249"/>
			<point x="298" y="232"/>
			<point x="249" y="232" type="curve" smooth="yes"/>
			<point x="167" y="232"/>
			<point x="131" y="272"/>
			<point x="131" y="364" type="curve" smooth="yes"/>
			<point x="131" y="492" type="line"/>
			<point x="54" y="492" type="line"/>
			<point x="54" y="356" type="line" smooth="yes"/>
			<point x="54" y="232"/>
			<point x="118" y="166"/>
		</contour>
	</outline>
</glyph>
<glyph name="shcha" format="2">
	<unicode hex="0449"/>
	<advance width="830"/>
	<outline>
		<contour>
			<point x="365" y="36" type="line"/>
			<point x="442" y="36" type="line"/>
			<point x="442" y="492" type="line"/>
			<point x="365" y="492" type="line"/>
		</contour>
		<contour>
			<point x="645" y="36" type="line"/>
			<point x="722" y="36" type="line"/>
			<point x="722" y="492" type="line"/>
			<point x="645" y="492" type="line"/>
		</contour>
		<contour>
			<point x="85" y="0" type="line"/>
			<point x="737" y="0" type="line"/>
			<point x="712" y="25" type="line"/>
			<point x="712" y="-127" type="line"/>
			<point x="785" y="-127" type="line"/>
			<point x="785" y="65" type="line"/>
			<point x="137" y="65" type="line"/>
			<point x="162" y="40" type="line"/>
			<point x="162" y="492" type="line"/>
			<point x="85" y="492" type="line"/>
		</contour>
	</outline>
</glyph>
<glyph name="yeru" format="2">
	<unicode hex="044B"/>
	<advance width="694"/>
	<outline>
		<contour>
			<point x="85" y="0" type="line"/>
			<point x="293" y="0" type="line" smooth="yes"/>
			<point x="391" y="0"/>
			<point x="466" y="68"/>
			<point x="466" y="155" type="curve" smooth="yes"/>
			<point x="466" y="247"/>
			<point x="396" y="309"/>
			<point x="293" y="309" type="curve" smooth="yes"/>
			<point x="116" y="309" type="line"/>
			<point x="116" y="244" type="line"/>
			<point x="293" y="244" type="line" smooth="yes"/>
			<point x="351" y="244"/>
			<point x="387" y="210"/>
			<point x="387" y="155" type="curve" smooth="yes"/>
			<point x="387" y="99"/>
			<point x="351" y="65"/>
			<point x="293" y="65" type="curve" smooth="yes"/>
			<point x="150" y="65" type="line"/>
			<point x="162" y="53" type="line"/>
			<point x="162" y="492" type="line"/>
			<point x="85" y="492" type="line"/>
		</contour>
		<contour>
			<point x="532" y="0" type="line"/>
			<point x="609" y="0" type="line"/>
			<point x="609" y="492" type="line"/>
			<point x="532" y="492" type="line"/>
		</contour>
	</outline>
</glyph>
<glyph name="soft" format="2">
	<unicode hex="044C"/>
	<advance width="496"/>
	<outline>
		<contour>
			<point x="85" y="0" type="line"/>
			<point x="308" y="0" type="line" smooth="yes"/>
			<point x="408" y="0"/>
			<point x="481" y="66"/>
			<point x="481" y="155" type="curve" smooth="yes"/>
			<point x="481" y="249"/>
			<point x="413" y="309"/>
			<point x="308" y="309" type="curve" smooth="yes"/>
			<point x="116" y="309" type="line"/>
			<point x="116" y="244" type="line"/>
			<point x="308" y="244" type="line" smooth="yes"/>
			<point x="366" y="244"/>
			<point x="402" y="210"/>
			<point x="402" y="155" type="curve" smooth="yes"/>
			<point x="402" y="99"/>
			<point x="366" y="65"/>
			<point x="308" y="65" type="curve" smooth="yes"/>
			<point x="150" y="65" type="line"/>
			<point x="162" y="53" type="line"/>
			<point x="162" y="492" type="line"/>
			<point x="85" y="492" type="line"/>
		</contour>
	</outline>
</glyph>
<glyph name="ecyr" format="2">
	<unicode hex="044D"/>
	<advance width="537"/>
	<outline>
		<contour>
			<point x="147" y="221" type="line"/>
			<point x="447" y="221" type="line"/>
			<point x="447" y="286" type="line"/>
			<point x="147" y="286" type="line"/>
		</contour>
		<contour>
			<point x="237" y="-16" type="curve" smooth="yes"/>
			<point x="381" y="-16"/>
			<point x="483" y="92"/>
			<point x="483" y="246" type="curve" smooth="yes"/>
			<point x="483" y="400"/>
			<point x="380" y="508"/>
			<point x="235" y="508" type="curve" smooth="yes"/>
			<point x="153" y="508"/>
			<point x="85" y="474"/>
			<point x="40" y="412" type="curve"/>
			<point x="95" y="361" type="line"/>
			<point x="123" y="411"/>
			<point x="175" y="441"/>
			<point x="237" y="441" type="curve" smooth="yes"/>
			<point x="336" y="441"/>
			<point x="403" y="364"/>
			<point x="403" y="246" type="curve" smooth="yes"/>
			<point x="403" y="129"/>
			<point x="335" y="51"/>
			<point x="234" y="51" type="curve" smooth="yes"/>
			<point x="174" y="51"/>
			<point x="127" y="79"/>
			<point x="95" y="131" type="curve"/>
			<point x="41" y="80" type="line"/>
			<point x="87" y="18"/>
			<point x="155" y="-16"/>
		</contour>
	</outline>
</glyph>
<glyph name="ya" format="2">
	<unicode hex="044F"/>
	<advance width="547"/>
	<outline>
		<contour>
			<point x="50" y="0" type="line"/>
			<point x="140" y="0" type="line"/>
			<point x="313" y="231" type="line"/>
			<point x="228" y="231" type="line"/>
		</contour>
		<contour>
			<point x="385" y="0" type="line"/>
			<point x="462" y="0" type="line"/>
			<point x="462" y="492" type="line"/>
			<point x="242" y="492" type="line" smooth="yes"/>
			<point x="140" y="492"/>
			<point x="69" y="431"/>
			<point x="69" y="343" type="curve" smooth="yes"/>
			<point x="69" y="252"/>
			<point x="138" y="193"/>
			<point x="242" y="193" type="curve" smooth="yes"/>
			<point x="432" y="193" type="line"/>
			<point x="432" y="258" type="line"/>
			<point x="242" y="258" type="line" smooth="yes"/>
			<point x="183" y="258"/>
			<point x="148" y="290"/>
			<point x="148" y="343" type="curve" smooth="yes"/>
			<point x="148" y="396"/>
			<point x="183" y="427"/>
			<point x="242" y="427" type="curve" smooth="yes"/>
			<point x="397" y="427" type="line"/>
			<point x="385" y="439" type="line"/>
		</contour>
	</outline>
</glyph>
<glyph name="dje" format="2">
	<unicode hex="0452"/>
	<advance width="589"/>
	<outline>
		<contour>
			<point x="85" y="0" type="line"/>
			<point x="162" y="0" type="line"/>
			<point x="162" y="214" type="line" smooth="yes"/>
			<point x="162" y="354"/>
			<point x="221" y="440"/>
			<point x="316" y="440" type="curve" smooth="yes"/>
			<point x="402" y="440"/>
			<point x="441" y="360"/>
			<point x="441" y="190" type="curve" smooth="yes"/>
			<point x="441" y="22"/>
			<point x="388" y="-88"/>
			<point x="276" y="-146" type="curve"/>
			<point x="320" y="-208" type="line"/>
			<point x="455" y="-128"/>
			<point x="520" y="1"/>
			<point x="520" y="190" type="curve" smooth="yes"/>
			<point x="520" y="407"/>
			<point x="461" y="508"/>
			<point x="331" y="508" type="curve" smooth="yes"/>
			<point x="234" y="508"/>
			<point x="168" y="450"/>
			<point x="149" y="342" type="curve"/>
			<point x="162" y="342" type="line"/>
			<point x="162" y="720" type="line"/>
			<point x="85" y="720" type="line"/>
		</contour>
		<contour>
			<point x="9" y="573" type="line"/>
			<point x="315" y="573" type="line"/>
			<point x="315" y="636" type="line"/>
			<point x="9" y="636" type="line"/>
		</contour>
	</outline>
</glyph>
<glyph name="lje" format="2">
	<unicode hex="0459"/>
	<advance width="792"/>
	<outline>
		<contour>
			<point x="30" y="0" type="line"/>
			<point x="80" y="0" type="line" smooth="yes"/>
			<point x="153" y="0"/>
			<point x="186" y="32"/>
			<point x="194" y="121" type="curve" smooth="yes"/>
			<point x="223" y="448" type="line"/>
			<point x="202" y="427" type="line"/>
			<point x="417" y="427" type="line"/>
			<point x="396" y="448" type="line"/>
			<point x="396" y="0" type="line"/>
			<point x="605" y="0" type="line" smooth="yes"/>
			<point x="701" y="0"/>
			<point x="777" y="67"/>
			<point x="777" y="155" type="curve" smooth="yes"/>
			<point x="777" y="247"/>
			<point x="707" y="309"/>
			<point x="605" y="309" type="curve" smooth="yes"/>
			<point x="452" y="309" type="line"/>
			<point x="452" y="244" type="line"/>
			<point x="605" y="244" type="line" smooth="yes"/>
			<point x="663" y="244"/>
			<point x="698" y="210"/>
			<point x="698" y="155" type="curve" smooth="yes"/>
			<point x="698" y="99"/>
			<point x="663" y="65"/>
			<point x="605" y="65" type="curve" smooth="yes"/>
			<point x="455" y="65" type="line"/>
			<point x="473" y="44" type="line"/>
			<point x="473" y="492" type="line"/>
			<point x="150" y="492" type="line"/>
			<point x="121" y="132" type="line" smooth="yes"/>
			<point x="117" y="82"/>
			<point x="101" y="66"/>
			<point x="71" y="66" type="curve" smooth="yes"/>
			<point x="30" y="66" type="line"/>
		</contour>
	</outline>
</glyph>
<glyph name="nje" format="2">
	<unicode hex="045A"/>
	<advance width="794"/>
	<outline>
		<contour>
			<point x="398" y="0" type="line"/>
			<point x="607" y="0" type="line" smooth="yes"/>
			<point x="704" y="0"/>
			<point x="779" y="67"/>
			<point x="779" y="155" type="curve" smooth="yes"/>
			<point x="779" y="247"/>
			<point x="710" y="309"/>
			<point x="607" y="309" type="curve" smooth="yes"/>
			<point x="453" y="309" type="line"/>
			<point x="453" y="244" type="line"/>
			<point x="607" y="244" type="line" smooth="yes"/>
			<point x="665" y="244"/>
			<point x="700" y="210"/>
			<point x="700" y="155" type="curve" smooth="yes"/>
			<point x="700" y="99"/>
			<point x="665" y="65"/>
			<point x="607" y="65" type="curve" smooth="yes"/>
			<point x="456" y="65" type="line"/>
			<point x="475" y="44" type="line"/>
			<point x="475" y="492" type="line"/>
			<point x="398" y="492" type="line"/>
		</contour>
		<contour>
			<point x="85" y="0" type="line"/>
			<point x="161" y="0" type="line"/>
			<point x="161" y="492" type="line"/>
			<point x="85" y="492" type="line"/>
		</contour>
		<contour>
			<point x="140" y="226" type="line"/>
			<point x="420" y="226" type="line"/>
			<point x="420" y="291" type="line"/>
			<point x="140" y="291" type="line"/>
		</contour>
	</outline>
</glyph>
<glyph name="dzhe" format="2">
	<unicode hex="045F"/>
	<advance width="573"/>
	<outline>
		<contour>
			<point x="85" y="0" type="line"/>
			<point x="488" y="0" type="line"/>
			<point x="488" y="492" type="line"/>
			<point x="411" y="492" type="line"/>
			<point x="411" y="40" type="line"/>
			<point x="436" y="65" type="line"/>
			<point x="137" y="65" type="line"/>
			<point x="162" y="40" type="line"/>
			<point x="162" y="492" type="line"/>
			<point x="85" y="492" type="line"/>
		</contour>
		<contour>
			<point x="250" y="-127" type="line"/>
			<point x="323" y="-127" type="line"/>
			<point x="323" y="45" type="line"/>
			<point x="250" y="45" type="line"/>
		</contour>
	</outline>
</glyph>
<glyph name="Yat" format="2">
	<unicode hex="0462"/>
	<advance width="667"/>
	<outline>
		<contour>
			<point x="10" y="563" type="line"/>
			<point x="471" y="563" type="line"/>
			<point x="471" y="631" type="line"/>
			<point x="10" y="631" type="line"/>
		</contour>
		<contour>
			<point x="121" y="0" type="line"/>
			<point x="393" y="0" type="line" smooth="yes"/>
			<point x="528" y="0"/>
			<point x="616" y="82"/>
			<point x="616" y="206" type="curve" smooth="yes"/>
			<point x="616" y="332"/>
			<point x="529" y="414"/>
			<point x="393" y="414" type="curve" smooth="yes"/>
			<point x="160" y="414" type="line"/>
			<point x="160" y="344" type="line"/>
			<point x="393" y="344" type="line" smooth="yes"/>
			<point x="480" y="344"/>
			<point x="534" y="292"/>
			<point x="534" y="206" type="curve" smooth="yes"/>
			<point x="534" y="122"/>
			<point x="480" y="70"/>
			<point x="393" y="70" type="curve" smooth="yes"/>
			<point x="181" y="70" type="line"/>
			<point x="201" y="48" type="line"/>
			<point x="201" y="715" type="line"/>
			<point x="121" y="715" type="line"/>
		</contour>
	</outline>
</glyph>
<glyph name="yat" format="2">
	<unicode hex="0463"/>
	<advance width="541"/>
	<outline>
		<contour>
			<point x="28" y="429" type="line"/>
			<point x="384" y="429" type="line"/>
			<point x="384" y="492" type="line"/>
			<point x="28" y="492" type="line"/>
		</contour>
		<contour>
			<point x="109" y="0" type="line"/>
			<point x="331" y="0" type="line" smooth="yes"/>
			<point x="430" y="0"/>
			<point x="505" y="67"/>
			<point x="505" y="155" type="curve" smooth="yes"/>
			<point x="505" y="247"/>
			<point x="436" y="309"/>
			<point x="331" y="309" type="curve" smooth="yes"/>
			<point x="140" y="309" type="line"/>
			<point x="140" y="244" type="line"/>
			<point x="331" y="244" type="line" smooth="yes"/>
			<point x="391" y="244"/>
			<point x="426" y="210"/>
			<point x="426" y="155" type="curve" smooth="yes"/>
			<point x="426" y="99"/>
			<point x="391" y="65"/>
			<point x="331" y="65" type="curve" smooth="yes"/>
			<point x="135" y="65" type="line"/>
			<point x="186" y="4" type="line"/>
			<point x="186" y="720" type="line"/>
			<point x="109" y="720" type="line"/>
		</contour>
	</outline>
</glyph>
<glyph name="Gheup" format="2">
	<unicode hex="0490"/>
	<advance width="551"/>
	<outline>
		<contour>
			<point x="106" y="0" type="line"/>
			<point x="186" y="0" type="line"/>
			<point x="186" y="708" type="line"/>
			<point x="138" y="644" type="line"/>
			<point x="526" y="644" type="line"/>
			<point x="526" y="879" type="line"/>
			<point x="448" y="879" type="line"/>
			<point x="448" y="656" type="line"/>
			<point x="498" y="715" type="line"/>
			<point x="106" y="715" type="line"/>
		</contour>
	</outline>
</glyph>
<glyph name="gheup" format="2">
	<unicode hex="0491"/>
	<advance width="432"/>
	<outline>
		<contour>
			<point x="85" y="0" type="line"/>
			<point x="162" y="0" type="line"/>
			<point x="162" y="485" type="line"/>
			<point x="114" y="427" type="line"/>
			<point x="412" y="427" type="line"/>
			<point x="412" y="612" type="line"/>
			<point x="339" y="612" type="line"/>
			<point x="339" y="441" type="line"/>
			<point x="387" y="492" type="line"/>
			<point x="85" y="492" type="line"/>
		</contour>
	</outline>
</glyph>
<glyph name="Germandbls" format="2">
	<unicode hex="1E9E"/>
	<advance width="734"/>
	<outline>
		<contour>
			<point x="246" y="71" type="line"/>
			<point x="303" y="15"/>
			<point x="380" y="-16"/>
			<point x="461" y="-16" type="curve" smooth="yes"/>
			<point x="600" y="-16"/>
			<point x="704" y="81"/>
			<point x="704" y="209" type="curve" smooth="yes"/>
			<point x="704" y="343"/>
			<point x="586" y="448"/>
			<point x="448" y="417" type="curve"/>
			<point x="456" y="409" type="line"/>
			<point x="649" y="646" type="line"/>
			<point x="649" y="715" type="line"/>
			<point x="372" y="715" type="line" smooth="yes"/>
			<point x="197" y="715"/>
			<point x="92" y="604"/>
			<point x="92" y="417" type="curve" smooth="yes"/>
			<point x="92" y="0" type="line"/>
			<point x="172" y="0" type="line"/>
			<point x="172" y="417" type="line" smooth="yes"/>
			<point x="172" y="563"/>
			<point x="244" y="645"/>
			<point x="372" y="645" type="curve" smooth="yes"/>
			<point x="601" y="645" type="line"/>
			<point x="585" y="679" type="line"/>
			<point x="333" y="371" type="line"/>
			<point x="382" y="329" type="line"/>
			<point x="410" y="352"/>
			<point x="437" y="362"/>
			<point x="472" y="362" type="curve" smooth="yes"/>
			<point x="563" y="362"/>
			<point x="622" y="302"/>
			<point x="622" y="211" type="curve" smooth="yes"/>
			<point x="622" y="120"/>
			<point x="554" y="54"/>
			<point x="460" y="54" type="curve" smooth="yes"/>
			<point x="400" y="54"/>
			<point x="345" y="78"/>
			<point x="300" y="126" type="curve"/>
		</contour>
	</outline>
</glyph>
<glyph name="guilsinglright" format="2">
	<unicode hex="203A"/>
	<advance width="289"/>
	<outline>
		<contour>
			<point x="124" y="458" type="line"/>
			<point x="41" y="458" type="line"/>
			<point x="176" y="246" type="line"/>
			<point x="41" y="34" type="line"/>
			<point x="124" y="34" type="line"/>
			<point x="259" y="246" type="line"/>
		</contour>
	</outline>
</glyph>
<glyph name="fraction" format="2">
	<unicode hex="2044"/>
	<advance width="184"/>
	<outline>
		<contour>
			<point x="-90" y="0" type="line"/>
			<point x="358" y="715" type="line"/>
			<point x="274" y="715" type="line"/>
			<point x="-174" y="0" type="line"/>
		</contour>
	</outline>
</glyph>
<glyph name="dong" format="2">
	<unicode hex="20AB"/>
	<advance width="637"/>
	<outline>
		<contour>
			<point x="287" y="132" type="curve" smooth="yes"/>
			<point x="386" y="132"/>
			<point x="456" y="206"/>
			<point x="446" y="299" type="curve"/>
			<point x="429" y="317" type="line"/>
			<point x="422" y="248"/>
			<point x="369" y="198"/>
			<point x="301" y="198" type="curve" smooth="yes"/>
			<point x="228" y="198"/>
			<point x="178" y="257"/>
			<point x="178" y="342" type="curve" smooth="yes"/>
			<point x="178" y="427"/>
			<point x="229" y="485"/>
			<point x="300" y="485" type="curve" smooth="yes"/>
			<point x="375" y="485"/>
			<point x="427" y="422"/>
			<point x="427" y="332" type="curve" smooth="yes"/>
			<point x="427" y="249" type="line"/>
			<point x="428" y="247" type="line"/>
			<point x="428" y="145" type="line"/>
			<point x="503" y="145" type="line"/>
			<point x="503" y="715" type="line"/>
			<point x="427" y="715" type="line"/>
			<point x="427" y="417" type="line"/>
			<point x="443" y="417" type="line"/>
			<point x="431" y="496"/>
			<point x="366" y="550"/>
			<point x="285" y="550" type="curve" smooth="yes"/>
			<point x="179" y="550"/>
			<point x="98" y="459"/>
			<point x="98" y="340" type="curve" smooth="yes"/>
			<point x="98" y="221"/>
			<point x="179" y="132"/>
		</contour>
		<contour>
			<point x="94" y="1" type="line"/>
			<point x="503" y="1" type="line"/>
			<point x="503" y="62" type="line"/>
			<point x="94" y="62" type="line"/>
		</contour>
		<contour>
			<point x="310" y="600" type="line"/>
			<point x="572" y="600" type="line"/>
			<point x="572" y="654" type="line"/>
			<point x="310" y="654" type="line"/>
		</contour>
	</outline>
</glyph>
<glyph name="Euro" format="2">
	<unicode hex="20AC"/>
	<advance width="632"/>
	<outline>
		<contour>
			<point x="556" y="163" type="line"/>
			<point x="509" y="93"/>
			<point x="449" y="54"/>
			<point x="377" y="54" type="curve" smooth="yes"/>
			<point x="248" y="54"/>
			<point x="168" y="172"/>
			<point x="168" y="356" type="curve" smooth="yes"/>
			<point x="168" y="544"/>
			<point x="246" y="661"/>
			<point x="378" y="661" type="curve" smooth="yes"/>
			<point x="446" y="661"/>
			<point x="507" y="623"/>
			<point x="556" y="551" type="curve"/>
			<point x="610" y="601" type="line"/>
			<point x="551" y="685"/>
			<point x="468" y="731"/>
			<point x="378" y="731" type="curve" smooth="yes"/>
			<point x="207" y="731"/>
			<point x="87" y="577"/>
			<point x="87" y="356" type="curve" smooth="yes"/>
			<point x="87" y="137"/>
			<point x="206" y="-16"/>
			<point x="376" y="-16" type="curve" smooth="yes"/>
			<point x="467" y="-16"/>
			<point x="551" y="31"/>
			<point x="608" y="114" type="curve"/>
		</contour>
		<contour>
			<point x="437" y="246" type="line"/>
			<point x="449" y="312" type="line"/>
			<point x="24" y="312" type="line"/>
			<point x="24" y="246" type="line"/>
		</contour>
		<contour>
			<point x="465" y="406" type="line"/>
			<point x="477" y="472" type="line"/>
			<point x="24" y="472" type="line"/>
			<point x="24" y="406" type="line"/>
		</contour>
	</outline>
</glyph>
<glyph name="hryvnia" format="2">
	<unicode hex="20B4"/>
	<advance width="632"/>
	<outline>
		<contour>
			<point x="318" y="-16" type="curve" smooth="yes"/>
			<point x="417" y="-16"/>
			<point x="501" y="21"/>
			<point x="563" y="91" type="curve"/>
			<point x="511" y="146" type="line"/>
			<point x="463" y="85"/>
			<point x="398" y="54"/>
			<point x="319" y="54" type="curve" smooth="yes"/>
			<point x="224" y="54"/>
			<point x="169" y="87"/>
			<point x="169" y="143" type="curve" smooth="yes"/>
			<point x="169" y="217"/>
			<point x="240" y="266"/>
			<point x="346" y="344" type="curve" smooth="yes"/>
			<point x="381" y="370" type="line" smooth="yes"/>
			<point x="510" y="466"/>
			<point x="545" y="505"/>
			<point x="545" y="574" type="curve" smooth="yes"/>
			<point x="545" y="670"/>
			<point x="464" y="731"/>
			<point x="335" y="731" type="curve" smooth="yes"/>
			<point x="244" y="731"/>
			<point x="163" y="695"/>
			<point x="108" y="628" type="curve"/>
			<point x="160" y="576" type="line"/>
			<point x="200" y="632"/>
			<point x="258" y="661"/>
			<point x="329" y="661" type="curve" smooth="yes"/>
			<point x="414" y="661"/>
			<point x="465" y="627"/>
			<point x="465" y="570" type="curve" smooth="yes"/>
			<point x="465" y="515"/>
			<point x="409" y="474"/>
			<point x="341" y="423" type="curve" smooth="yes"/>
			<point x="306" y="397" type="line" smooth="yes"/>
			<point x="128" y="265"/>
			<point x="89" y="214"/>
			<point x="89" y="140" type="curve" smooth="yes"/>
			<point x="89" y="38"/>
			<point x="169" y="-16"/>
		</contour>
		<contour>
			<point x="41" y="246" type="line"/>
			<point x="591" y="246" type="line"/>
			<point x="591" y="312" type="line"/>
			<point x="41" y="312" type="line"/>
		</contour>
		<contour>
			<point x="41" y="406" type="line"/>
			<point x="591" y="406" type="line"/>
			<point x="591" y="472" type="line"/>
			<point x="41" y="472" type="line"/>
		</contour>
	</outline>
</glyph>
<glyph name="rupeeindian" format="2">
	<unicode hex="20B9"/>
	<advance width="632"/>
	<outline>
		<contour>
			<point x="55" y="648" type="line"/>
			<point x="282" y="648" type="line" smooth="yes"/>
			<point x="370" y="648"/>
			<point x="425" y="597"/>
			<point x="425" y="515" type="curve" smooth="yes"/>
			<point x="425" y="432"/>
			<point x="371" y="382"/>
			<point x="282" y="382" type="curve" smooth="yes"/>
			<point x="56" y="382" type="line"/>
			<point x="56" y="315" type="line"/>
			<point x="282" y="315" type="line" smooth="yes"/>
			<point x="417" y="315"/>
			<point x="506" y="395"/>
			<point x="506" y="515" type="curve" smooth="yes"/>
			<point x="506" y="623"/>
			<point x="417" y="695"/>
			<point x="282" y="695" type="curve" smooth="yes"/>
			<point x="55" y="695" type="line"/>
		</contour>
		<contour>
			<point x="579" y="0" type="line"/>
			<point x="164" y="322" type="line"/>
			<point x="56" y="315" type="line"/>
			<point x="452" y="0" type="line"/>
		</contour>
		<contour>
			<point x="556" y="482" type="line"/>
			<point x="569" y="549" type="line"/>
			<point x="55" y="549" type="line"/>
			<point x="55" y="482" type="line"/>
		</contour>
		<contour>
			<point x="585" y="648" type="line"/>
			<point x="597" y="715" type="line"/>
			<point x="55" y="715" type="line"/>
			<point x="55" y="648" type="line"/>
		</contour>
	</outline>
</glyph>
<glyph name="ruble" format="2">
	<unicode hex="20BD"/>
	<advance width="632"/>
	<outline>
		<contour>
			<point x="230" y="0" type="line"/>
			<point x="230" y="649" type="line"/>
			<point x="376" y="649" type="line" smooth="yes"/>
			<point x="465" y="649"/>
			<point x="521" y="598"/>
			<point x="521" y="515" type="curve" smooth="yes"/>
			<point x="521" y="432"/>
			<point x="466" y="380"/>
			<point x="376" y="380" type="curve" smooth="yes"/>
			<point x="39" y="380" type="line"/>
			<point x="39" y="314" type="line"/>
			<point x="376" y="314" type="line" smooth="yes"/>
			<point x="511" y="314"/>
			<point x="600" y="394"/>
			<point x="600" y="515" type="curve" smooth="yes"/>
			<point x="600" y="635"/>
			<point x="511" y="715"/>
			<point x="376" y="715" type="curve" smooth="yes"/>
			<point x="153" y="715" type="line"/>
			<point x="153" y="0" type="line"/>
		</contour>
		<contour>
			<point x="452" y="201" type="line"/>
			<point x="39" y="201" type="line"/>
			<point x="39" y="135" type="line"/>
			<point x="452" y="135" type="line"/>
		</contour>
	</outline>
</glyph>
<glyph name="trademark" format="2">
	<unicode hex="2122"/>
	<advance width="820"/>
	<outline>
		<contour>
			<point x="209" y="316" type="line"/>
			<point x="209" y="668" type="line"/>
			<point x="148" y="668" type="line"/>
			<point x="148" y="316" type="line"/>
		</contour>
		<contour>
			<point x="332" y="663" type="line"/>
			<point x="332" y="715" type="line"/>
			<point x="25" y="715" type="line"/>
			<point x="25" y="663" type="line"/>
		</contour>
		<contour>
			<point x="612" y="355" type="line"/>
			<point x="764" y="684" type="line"/>
			<point x="734" y="685" type="line"/>
			<point x="734" y="316" type="line"/>
			<point x="795" y="316" type="line"/>
			<point x="795" y="715" type="line"/>
			<point x="721" y="715" type="line"/>
			<point x="576" y="394" type="line"/>
			<point x="604" y="394" type="line"/>
			<point x="459" y="715" type="line"/>
			<point x="384" y="715" type="line"/>
			<point x="384" y="316" type="line"/>
			<point x="444" y="316" type="line"/>
			<point x="444" y="685" type="line"/>
			<point x="415" y="684" type="line"/>
			<point x="567" y="355" type="line"/>
		</contour>
	</outline>
</glyph>
<glyph name="upTipRightArrow" format="2">
	<unicode hex="21B1"/>
	<advance width="931"/>
	<outline>
		<contour>
			<point x="100" y="0" type="line"/>
			<point x="174" y="0" type="line"/>
			<point x="174" y="210" type="line"/>
			<point x="738" y="210" type="line"/>
			<point x="738" y="282" type="line"/>
			<point x="100" y="282" type="line"/>
		</contour>
		<contour>
			<point x="471" y="0" type="line"/>
			<point x="575" y="0" type="line"/>
			<point x="831" y="246" type="line"/>
			<point x="575" y="492" type="line"/>
			<point x="471" y="492" type="line"/>
			<point x="723" y="246" type="line"/>
		</contour>
	</outline>
</glyph>
<glyph name="De.loclBGR" format="2">
	<advance width="781"/>
	<outline>
		<contour>
			<point x="50" y="-174" type="line"/>
			<point x="128" y="-174" type="line"/>
			<point x="128" y="25" type="line"/>
			<point x="103" y="0" type="line"/>
			<point x="678" y="0" type="line"/>
			<point x="653" y="25" type="line"/>
			<point x="653" y="-174" type="line"/>
			<point x="731" y="-174" type="line"/>
			<point x="731" y="71" type="line"/>
			<point x="50" y="71" type="line"/>
		</contour>
		<contour>
			<point x="85" y="20" type="line"/>
			<point x="165" y="20" type="line"/>
			<point x="393" y="624" type="line"/>
			<point x="385" y="624" type="line"/>
			<point x="614" y="20" type="line"/>
			<point x="697" y="20" type="line"/>
			<point x="433" y="715" type="line"/>
			<point x="348" y="715" type="line"/>
		</contour>
	</outline>
</glyph>
<glyph name="Ef.loclBGR" format="2">
	<advance width="837"/>
	<outline>
		<contour>
			<point x="419" y="54" type="curve" smooth="yes"/>
			<point x="646" y="54"/>
			<point x="772" y="162"/>
			<point x="772" y="358" type="curve" smooth="yes"/>
			<point x="772" y="553"/>
			<point x="647" y="661"/>
			<point x="419" y="661" type="curve" smooth="yes"/>
			<point x="191" y="661"/>
			<point x="65" y="554"/>
			<point x="65" y="358" type="curve" smooth="yes"/>
			<point x="65" y="162"/>
			<point x="190" y="54"/>
		</contour>
		<contour>
			<point x="419" y="126" type="curve" smooth="yes"/>
			<point x="239" y="126"/>
			<point x="146" y="205"/>
			<point x="146" y="358" type="curve" smooth="yes"/>
			<point x="146" y="513"/>
			<point x="236" y="589"/>
			<point x="419" y="589" type="curve" smooth="yes"/>
			<point x="599" y="589"/>
			<point x="690" y="512"/>
			<point x="690" y="358" type="curve" smooth="yes"/>
			<point x="690" y="203"/>
			<point x="600" y="126"/>
		</contour>
		<contour>
			<point x="379" y="-50" type="line"/>
			<point x="458" y="-50" type="line"/>
			<point x="458" y="69" type="line"/>
			<point x="455" y="113" type="line"/>
			<point x="455" y="603" type="line"/>
			<point x="458" y="642" type="line"/>
			<point x="458" y="765" type="line"/>
			<point x="379" y="765" type="line"/>
			<point x="379" y="642" type="line"/>
			<point x="382" y="603" type="line"/>
			<point x="382" y="113" type="line"/>
			<point x="379" y="69" type="line"/>
		</contour>
	</outline>
</glyph>
<glyph name="El.loclBGR" format="2">
	<advance width="693"/>
	<outline>
		<contour>
			<point x="35" y="0" type="line"/>
			<point x="118" y="0" type="line"/>
			<point x="349" y="621" type="line"/>
			<point x="341" y="621" type="line"/>
			<point x="572" y="0" type="line"/>
			<point x="658" y="0" type="line"/>
			<point x="389" y="715" type="line"/>
			<point x="304" y="715" type="line"/>
		</contour>
	</outline>
</glyph>
<glyph name="be.loclMKDSRB" format="2">
	<advance width="580"/>
	<outline>
		<contour>
			<point x="293" y="-16" type="curve" smooth="yes"/>
			<point x="429" y="-16"/>
			<point x="526" y="87"/>
			<point x="526" y="230" type="curve" smooth="yes"/>
			<point x="526" y="340"/>
			<point x="466" y="426"/>
			<point x="351" y="479" type="curve" smooth="yes"/>
			<point x="233" y="533" type="line" smooth="yes"/>
			<point x="207" y="545"/>
			<point x="196" y="560"/>
			<point x="196" y="582" type="curve" smooth="yes"/>
			<point x="196" y="612"/>
			<point x="217" y="626"/>
			<point x="268" y="631" type="curve" smooth="yes"/>
			<point x="476" y="652" type="line"/>
			<point x="469" y="720" type="line"/>
			<point x="261" y="700" type="line" smooth="yes"/>
			<point x="166" y="691"/>
			<point x="115" y="650"/>
			<point x="115" y="582" type="curve" smooth="yes"/>
			<point x="115" y="536"/>
			<point x="148" y="495"/>
			<point x="207" y="468" type="curve" smooth="yes"/>
			<point x="314" y="419" type="line" smooth="yes"/>
			<point x="399" y="380"/>
			<point x="445" y="324"/>
			<point x="445" y="227" type="curve" smooth="yes"/>
			<point x="445" y="124"/>
			<point x="382" y="51"/>
			<point x="290" y="51" type="curve" smooth="yes"/>
			<point x="196" y="51"/>
			<point x="135" y="119"/>
			<point x="135" y="220" type="curve" smooth="yes"/>
			<point x="135" y="326"/>
			<point x="209" y="414"/>
			<point x="313" y="434" type="curve"/>
			<point x="281" y="479" type="line"/>
			<point x="141" y="448"/>
			<point x="54" y="348"/>
			<point x="54" y="217" type="curve" smooth="yes"/>
			<point x="54" y="77"/>
			<point x="149" y="-16"/>
		</contour>
	</outline>
</glyph>
<glyph name="brevecomb.cap" format="2">
	<outline>
		<contour>
			<point x="0" y="795" type="curve" smooth="yes"/>
			<point x="83" y="795"/>
			<point x="145" y="851"/>
			<point x="153" y="934" type="curve"/>
			<point x="89" y="934" type="line"/>
			<point x="83" y="884"/>
			<point x="48" y="855"/>
			<point x="0" y="855" type="curve" smooth="yes"/>
			<point x="-48" y="855"/>
			<point x="-83" y="884"/>
			<point x="-89" y="934" type="curve"/>
			<point x="-153" y="934" type="line"/>
			<point x="-145" y="851"/>
			<point x="-84" y="795"/>
		</contour>
	</outline>
	<anchor name="_top.UC" x="0" y="750"/>
	<anchor name="top.UC" x="1" y="905"/>
</glyph>
<glyph name="brevecomb.cyrl.cap" format="2">
	<outline>
		<contour>
			<point x="0" y="582" type="curve" smooth="yes"/>
			<point x="95" y="582"/>
			<point x="161" y="630"/>
			<point x="169" y="714" type="curve"/>
			<point x="98" y="714" type="line"/>
			<point x="90" y="659"/>
			<point x="55" y="633"/>
			<point x="0" y="633" type="curve" smooth="yes"/>
			<point x="-56" y="633"/>
			<point x="-91" y="659"/>
			<point x="-99" y="714" type="curve"/>
			<point x="-170" y="714" type="line"/>
			<point x="-162" y="630"/>
			<point x="-96" y="582"/>
		</contour>
	</outline>
	<anchor name="_top.UC" x="0" y="544"/>
</glyph>
<glyph name="brevecomb.cyrl" format="2">
	<outline>
		<contour>
			<point x="0" y="583" type="curve" smooth="yes"/>
			<point x="89" y="583"/>
			<point x="155" y="631"/>
			<point x="163" y="714" type="curve"/>
			<point x="94" y="714" type="line"/>
			<point x="86" y="658"/>
			<point x="51" y="632"/>
			<point x="0" y="632" type="curve" smooth="yes"/>
			<point x="-51" y="632"/>
			<point x="-87" y="658"/>
			<point x="-95" y="714" type="curve"/>
			<point x="-164" y="714" type="line"/>
			<point x="-156" y="631"/>
			<point x="-90" y="583"/>
		</contour>
	</outline>
	<anchor name="_top.LC" x="0" y="544"/>
</glyph>
<glyph name="brevegravecomb.cap" format="2">
	<outline>
		<contour>
			<point x="0" y="795" type="curve" smooth="yes"/>
			<point x="83" y="795"/>
			<point x="145" y="851"/>
			<point x="153" y="934" type="curve"/>
			<point x="89" y="934" type="line"/>
			<point x="83" y="884"/>
			<point x="48" y="855"/>
			<point x="0" y="855" type="curve" smooth="yes"/>
			<point x="-48" y="855"/>
			<point x="-83" y="884"/>
			<point x="-89" y="934" type="curve"/>
			<point x="-153" y="934" type="line"/>
			<point x="-145" y="851"/>
			<point x="-84" y="795"/>
		</contour>
		<contour>
			<point x="-17" y="929" type="line"/>
			<point x="47" y="929" type="line"/>
			<point x="-53" y="1076" type="line"/>
			<point x="-141" y="1076" type="line"/>
		</contour>
	</outline>
	<anchor name="_top.UC" x="0" y="750"/>
</glyph>
<glyph name="brevegravecomb" format="2">
	<outline>
		<contour>
			<point x="0" y="582" type="curve" smooth="yes"/>
			<point x="75" y="582"/>
			<point x="136" y="641"/>
			<point x="144" y="732" type="curve"/>
			<point x="82" y="732" type="line"/>
			<point x="75" y="671"/>
			<point x="42" y="639"/>
			<point x="0" y="639" type="curve" smooth="yes"/>
			<point x="-41" y="639"/>
			<point x="-74" y="671"/>
			<point x="-82" y="732" type="curve"/>
			<point x="-143" y="732" type="line"/>
			<point x="-135" y="641"/>
			<point x="-75" y="582"/>
		</contour>
		<contour>
			<point x="-21" y="726" type="line"/>
			<point x="43" y="726" type="line"/>
			<point x="-58" y="867" type="line"/>
			<point x="-147" y="867" type="line"/>
		</contour>
	</outline>
	<anchor name="_top.LC" x="0" y="544"/>
</glyph>
<glyph name="brevehookabovecomb.cap" format="2">
	<outline>
		<contour>
			<point x="0" y="795" type="curve" smooth="yes"/>
			<point x="83" y="795"/>
			<point x="145" y="851"/>
			<point x="153" y="934" type="curve"/>
			<point x="89" y="934" type="line"/>
			<point x="83" y="884"/>
			<point x="48" y="855"/>
			<point x="0" y="855" type="curve" smooth="yes"/>
			<point x="-48" y="855"/>
			<point x="-83" y="884"/>
			<point x="-89" y="934" type="curve"/>
			<point x="-153" y="934" type="line"/>
			<point x="-145" y="851"/>
			<point x="-84" y="795"/>
		</contour>
		<contour>
			<point x="-15" y="909" type="line"/>
			<point x="48" y="935"/>
			<point x="83" y="976"/>
			<point x="83" y="1022" type="curve" smooth="yes"/>
			<point x="83" y="1071"/>
			<point x="43" y="1109"/>
			<point x="-10" y="1109" type="curve" smooth="yes"/>
			<point x="-44" y="1109"/>
			<point x="-73" y="1097"/>
			<point x="-98" y="1074" type="curve"/>
			<point x="-66" y="1032" type="line"/>
			<point x="-48" y="1047"/>
			<point x="-32" y="1055"/>
			<point x="-18" y="1055" type="curve" smooth="yes"/>
			<point x="6" y="1055"/>
			<point x="20" y="1042"/>
			<point x="20" y="1018" type="curve" smooth="yes"/>
			<point x="20" y="993"/>
			<point x="0" y="971"/>
			<point x="-36" y="952" type="curve"/>
		</contour>
	</outline>
	<anchor name="_top.UC" x="0" y="750"/>
</glyph>
<glyph name="brevehookabovecomb" format="2">
	<outline>
		<contour>
			<point x="0" y="582" type="curve" smooth="yes"/>
			<point x="75" y="582"/>
			<point x="136" y="641"/>
			<point x="144" y="732" type="curve"/>
			<point x="82" y="732" type="line"/>
			<point x="75" y="671"/>
			<point x="42" y="639"/>
			<point x="0" y="639" type="curve" smooth="yes"/>
			<point x="-41" y="639"/>
			<point x="-74" y="671"/>
			<point x="-82" y="732" type="curve"/>
			<point x="-143" y="732" type="line"/>
			<point x="-135" y="641"/>
			<point x="-75" y="582"/>
		</contour>
		<contour>
			<point x="-16" y="696" type="line"/>
			<point x="47" y="721"/>
			<point x="81" y="760"/>
			<point x="81" y="802" type="curve" smooth="yes"/>
			<point x="81" y="850"/>
			<point x="40" y="887"/>
			<point x="-11" y="887" type="curve" smooth="yes"/>
			<point x="-45" y="887"/>
			<point x="-73" y="876"/>
			<point x="-98" y="853" type="curve"/>
			<point x="-67" y="811" type="line"/>
			<point x="-50" y="826"/>
			<point x="-33" y="834"/>
			<point x="-18" y="834" type="curve" smooth="yes"/>
			<point x="5" y="834"/>
			<point x="19" y="822"/>
			<point x="19" y="799" type="curve" smooth="yes"/>
			<point x="19" y="776"/>
			<point x="-1" y="756"/>
			<point x="-36" y="739" type="curve"/>
		</contour>
	</outline>
	<anchor name="_top.LC" x="0" y="544"/>
</glyph>
<glyph name="brevetildecomb.cap" format="2">
	<outline>
		<contour>
			<point x="0" y="795" type="curve" smooth="yes"/>
			<point x="83" y="795"/>
			<point x="145" y="851"/>
			<point x="153" y="934" type="curve"/>
			<point x="89" y="934" type="line"/>
			<point x="83" y="885"/>
			<point x="49" y="855"/>
			<point x="0" y="855" type="curve" smooth="yes"/>
			<point x="-49" y="855"/>
			<point x="-83" y="885"/>
			<point x="-89" y="934" type="curve"/>
			<point x="-153" y="934" type="line"/>
			<point x="-145" y="851"/>
			<point x="-84" y="795"/>
		</contour>
		<contour>
			<point x="-102" y="964" type="line"/>
			<point x="-98" y="997"/>
			<point x="-83" y="1019"/>
			<point x="-63" y="1019" type="curve" smooth="yes"/>
			<point x="-55" y="1019"/>
			<point x="-62" y="1023"/>
			<point x="-4" y="988" type="curve" smooth="yes"/>
			<point x="25" y="969"/>
			<point x="47" y="962"/>
			<point x="71" y="962" type="curve" smooth="yes"/>
			<point x="116" y="962"/>
			<point x="153" y="997"/>
			<point x="162" y="1050" type="curve"/>
			<point x="103" y="1076" type="line"/>
			<point x="99" y="1043"/>
			<point x="84" y="1021"/>
			<point x="64" y="1021" type="curve" smooth="yes"/>
			<point x="54" y="1021"/>
			<point x="47" y="1025"/>
			<point x="20" y="1042" type="curve" smooth="yes"/>
			<point x="-25" y="1070"/>
			<point x="-44" y="1078"/>
			<point x="-70" y="1078" type="curve" smooth="yes"/>
			<point x="-116" y="1078"/>
			<point x="-153" y="1042"/>
			<point x="-161" y="990" type="curve"/>
		</contour>
	</outline>
	<anchor name="_top.UC" x="0" y="750"/>
</glyph>
<glyph name="brevetildecomb" format="2">
	<outline>
		<contour>
			<point x="0" y="582" type="curve" smooth="yes"/>
			<point x="77" y="582"/>
			<point x="136" y="643"/>
			<point x="144" y="732" type="curve"/>
			<point x="82" y="732" type="line"/>
			<point x="75" y="674"/>
			<point x="44" y="639"/>
			<point x="0" y="639" type="curve" smooth="yes"/>
			<point x="-43" y="639"/>
			<point x="-74" y="674"/>
			<point x="-82" y="732" type="curve"/>
			<point x="-143" y="732" type="line"/>
			<point x="-135" y="643"/>
			<point x="-77" y="582"/>
		</contour>
		<contour>
			<point x="-88" y="771" type="line"/>
			<point x="-84" y="807"/>
			<point x="-72" y="827"/>
			<point x="-55" y="827" type="curve" smooth="yes"/>
			<point x="-48" y="827"/>
			<point x="-40" y="822"/>
			<point x="-25" y="810" type="curve" smooth="yes"/>
			<point x="12" y="780"/>
			<point x="31" y="771"/>
			<point x="60" y="771" type="curve" smooth="yes"/>
			<point x="102" y="771"/>
			<point x="130" y="802"/>
			<point x="139" y="857" type="curve"/>
			<point x="87" y="880" type="line"/>
			<point x="83" y="844"/>
			<point x="71" y="824"/>
			<point x="54" y="824" type="curve" smooth="yes"/>
			<point x="46" y="824"/>
			<point x="36" y="830"/>
			<point x="21" y="843" type="curve" smooth="yes"/>
			<point x="-10" y="870"/>
			<point x="-32" y="880"/>
			<point x="-60" y="880" type="curve" smooth="yes"/>
			<point x="-103" y="880"/>
			<point x="-131" y="850"/>
			<point x="-140" y="794" type="curve"/>
		</contour>
	</outline>
	<anchor name="_top.LC" x="0" y="544"/>
</glyph>
<glyph name="caroncomb.cap" format="2">
	<outline>
		<contour>
			<point x="-159" y="943" type="line"/>
			<point x="-34" y="799" type="line"/>
			<point x="34" y="799" type="line"/>
			<point x="159" y="943" type="line"/>
			<point x="84" y="943" type="line"/>
			<point x="-37" y="815" type="line"/>
			<point x="39" y="815" type="line"/>
			<point x="-83" y="943" type="line"/>
		</contour>
	</outline>
	<anchor name="_top.UC" x="0" y="750"/>
</glyph>
<glyph name="cedillacomb.cap" format="2">
	<outline>
		<contour>
			<point x="-101" y="-219" type="line"/>
			<point x="-79" y="-241"/>
			<point x="-46" y="-255"/>
			<point x="-10" y="-255" type="curve" smooth="yes"/>
			<point x="67" y="-255"/>
			<point x="108" y="-211"/>
			<point x="108" y="-154" type="curve" smooth="yes"/>
			<point x="108" y="-96"/>
			<point x="57" y="-54"/>
			<point x="-12" y="-54" type="curve"/>
			<point x="14" y="-74" type="line"/>
			<point x="28" y="10" type="line"/>
			<point x="-24" y="10" type="line"/>
			<point x="-49" y="-115" type="line"/>
			<point x="-37" y="-111"/>
			<point x="-26" y="-110"/>
			<point x="-14" y="-110" type="curve" smooth="yes"/>
			<point x="22" y="-110"/>
			<point x="43" y="-130"/>
			<point x="43" y="-155" type="curve" smooth="yes"/>
			<point x="43" y="-181"/>
			<point x="22" y="-199"/>
			<point x="-6" y="-199" type="curve" smooth="yes"/>
			<point x="-31" y="-199"/>
			<point x="-56" y="-187"/>
			<point x="-70" y="-170" type="curve"/>
		</contour>
	</outline>
	<anchor name="_bottom.UC" x="0" y="-50"/>
</glyph>
<glyph name="circumflexacutecomb" format="2">
	<outline>
		<contour>
			<point x="113" y="677" type="line"/>
			<point x="175" y="677" type="line"/>
			<point x="300" y="818" type="line"/>
			<point x="213" y="818" type="line"/>
		</contour>
		<contour>
			<point x="-145" y="587" type="line"/>
			<point x="-78" y="587" type="line"/>
			<point x="29" y="699" type="line"/>
			<point x="-28" y="699" type="line"/>
			<point x="79" y="587" type="line"/>
			<point x="149" y="587" type="line"/>
			<point x="35" y="725" type="line"/>
			<point x="-32" y="725" type="line"/>
		</contour>
	</outline>
	<anchor name="_top.LC" x="0" y="544"/>
</glyph>
<glyph name="circumflexgravecomb.cap" format="2">
	<outline>
		<contour>
			<point x="-146" y="799" type="line"/>
			<point x="-71" y="799" type="line"/>
			<point x="36" y="907" type="line"/>
			<point x="-35" y="907" type="line"/>
			<point x="72" y="799" type="line"/>
			<point x="148" y="799" type="line"/>
			<point x="34" y="933" type="line"/>
			<point x="-33" y="933" type="line"/>
		</contour>
		<contour>
			<point x="161" y="875" type="line"/>
			<point x="224" y="875" type="line"/>
			<point x="125" y="1022" type="line"/>
			<point x="36" y="1022" type="line"/>
		</contour>
	</outline>
	<anchor name="_top.UC" x="0" y="750"/>
</glyph>
<glyph name="circumflextildecomb.cap" format="2">
	<outline>
		<contour>
			<point x="-146" y="799" type="line"/>
			<point x="-71" y="799" type="line"/>
			<point x="36" y="907" type="line"/>
			<point x="-35" y="907" type="line"/>
			<point x="72" y="799" type="line"/>
			<point x="148" y="799" type="line"/>
			<point x="34" y="933" type="line"/>
			<point x="-33" y="933" type="line"/>
		</contour>
		<contour>
			<point x="-102" y="957" type="line"/>
			<point x="-98" y="989"/>
			<point x="-83" y="1012"/>
			<point x="-65" y="1012" type="curve" smooth="yes"/>
			<point x="-55" y="1012"/>
			<point x="-45" y="1007"/>
			<point x="-12" y="986" type="curve" smooth="yes"/>
			<point x="20" y="965"/>
			<point x="46" y="955"/>
			<point x="71" y="955" type="curve" smooth="yes"/>
			<point x="116" y="955"/>
			<point x="153" y="990"/>
			<point x="162" y="1043" type="curve"/>
			<point x="103" y="1069" type="line"/>
			<point x="99" y="1035"/>
			<point x="83" y="1014"/>
			<point x="62" y="1014" type="curve" smooth="yes"/>
			<point x="54" y="1014"/>
			<point x="47" y="1018"/>
			<point x="20" y="1034" type="curve" smooth="yes"/>
			<point x="-26" y="1063"/>
			<point x="-45" y="1071"/>
			<point x="-67" y="1071" type="curve" smooth="yes"/>
			<point x="-115" y="1071"/>
			<point x="-153" y="1036"/>
			<point x="-161" y="983" type="curve"/>
		</contour>
	</outline>
	<anchor name="_top.UC" x="0" y="750"/>
</glyph>
<glyph name="circumflextildecomb" format="2">
	<outline>
		<contour>
			<point x="-145" y="587" type="line"/>
			<point x="-78" y="587" type="line"/>
			<point x="29" y="699" type="line"/>
			<point x="-28" y="699" type="line"/>
			<point x="79" y="587" type="line"/>
			<point x="149" y="587" type="line"/>
			<point x="35" y="725" type="line"/>
			<point x="-32" y="725" type="line"/>
		</contour>
		<contour>
			<point x="-86" y="753" type="line"/>
			<point x="-81" y="789"/>
			<point x="-69" y="809"/>
			<point x="-53" y="809" type="curve" smooth="yes"/>
			<point x="-45" y="809"/>
			<point x="-37" y="805"/>
			<point x="-22" y="792" type="curve" smooth="yes"/>
			<point x="16" y="762"/>
			<point x="33" y="753"/>
			<point x="59" y="753" type="curve" smooth="yes"/>
			<point x="104" y="753"/>
			<point x="133" y="783"/>
			<point x="141" y="839" type="curve"/>
			<point x="90" y="862" type="line"/>
			<point x="86" y="828"/>
			<point x="74" y="806"/>
			<point x="58" y="806" type="curve" smooth="yes"/>
			<point x="49" y="806"/>
			<point x="41" y="811"/>
			<point x="24" y="825" type="curve" smooth="yes"/>
			<point x="-7" y="852"/>
			<point x="-29" y="862"/>
			<point x="-55" y="862" type="curve" smooth="yes"/>
			<point x="-99" y="862"/>
			<point x="-128" y="832"/>
			<point x="-137" y="776" type="curve"/>
		</contour>
	</outline>
	<anchor name="_top.LC" x="0" y="544"/>
</glyph>
<glyph name="dotaccentcomb.cap" format="2">
	<outline>
		<contour>
			<point x="0" y="809" type="curve" smooth="yes"/>
			<point x="32" y="809"/>
			<point x="56" y="833"/>
			<point x="56" y="865" type="curve" smooth="yes"/>
			<point x="56" y="898"/>
			<point x="32" y="922"/>
			<point x="0" y="922" type="curve" smooth="yes"/>
			<point x="-32" y="922"/>
			<point x="-55" y="898"/>
			<point x="-55" y="865" type="curve" smooth="yes"/>
			<point x="-55" y="833"/>
			<point x="-32" y="809"/>
		</contour>
	</outline>
	<anchor name="_top.UC" x="0" y="750"/>
</glyph>
<glyph name="el.loclBGR" format="2">
	<advance width="562"/>
	<outline>
		<contour>
			<point x="32" y="0" type="line"/>
			<point x="111" y="0" type="line"/>
			<point x="289" y="426" type="line"/>
			<point x="269" y="426" type="line"/>
			<point x="446" y="0" type="line"/>
			<point x="530" y="0" type="line"/>
			<point x="319" y="492" type="line"/>
			<point x="243" y="492" type="line"/>
		</contour>
	</outline>
</glyph>
<glyph name="exclamdown.case" format="2">
	<advance width="242"/>
	<outline>
		<contour>
			<point x="95" y="499" type="line"/>
			<point x="91" y="430"/>
			<point x="75" y="47"/>
			<point x="75" y="27" type="curve" smooth="yes"/>
			<point x="75" y="-8"/>
			<point x="94" y="-28"/>
			<point x="121" y="-28" type="curve"/>
			<point x="146" y="-28"/>
			<point x="167" y="-8"/>
			<point x="167" y="27" type="curve" smooth="yes"/>
			<point x="167" y="47"/>
			<point x="151" y="430"/>
			<point x="147" y="499" type="curve"/>
		</contour>
		<contour>
			<point x="121" y="715" type="curve" smooth="yes"/>
			<point x="88" y="715"/>
			<point x="63" y="689"/>
			<point x="63" y="656" type="curve" smooth="yes"/>
			<point x="63" y="623"/>
			<point x="88" y="597"/>
			<point x="121" y="597" type="curve" smooth="yes"/>
			<point x="154" y="597"/>
			<point x="179" y="623"/>
			<point x="179" y="656" type="curve" smooth="yes"/>
			<point x="179" y="689"/>
			<point x="154" y="715"/>
		</contour>
	</outline>
</glyph>
<glyph name="five.dnom" format="2">
	<advance width="378"/>
	<outline>
		<contour>
			<point x="39" y="72" type="line"/>
			<point x="74" y="19"/>
			<point x="124" y="-9"/>
			<point x="186" y="-9" type="curve" smooth="yes"/>
			<point x="270" y="-9"/>
			<point x="334" y="52"/>
			<point x="334" y="134" type="curve" smooth="yes"/>
			<point x="334" y="212"/>
			<point x="276" y="269"/>
			<point x="196" y="269" type="curve" smooth="yes"/>
			<point x="141" y="269"/>
			<point x="100" y="235"/>
			<point x="87" y="179" type="curve"/>
			<point x="113" y="177" type="line"/>
			<point x="131" y="199"/>
			<point x="155" y="212"/>
			<point x="189" y="212" type="curve" smooth="yes"/>
			<point x="233" y="212"/>
			<point x="266" y="178"/>
			<point x="266" y="134" type="curve" smooth="yes"/>
			<point x="266" y="86"/>
			<point x="232" y="48"/>
			<point x="186" y="48" type="curve" smooth="yes"/>
			<point x="143" y="48"/>
			<point x="114" y="68"/>
			<point x="84" y="115" type="curve"/>
		</contour>
		<contour>
			<point x="306" y="351" type="line"/>
			<point x="306" y="408" type="line"/>
			<point x="78" y="408" type="line"/>
			<point x="51" y="177" type="line"/>
			<point x="113" y="177" type="line"/>
			<point x="136" y="382" type="line"/>
			<point x="118" y="351" type="line"/>
		</contour>
	</outline>
</glyph>
<glyph name="ghe.loclBGR" format="2">
	<advance width="502"/>
	<outline>
		<contour>
			<point x="253" y="-16" type="curve" smooth="yes"/>
			<point x="337" y="-16"/>
			<point x="406" y="14"/>
			<point x="467" y="77" type="curve"/>
			<point x="416" y="130" type="line"/>
			<point x="370" y="77"/>
			<point x="313" y="49"/>
			<point x="250" y="49" type="curve" smooth="yes"/>
			<point x="179" y="49"/>
			<point x="128" y="84"/>
			<point x="128" y="134" type="curve" smooth="yes"/>
			<point x="128" y="181"/>
			<point x="156" y="199"/>
			<point x="260" y="223" type="curve" smooth="yes"/>
			<point x="402" y="256"/>
			<point x="447" y="289"/>
			<point x="447" y="362" type="curve" smooth="yes"/>
			<point x="447" y="451"/>
			<point x="374" y="508"/>
			<point x="259" y="508" type="curve" smooth="yes"/>
			<point x="176" y="508"/>
			<point x="110" y="478"/>
			<point x="56" y="415" type="curve"/>
			<point x="105" y="361" type="line"/>
			<point x="148" y="416"/>
			<point x="199" y="443"/>
			<point x="260" y="443" type="curve" smooth="yes"/>
			<point x="325" y="443"/>
			<point x="369" y="411"/>
			<point x="369" y="364" type="curve" smooth="yes"/>
			<point x="369" y="324"/>
			<point x="341" y="307"/>
			<point x="246" y="288" type="curve" smooth="yes"/>
			<point x="98" y="258"/>
			<point x="50" y="222"/>
			<point x="50" y="142" type="curve" smooth="yes"/>
			<point x="50" y="48"/>
			<point x="132" y="-16"/>
		</contour>
	</outline>
</glyph>
<glyph name="gravecomb.narrow" format="2">
	<outline>
		<contour>
			<point x="-16" y="587" type="line"/>
			<point x="49" y="587" type="line"/>
			<point x="-39" y="761" type="line"/>
			<point x="-124" y="761" type="line"/>
		</contour>
	</outline>
	<anchor name="_top.LC" x="0" y="544"/>
</glyph>
<glyph name="hungarumlautcomb.cap" format="2">
	<outline>
		<contour>
			<point x="109" y="953" type="line"/>
			<point x="12" y="953" type="line"/>
			<point x="-130" y="789" type="line"/>
			<point x="-53" y="789" type="line"/>
		</contour>
		<contour>
			<point x="278" y="953" type="line"/>
			<point x="181" y="953" type="line"/>
			<point x="37" y="789" type="line"/>
			<point x="113" y="789" type="line"/>
		</contour>
	</outline>
	<anchor name="_top.UC" x="0" y="750"/>
</glyph>
<glyph name="nine.dnom" format="2">
	<advance width="401"/>
	<outline>
		<contour>
			<point x="200" y="417" type="curve"/>
			<point x="114" y="417"/>
			<point x="49" y="356"/>
			<point x="49" y="276" type="curve" smooth="yes"/>
			<point x="49" y="200"/>
			<point x="111" y="140"/>
			<point x="190" y="140" type="curve" smooth="yes"/>
			<point x="233" y="140"/>
			<point x="269" y="166"/>
			<point x="288" y="211" type="curve"/>
			<point x="277" y="217" type="line"/>
			<point x="260" y="153"/>
			<point x="205" y="91"/>
			<point x="84" y="0" type="curve"/>
			<point x="178" y="0" type="line"/>
			<point x="292" y="89"/>
			<point x="350" y="179"/>
			<point x="350" y="266" type="curve" smooth="yes"/>
			<point x="350" y="355"/>
			<point x="289" y="417"/>
		</contour>
		<contour>
			<point x="200" y="359" type="curve"/>
			<point x="248" y="359"/>
			<point x="284" y="323"/>
			<point x="284" y="277" type="curve" smooth="yes"/>
			<point x="284" y="231"/>
			<point x="248" y="196"/>
			<point x="200" y="196" type="curve" smooth="yes"/>
			<point x="152" y="196"/>
			<point x="116" y="231"/>
			<point x="116" y="277" type="curve" smooth="yes"/>
			<point x="116" y="323"/>
			<point x="150" y="359"/>
		</contour>
	</outline>
</glyph>
<glyph name="questiondown.case" format="2">
	<advance width="571"/>
	<outline>
		<contour>
			<point x="284" y="499" type="line"/>
			<point x="283" y="430"/>
			<point x="266" y="394"/>
			<point x="196" y="342" type="curve" smooth="yes"/>
			<point x="108" y="276"/>
			<point x="76" y="231"/>
			<point x="76" y="148" type="curve" smooth="yes"/>
			<point x="76" y="42"/>
			<point x="159" y="-28"/>
			<point x="285" y="-28" type="curve" smooth="yes"/>
			<point x="376" y="-28"/>
			<point x="458" y="18"/>
			<point x="518" y="102" type="curve"/>
			<point x="464" y="151" type="line"/>
			<point x="416" y="76"/>
			<point x="357" y="38"/>
			<point x="286" y="38" type="curve" smooth="yes"/>
			<point x="204" y="38"/>
			<point x="152" y="82"/>
			<point x="152" y="151" type="curve" smooth="yes"/>
			<point x="152" y="212"/>
			<point x="172" y="248"/>
			<point x="231" y="290" type="curve" smooth="yes"/>
			<point x="325" y="357"/>
			<point x="347" y="402"/>
			<point x="337" y="499" type="curve"/>
		</contour>
		<contour>
			<point x="313" y="715" type="curve" smooth="yes"/>
			<point x="280" y="715"/>
			<point x="255" y="689"/>
			<point x="255" y="656" type="curve" smooth="yes"/>
			<point x="255" y="623"/>
			<point x="280" y="597"/>
			<point x="313" y="597" type="curve" smooth="yes"/>
			<point x="346" y="597"/>
			<point x="371" y="623"/>
			<point x="371" y="656" type="curve" smooth="yes"/>
			<point x="371" y="689"/>
			<point x="346" y="715"/>
		</contour>
	</outline>
</glyph>
<glyph name="seven.dnom" format="2">
	<advance width="387"/>
	<outline>
		<contour>
			<point x="334" y="408" type="line"/>
			<point x="53" y="408" type="line"/>
			<point x="53" y="350" type="line"/>
			<point x="263" y="350" type="line"/>
			<point x="59" y="0" type="line"/>
			<point x="131" y="0" type="line"/>
			<point x="334" y="350" type="line"/>
		</contour>
	</outline>
</glyph>
<glyph name="shcha.loclBGR" format="2">
	<advance width="926"/>
	<outline>
		<contour>
			<point x="260" y="-16" type="curve" smooth="yes"/>
			<point x="370" y="-16"/>
			<point x="443" y="64"/>
			<point x="450" y="192" type="curve"/>
			<point x="415" y="207" type="line"/>
			<point x="408" y="117"/>
			<point x="345" y="51"/>
			<point x="268" y="51" type="curve" smooth="yes"/>
			<point x="194" y="51"/>
			<point x="153" y="103"/>
			<point x="153" y="198" type="curve" smooth="yes"/>
			<point x="153" y="492" type="line"/>
			<point x="76" y="492" type="line"/>
			<point x="76" y="190" type="line" smooth="yes"/>
			<point x="76" y="59"/>
			<point x="143" y="-16"/>
		</contour>
		<contour>
			<point x="588" y="-16" type="curve" smooth="yes"/>
			<point x="695" y="-16"/>
			<point x="772" y="63"/>
			<point x="774" y="175" type="curve"/>
			<point x="752" y="212" type="line"/>
			<point x="744" y="119"/>
			<point x="681" y="51"/>
			<point x="601" y="51" type="curve" smooth="yes"/>
			<point x="527" y="51"/>
			<point x="486" y="104"/>
			<point x="486" y="198" type="curve" smooth="yes"/>
			<point x="486" y="492" type="line"/>
			<point x="409" y="492" type="line"/>
			<point x="409" y="190" type="line" smooth="yes"/>
			<point x="409" y="59"/>
			<point x="475" y="-16"/>
		</contour>
		<contour>
			<point x="808" y="-127" type="line"/>
			<point x="881" y="-127" type="line"/>
			<point x="881" y="65" type="line"/>
			<point x="870" y="65" type="line" smooth="yes"/>
			<point x="834" y="65"/>
			<point x="818" y="84"/>
			<point x="818" y="124" type="curve" smooth="yes"/>
			<point x="818" y="492" type="line"/>
			<point x="741" y="492" type="line"/>
			<point x="741" y="124" type="line"/>
			<point x="742" y="105" type="line" smooth="yes"/>
			<point x="746" y="38"/>
			<point x="783" y="0"/>
			<point x="845" y="0" type="curve"/>
			<point x="808" y="43" type="line"/>
		</contour>
	</outline>
</glyph>
<glyph name="six.dnom" format="2">
	<advance width="401"/>
	<outline>
		<contour>
			<point x="202" y="-9" type="curve" smooth="yes"/>
			<point x="288" y="-9"/>
			<point x="352" y="52"/>
			<point x="352" y="132" type="curve" smooth="yes"/>
			<point x="352" y="208"/>
			<point x="290" y="268"/>
			<point x="211" y="268" type="curve" smooth="yes"/>
			<point x="168" y="268"/>
			<point x="131" y="241"/>
			<point x="114" y="197" type="curve"/>
			<point x="125" y="191" type="line"/>
			<point x="141" y="254"/>
			<point x="196" y="316"/>
			<point x="317" y="408" type="curve"/>
			<point x="223" y="408" type="line"/>
			<point x="109" y="319"/>
			<point x="51" y="229"/>
			<point x="51" y="142" type="curve" smooth="yes"/>
			<point x="51" y="53"/>
			<point x="113" y="-9"/>
		</contour>
		<contour>
			<point x="202" y="49" type="curve"/>
			<point x="154" y="49"/>
			<point x="118" y="84"/>
			<point x="118" y="131" type="curve" smooth="yes"/>
			<point x="118" y="178"/>
			<point x="154" y="212"/>
			<point x="202" y="212" type="curve" smooth="yes"/>
			<point x="251" y="212"/>
			<point x="286" y="178"/>
			<point x="286" y="131" type="curve" smooth="yes"/>
			<point x="286" y="84"/>
			<point x="251" y="49"/>
		</contour>
	</outline>
</glyph>
<glyph name="soft.loclBGR" format="2">
	<advance width="490"/>
	<outline>
		<contour>
			<point x="277" y="-16" type="curve" smooth="yes"/>
			<point x="389" y="-16"/>
			<point x="475" y="62"/>
			<point x="475" y="165" type="curve" smooth="yes"/>
			<point x="475" y="271"/>
			<point x="401" y="343"/>
			<point x="292" y="343" type="curve" smooth="yes"/>
			<point x="219" y="343"/>
			<point x="152" y="297"/>
			<point x="137" y="238" type="curve"/>
			<point x="153" y="227" type="line"/>
			<point x="153" y="492" type="line"/>
			<point x="76" y="492" type="line"/>
			<point x="76" y="179" type="line" smooth="yes"/>
			<point x="76" y="59"/>
			<point x="153" y="-16"/>
		</contour>
		<contour>
			<point x="275" y="51" type="curve" smooth="yes"/>
			<point x="205" y="51"/>
			<point x="156" y="97"/>
			<point x="156" y="163" type="curve" smooth="yes"/>
			<point x="156" y="229"/>
			<point x="205" y="276"/>
			<point x="275" y="276" type="curve" smooth="yes"/>
			<point x="345" y="276"/>
			<point x="395" y="232"/>
			<point x="395" y="163" type="curve" smooth="yes"/>
			<point x="395" y="94"/>
			<point x="346" y="51"/>
		</contour>
	</outline>
</glyph>
<glyph name="three.dnom" format="2">
	<advance width="385"/>
	<outline>
		<contour>
			<point x="37" y="72" type="line"/>
			<point x="71" y="22"/>
			<point x="130" y="-9"/>
			<point x="192" y="-9" type="curve" smooth="yes"/>
			<point x="274" y="-9"/>
			<point x="336" y="43"/>
			<point x="336" y="113" type="curve" smooth="yes"/>
			<point x="336" y="183"/>
			<point x="275" y="229"/>
			<point x="182" y="229" type="curve"/>
			<point x="181" y="201" type="line"/>
			<point x="268" y="201"/>
			<point x="326" y="243"/>
			<point x="326" y="305" type="curve" smooth="yes"/>
			<point x="326" y="368"/>
			<point x="269" y="417"/>
			<point x="196" y="417" type="curve" smooth="yes"/>
			<point x="137" y="417"/>
			<point x="79" y="386"/>
			<point x="48" y="336" type="curve"/>
			<point x="93" y="294" type="line"/>
			<point x="116" y="336"/>
			<point x="151" y="360"/>
			<point x="190" y="360" type="curve" smooth="yes"/>
			<point x="232" y="360"/>
			<point x="258" y="335"/>
			<point x="258" y="301" type="curve" smooth="yes"/>
			<point x="258" y="265"/>
			<point x="227" y="241"/>
			<point x="182" y="241" type="curve" smooth="yes"/>
			<point x="153" y="241" type="line"/>
			<point x="153" y="185" type="line"/>
			<point x="182" y="185" type="line" smooth="yes"/>
			<point x="235" y="185"/>
			<point x="268" y="159"/>
			<point x="268" y="118" type="curve" smooth="yes"/>
			<point x="268" y="77"/>
			<point x="236" y="48"/>
			<point x="189" y="48" type="curve" smooth="yes"/>
			<point x="146" y="48"/>
			<point x="110" y="71"/>
			<point x="82" y="115" type="curve"/>
		</contour>
	</outline>
</glyph>
<glyph name="tse.loclBGR" format="2">
	<advance width="610"/>
	<outline>
		<contour>
			<point x="492" y="-127" type="line"/>
			<point x="565" y="-127" type="line"/>
			<point x="565" y="65" type="line"/>
			<point x="554" y="65" type="line" smooth="yes"/>
			<point x="518" y="65"/>
			<point x="502" y="84"/>
			<point x="502" y="124" type="curve" smooth="yes"/>
			<point x="502" y="492" type="line"/>
			<point x="425" y="492" type="line"/>
			<point x="425" y="124" type="line"/>
			<point x="426" y="105" type="line" smooth="yes"/>
			<point x="428" y="39"/>
			<point x="466" y="0"/>
			<point x="529" y="0" type="curve"/>
			<point x="492" y="43" type="line"/>
		</contour>
		<contour>
			<point x="434" y="213" type="line"/>
			<point x="426" y="116"/>
			<point x="356" y="51"/>
			<point x="275" y="51" type="curve" smooth="yes"/>
			<point x="198" y="51"/>
			<point x="153" y="102"/>
			<point x="153" y="198" type="curve" smooth="yes"/>
			<point x="153" y="492" type="line"/>
			<point x="76" y="492" type="line"/>
			<point x="76" y="190" type="line" smooth="yes"/>
			<point x="76" y="56"/>
			<point x="148" y="-16"/>
			<point x="259" y="-16" type="curve" smooth="yes"/>
			<point x="374" y="-16"/>
			<point x="457" y="71"/>
			<point x="450" y="192" type="curve"/>
		</contour>
	</outline>
</glyph>
<glyph name="two.dnom" format="2">
	<advance width="408"/>
	<outline>
		<contour>
			<point x="332" y="0" type="line"/>
			<point x="332" y="58" type="line"/>
			<point x="128" y="58" type="line"/>
			<point x="133" y="45" type="line"/>
			<point x="227" y="136" type="line" smooth="yes"/>
			<point x="301" y="208"/>
			<point x="325" y="247"/>
			<point x="325" y="295" type="curve" smooth="yes"/>
			<point x="325" y="366"/>
			<point x="270" y="417"/>
			<point x="194" y="417" type="curve" smooth="yes"/>
			<point x="135" y="417"/>
			<point x="84" y="387"/>
			<point x="45" y="330" type="curve"/>
			<point x="93" y="286" type="line"/>
			<point x="121" y="337"/>
			<point x="150" y="359"/>
			<point x="189" y="359" type="curve" smooth="yes"/>
			<point x="232" y="359"/>
			<point x="257" y="335"/>
			<point x="257" y="295" type="curve" smooth="yes"/>
			<point x="257" y="261"/>
			<point x="237" y="228"/>
			<point x="188" y="181" type="curve" smooth="yes"/>
			<point x="50" y="50" type="line"/>
			<point x="50" y="0" type="line"/>
		</contour>
	</outline>
</glyph>
<glyph name="ve.loclBGR" format="2">
	<advance width="578"/>
	<outline>
		<contour>
			<point x="297" y="-16" type="curve" smooth="yes"/>
			<point x="435" y="-16"/>
			<point x="529" y="70"/>
			<point x="529" y="195" type="curve" smooth="yes"/>
			<point x="529" y="297"/>
			<point x="465" y="372"/>
			<point x="369" y="385" type="curve"/>
			<point x="369" y="374" type="line"/>
			<point x="449" y="388"/>
			<point x="505" y="458"/>
			<point x="505" y="544" type="curve" smooth="yes"/>
			<point x="505" y="652"/>
			<point x="417" y="731"/>
			<point x="297" y="731" type="curve" smooth="yes"/>
			<point x="166" y="731"/>
			<point x="73" y="637"/>
			<point x="73" y="503" type="curve" smooth="yes"/>
			<point x="73" y="202" type="line" smooth="yes"/>
			<point x="73" y="68"/>
			<point x="160" y="-16"/>
		</contour>
		<contour>
			<point x="300" y="51" type="curve" smooth="yes"/>
			<point x="207" y="51"/>
			<point x="149" y="116"/>
			<point x="149" y="221" type="curve" smooth="yes"/>
			<point x="149" y="493" type="line" smooth="yes"/>
			<point x="149" y="599"/>
			<point x="205" y="664"/>
			<point x="296" y="664" type="curve" smooth="yes"/>
			<point x="375" y="664"/>
			<point x="427" y="613"/>
			<point x="427" y="536" type="curve" smooth="yes"/>
			<point x="427" y="461"/>
			<point x="367" y="408"/>
			<point x="281" y="408" type="curve" smooth="yes"/>
			<point x="110" y="408" type="line"/>
			<point x="110" y="343" type="line"/>
			<point x="276" y="343" type="line" smooth="yes"/>
			<point x="385" y="343"/>
			<point x="450" y="289"/>
			<point x="450" y="199" type="curve" smooth="yes"/>
			<point x="450" y="111"/>
			<point x="389" y="51"/>
		</contour>
	</outline>
</glyph>
<glyph name="zero.dnom" format="2">
	<advance width="425"/>
	<outline>
		<contour>
			<point x="213" y="-9" type="curve" smooth="yes"/>
			<point x="308" y="-9"/>
			<point x="364" y="70"/>
			<point x="364" y="204" type="curve" smooth="yes"/>
			<point x="364" y="338"/>
			<point x="308" y="417"/>
			<point x="213" y="417" type="curve" smooth="yes"/>
			<point x="117" y="417"/>
			<point x="61" y="338"/>
			<point x="61" y="204" type="curve" smooth="yes"/>
			<point x="61" y="70"/>
			<point x="118" y="-9"/>
		</contour>
		<contour>
			<point x="213" y="49" type="curve" smooth="yes"/>
			<point x="158" y="49"/>
			<point x="129" y="103"/>
			<point x="129" y="204" type="curve" smooth="yes"/>
			<point x="129" y="305"/>
			<point x="158" y="359"/>
			<point x="213" y="359" type="curve" smooth="yes"/>
			<point x="267" y="359"/>
			<point x="296" y="305"/>
			<point x="296" y="204" type="curve" smooth="yes"/>
			<point x="296" y="103"/>
			<point x="267" y="49"/>
		</contour>
	</outline>
</glyph>
<glyph name="zero.percent" format="2">
	<advance width="370"/>
	<outline>
		<contour>
			<point x="185" y="-6" type="curve" smooth="yes"/>
			<point x="271" y="-6"/>
			<point x="338" y="62"/>
			<point x="338" y="150" type="curve" smooth="yes"/>
			<point x="338" y="239"/>
			<point x="271" y="306"/>
			<point x="185" y="306" type="curve" smooth="yes"/>
			<point x="100" y="306"/>
			<point x="32" y="239"/>
			<point x="32" y="150" type="curve" smooth="yes"/>
			<point x="32" y="62"/>
			<point x="100" y="-6"/>
		</contour>
		<contour>
			<point x="185" y="56" type="curve" smooth="yes"/>
			<point x="136" y="56"/>
			<point x="100" y="95"/>
			<point x="100" y="150" type="curve" smooth="yes"/>
			<point x="100" y="205"/>
			<point x="136" y="244"/>
			<point x="185" y="244" type="curve" smooth="yes"/>
			<point x="234" y="244"/>
			<point x="270" y="205"/>
			<point x="270" y="150" type="curve" smooth="yes"/>
			<point x="270" y="95"/>
			<point x="234" y="56"/>
		</contour>
	</outline>
</glyph>
